<svg id="图层_1" data-name="图层 1" xmlns="http://www.w3.org/2000/svg" viewBox="0 0 407.3 406.92"><defs><style>.cls-1{fill:#e1685e;}.cls-2{fill:#d3534c;}.cls-3{fill:#74a3e9;}.cls-4{fill:#5b93d6;}</style></defs><title>图标_画板 1</title><g id="图层_4" data-name="图层 4"><circle class="cls-1" cx="204.74" cy="89.5" r="89.5"/><path class="cls-2" d="M235.61,5.47a90,90,0,0,1-73.78,162.59A89.52,89.52,0,1,0,235.61,5.47Z"/><path class="cls-3" d="M233.24,333c24.89-8,53.74-18.91,52-36.77a14.55,14.55,0,0,1-9.67,12.61C262.24,313.55,237.89,320,204.24,320s-58-6.45-71.34-11.16a14.61,14.61,0,0,1-9.32-17.23c3-12.61,9.87-33.61,24.66-57.61a158.84,158.84,0,0,1,36.21-41,4.13,4.13,0,0,0-3.11-7.34c-94.09,13-169,101.9-181.3,214.5a6,6,0,0,0,3.5,6.18c5.7-4.9,47.17-39.28,104.7-51.34C170.24,342,208.24,341,233.24,333Z"/><path class="cls-4" d="M8.65,406.35C59,383.28,128.46,369,205.24,369s143.44,14.28,193.4,37.35a6.09,6.09,0,0,0,8.09-3,6,6,0,0,0,.53-3.21C395,286.6,321.92,197.18,226.7,185.34a4.13,4.13,0,0,0-3.06,7.35A158.71,158.71,0,0,1,260.24,234c14.79,24,21.61,45,24.66,57.61a14.65,14.65,0,0,1,.35,4.62c1.73,17.86-27.12,28.8-52,36.77s-63,9-125,22c-57.53,12.06-99,46.44-104.7,51.34A6,6,0,0,0,8.65,406.35Z"/></g></svg>