<?xml version="1.0" encoding="utf-8"?>
<!-- Generator: Adobe Illustrator 21.0.0, SVG Export Plug-In . SVG Version: 6.00 Build 0)  -->
<svg version="1.1" id="图层_1" xmlns="http://www.w3.org/2000/svg" xmlns:xlink="http://www.w3.org/1999/xlink" x="0px" y="0px"
	 viewBox="0 0 100 100" style="enable-background:new 0 0 100 100;" xml:space="preserve">
<style type="text/css">
	.st0{fill:#62A8EA;}
	.st1{fill:#FFFFFF;}
</style>
<path class="st0" d="M80,100H20C9,100,0,91,0,80V20C0,9,9,0,20,0h60c11,0,20,9,20,20v60C100,91,91,100,80,100z"/>
<g>
	<path class="st1" d="M21,89.3c0,0.9,0,1.5,0.1,1.7s0.3,0.2,1,0.2c0.5,0,0.8,0,1-0.1s0.4-0.3,0.5-0.7c0-0.1,0-0.2,0.1-0.2
		s0.1,0,0.1,0.2s-0.1,1.1-0.2,1.3c-0.1,0.2-0.1,0.2-0.5,0.2c-1.2,0-2.1-0.1-3-0.1c-0.4,0-0.9,0-1.4,0c-0.1,0-0.2,0-0.2-0.1
		s0.1-0.1,0.2-0.1s0.2,0,0.3,0c0.3-0.1,0.3-0.2,0.4-0.9c0-0.4,0-0.9,0-1.4v-1.6c0-1.5,0-1.6,0-1.9c0-0.2-0.1-0.4-0.3-0.5
		c-0.1,0-0.2,0-0.3,0c-0.1,0-0.2,0-0.2-0.1s0.1-0.1,0.3-0.1c0.5,0,1,0,1.3,0c0.1,0,1.2,0,1.5,0c0.2,0,0.2,0,0.2,0.1
		s-0.1,0.1-0.2,0.1s-0.2,0-0.3,0c-0.2,0-0.3,0.2-0.3,0.5s0,0.5,0,1.9v1.6H21z"/>
	<path class="st1" d="M25.3,87.7c0-1.5,0-1.6,0-1.9s-0.1-0.4-0.3-0.5c-0.1,0-0.2,0-0.3,0c-0.1,0-0.2,0-0.2-0.1s0.1-0.1,0.2-0.1
		c0.5,0,0.9,0,1.3,0c0.2,0,2.4,0,2.5,0c0.2,0,0.4,0,0.5,0s0.1,0,0.1,0s0.1,0,0.1,0.1c0,0,0,0.1,0,0.4c0,0.2,0,0.5-0.1,1
		c0,0.1,0,0.1-0.1,0.1c0,0-0.1,0-0.1-0.1s0-0.2,0-0.3c0-0.2-0.2-0.3-0.6-0.4c-0.3,0-1.1,0-1.3,0c-0.1,0-0.1,0-0.1,0.1v2
		c0,0.1,0,0.1,0.1,0.1c0.2,0,1,0,1.3,0c0.4,0,0.6,0,0.7-0.2c0.1-0.1,0.1-0.1,0.1-0.1c0.1,0,0.1,0.1,0.1,0.1c0,0.1,0,0.4-0.1,0.8
		c0,0.2,0,0.6,0,0.7s0,0.2-0.1,0.2s-0.1-0.1-0.1-0.1c0-0.1,0-0.1,0-0.2c0-0.3-0.2-0.4-0.6-0.4c-0.2,0-1,0-1.3,0c0,0-0.1,0-0.1,0.1
		v0.6c0,0.3,0,0.8,0,1.2c0,0.6,0.1,0.8,1.1,0.8c0.2,0,0.6,0,0.8-0.1c0.2-0.1,0.4-0.3,0.4-0.7c0-0.1,0.1-0.2,0.1-0.2
		c0.1,0,0.1,0.1,0.1,0.2c0,0.3-0.1,1-0.1,1.2c-0.1,0.2-0.1,0.2-0.5,0.2c-1.2,0-1.9-0.1-2.8-0.1c-0.4,0-0.8,0-1.3,0
		c-0.2,0-0.2,0-0.2-0.1c0,0,0-0.1,0.2-0.1c0.1,0,0.2,0,0.3,0c0.2,0,0.3-0.4,0.3-0.9c0-0.4,0-0.9,0-1.4V87.7z"/>
	<path class="st1" d="M40.9,90.7c0.1,0.6,0.2,0.8,0.5,0.9c0.2,0.1,0.4,0.1,0.5,0.1s0.2,0,0.2,0.1s-0.1,0.1-0.2,0.1
		c-0.7,0-1.5,0-2.5-0.1c-0.2,0-0.2-0.1-0.2-0.1s0-0.1,0.1-0.1c0.1-0.1,0.2-0.1,0.1-0.5L39,87.9l-1.8,3.4c-0.2,0.5-0.3,0.5-0.4,0.5
		c-0.1,0-0.2-0.1-0.4-0.5c-0.3-0.5-0.9-1.5-1.2-2.1c-0.2-0.3-0.5-1-0.7-1.3l-0.3,2.5c0,0.4,0,0.6,0,0.7c0,0.3,0.1,0.4,0.3,0.4
		c0.1,0,0.2,0,0.3,0s0.2,0,0.2,0.1s0,0.1-0.2,0.1c-0.4,0-0.9,0-1.1,0c-0.3,0-0.7,0-1,0c-0.1,0-0.2,0-0.2-0.1s0.1-0.1,0.2-0.1
		c0.1,0,0.2,0,0.3,0c0.3-0.1,0.3-0.3,0.4-0.8l0.8-5.5c0-0.3,0.1-0.3,0.2-0.3c0.1,0,0.2,0.1,0.3,0.4l2.5,4.3l2.4-4.3
		c0.1-0.2,0.2-0.3,0.3-0.3s0.1,0.1,0.2,0.3L40.9,90.7z"/>
	<path class="st1" d="M43.8,90C43.7,90,43.7,90.1,43.8,90l-0.4,0.8c-0.1,0.2-0.1,0.5-0.1,0.6c0,0.2,0.1,0.2,0.3,0.3
		c0.1,0,0.2,0,0.3,0s0.2,0,0.2,0.1s-0.1,0.1-0.2,0.1c-0.4,0-0.7,0-1.2,0c-0.1,0-0.7,0-1.1,0c-0.1,0-0.2,0-0.2-0.1s0.1-0.1,0.2-0.1
		c0.1,0,0.2,0,0.3,0c0.3-0.1,0.5-0.3,0.7-0.8l2.4-5.4c0.2-0.4,0.3-0.5,0.4-0.5c0.1,0,0.2,0.1,0.3,0.4c0.2,0.5,1.7,3.9,2.3,5.3
		c0.3,0.7,0.5,0.9,0.8,1c0.1,0,0.2,0,0.3,0s0.2,0,0.2,0.1s-0.1,0.1-0.2,0.1c-0.9,0-1.9,0-2.5,0c-0.1,0-0.2,0-0.2-0.1s0-0.1,0.1-0.1
		s0.1-0.1,0.1-0.2L46,90.1c0,0,0-0.1-0.1-0.1C45.9,90,43.8,90,43.8,90z M45.5,89.3C45.6,89.3,45.6,89.3,45.5,89.3l-0.7-2
		c0-0.1,0,0-0.1,0l-0.7,2l0,0H45.5z"/>
	<path class="st1" d="M51.5,89.4c0,0.9,0,1.8-0.2,2.4c-0.2,0.7-0.8,1.4-1.8,2C49.3,93.9,49.2,94,49,94c-0.1,0-0.1,0.1-0.2,0.1
		c0,0-0.1,0-0.1-0.1c0,0,0.1-0.1,0.2-0.2c0.2-0.1,0.3-0.2,0.5-0.4c0.5-0.5,0.5-1.1,0.5-3.4v-2.3c0-1.4,0-1.6,0-1.9
		c0-0.2-0.1-0.4-0.4-0.5c-0.1,0-0.3,0-0.4,0c-0.1,0-0.2,0-0.2-0.1s0-0.1,0.2-0.1c0.4,0,1.4,0,1.4,0c0.1,0,1.1,0,1.5,0
		c0.2,0,0.2,0,0.2,0.1s-0.1,0.1-0.2,0.1c-0.1,0-0.1,0-0.3,0c-0.3,0.1-0.3,0.2-0.4,0.5c0,0.3,0,0.5,0,1.8v1.8H51.5z"/>
	<path class="st1" d="M54,87.7c0-1.5,0-1.6,0-1.9s-0.1-0.4-0.3-0.5c-0.1,0-0.2,0-0.3,0s-0.2,0-0.2-0.1s0.1-0.1,0.2-0.1
		c0.5,0,0.9,0,1.3,0c0.2,0,2.4,0,2.5,0c0.2,0,0.4,0,0.5,0s0.1,0,0.1,0s0.1,0,0.1,0.1c0,0,0,0.1,0,0.4c0,0.2,0,0.5-0.1,1
		c0,0.1,0,0.1-0.1,0.1c0,0-0.1,0-0.1-0.1s0-0.2,0-0.3c0-0.2-0.2-0.3-0.6-0.4c-0.3,0-1.1,0-1.3,0c-0.1,0-0.1,0-0.1,0.1v2
		c0,0.1,0,0.1,0.1,0.1c0.2,0,1,0,1.3,0c0.4,0,0.6,0,0.7-0.2c0.1-0.1,0.1-0.1,0.1-0.1c0.1,0,0.1,0.1,0.1,0.1c0,0.1,0,0.4-0.1,0.8
		c0,0.2,0,0.6,0,0.7s0,0.2-0.1,0.2s-0.1-0.1-0.1-0.1c0-0.1,0-0.1,0-0.2c0-0.3-0.2-0.4-0.6-0.4c-0.2,0-1,0-1.3,0c0,0-0.1,0-0.1,0.1
		v0.6c0,0.3,0,0.8,0,1.2c0,0.6,0.1,0.8,1.1,0.8c0.2,0,0.6,0,0.8-0.1s0.4-0.3,0.4-0.7c0-0.1,0.1-0.2,0.1-0.2c0.1,0,0.1,0.1,0.1,0.2
		c0,0.3-0.1,1-0.1,1.2c-0.1,0.2-0.1,0.2-0.5,0.2c-1.2,0-1.9-0.1-2.8-0.1c-0.4,0-0.8,0-1.3,0c-0.2,0-0.2,0-0.2-0.1c0,0,0-0.1,0.2-0.1
		c0.1,0,0.2,0,0.3,0c0.2,0,0.3-0.4,0.3-0.9c0-0.4,0-0.9,0-1.4C54,89.6,54,87.7,54,87.7z"/>
	<path class="st1" d="M59.4,91.8c-0.2-0.1-0.2-0.2-0.2-0.4c0-0.7,0-1.1,0.1-1.3c0-0.2,0.1-0.2,0.1-0.2c0.1,0,0.1,0.1,0.1,0.2
		s0,0.2,0,0.3c0.2,0.7,0.8,1.1,1.5,1.1c0.8,0,1.1-0.4,1.1-0.8S62,90,61.3,89.5l-0.6-0.4c-1.1-0.8-1.4-1.4-1.4-2.2
		c0-1,0.8-1.9,2.3-1.9c0.4,0,0.7,0,1,0.1c0.1,0,0.3,0.1,0.4,0.1c0.1,0,0.1,0.1,0.1,0.1c0,0.3,0,0.5,0,1.3c0,0.2,0,0.2-0.1,0.2
		c0,0-0.1,0-0.1-0.2c0-0.1,0-0.3-0.2-0.5c-0.2-0.3-0.6-0.6-1.2-0.6c-0.7,0-1,0.4-1,0.8c0,0.3,0.1,0.7,0.7,1.1l0.5,0.3
		c1.2,0.8,1.6,1.4,1.6,2.3c0,0.6-0.3,1.2-0.9,1.6c-0.5,0.3-1.1,0.4-1.6,0.4C60.2,92,59.7,91.9,59.4,91.8z"/>
	<path class="st1" d="M67.9,89.3c0,0.7,0,1.5,0,1.9c0,0.2,0.1,0.4,0.3,0.5c0.1,0,0.2,0,0.4,0c0.1,0,0.2,0,0.2,0.1s0,0.1-0.2,0.1
		c-0.6,0-1.5,0-1.6,0c-0.2,0-1,0-1.3,0c-0.1,0-0.2,0-0.2-0.1s0.1-0.1,0.2-0.1s0.2,0,0.3,0c0.2,0,0.3-0.2,0.3-0.5
		c0-0.4,0.1-1,0.1-1.9v-3.5c-0.3,0-0.9,0-1.3,0c-0.5,0-0.7,0.1-0.8,0.5c0,0.1-0.1,0.2-0.1,0.2c0,0.1,0,0.1-0.1,0.1S64,86.5,64,86.4
		c0-0.4,0.1-0.8,0.2-1.2c0-0.1,0-0.2,0.1-0.2s0.1,0,0.3,0.1c0.2,0,0.7,0.1,1,0.1h3.9c0.3,0,0.4,0,0.6,0c0.1,0,0.2-0.1,0.3-0.1
		c0.1,0,0.1,0.1,0.1,0.3c0,0.1-0.1,1-0.1,1.2c0,0.1,0,0.2-0.1,0.2s-0.1-0.1-0.1-0.2s0-0.1,0-0.2c0-0.3-0.2-0.5-0.7-0.5
		c-0.3,0-0.8,0-1.4,0v3.4H67.9z"/>
	<path class="st1" d="M71.8,87.7c0-1.4,0-1.6,0-1.9c0-0.2-0.1-0.4-0.3-0.4c-0.1,0-0.2,0-0.3,0c-0.1,0-0.2,0-0.2-0.1s0-0.1,0.2-0.1
		c0.4,0,1.2,0,1.3,0c0.1,0,1.1,0,1.5,0c0.2,0,0.2,0,0.2,0.1s-0.1,0.1-0.2,0.1s-0.1,0-0.3,0c-0.2,0-0.3,0.2-0.3,0.5s0,0.5,0,1.9v1.6
		c0,0.7,0,1.5,0,1.9c0,0.2,0.1,0.4,0.3,0.5c0.1,0,0.3,0,0.4,0c0.2,0,0.2,0,0.2,0.1c0,0,0,0.1-0.2,0.1c-0.6,0-1.6,0-1.6,0s-1,0-1.3,0
		c-0.1,0-0.2,0-0.2-0.1s0.1-0.1,0.2-0.1s0.2,0,0.3,0c0.2,0,0.2-0.2,0.3-0.5c0-0.4,0.1-1,0.1-1.9L71.8,87.7L71.8,87.7z"/>
	<path class="st1" d="M76.2,91c-0.9-0.7-1.1-1.7-1.1-2.6c0-0.6,0.2-1.7,1.1-2.5c0.8-0.7,1.7-0.9,2.9-0.9c0.5,0,0.9,0.1,1.3,0.1
		c0.4,0.1,0.6,0.1,0.9,0.1c0.1,0,0.1,0.1,0.1,0.1c0,0.1,0,0.3,0,0.6c0,0.3,0,0.8,0,1c0,0.1,0,0.2-0.1,0.2s-0.1-0.1-0.1-0.2
		c0-0.2,0-0.6-0.3-0.9s-0.9-0.6-1.8-0.6c-0.5,0-1,0.1-1.3,0.4c-0.5,0.5-0.8,1.3-0.8,2.3c0,1.8,1,3.1,2.5,3.1c0.7,0,1.2-0.1,1.5-0.5
		c0.1-0.1,0.2-0.3,0.3-0.6c0-0.2,0.1-0.2,0.1-0.2c0.1,0,0.1,0.1,0.1,0.2c0,0.2-0.1,0.9-0.2,1.4c0,0.1-0.1,0.2-0.2,0.3
		C80.6,92,80,92,79.4,92C78.3,92,77.1,91.8,76.2,91z"/>
</g>
<g>
	<path class="st1" d="M78.8,41.1L78.8,41.1L78.8,41.1L78.8,41.1z M78.1,43.8c0,0.1,0.1,0.2,0.1,0.3c0.2-0.1,0.4-0.1,0.5-0.2
		c0-0.1,0-0.1-0.1-0.2c-0.1,0-0.2,0-0.2-0.1C78.3,43.6,78.2,43.7,78.1,43.8z M78.6,40.2C78.6,40.2,78.7,40.3,78.6,40.2
		c0.1,0.1,0.2,0.1,0.2,0.1c0.1-0.1,0.1-0.1,0.2-0.2L78.9,40C78.8,40.1,78.7,40.2,78.6,40.2z M78,46.9C78,47,78.1,47,78,46.9
		c0.1,0.1,0.2,0.1,0.3,0.1v-0.1c0,0,0-0.1-0.1-0.1C78.2,46.8,78.1,46.9,78,46.9L78,46.9z M78.5,40.1L78.5,40.1
		C78.5,40,78.5,40,78.5,40.1C78.4,40.1,78.4,40,78.5,40.1z M77.9,43c0.2,0.2,0.3,0.4,0.5,0.5c0-0.2,0-0.1-0.1-0.2
		c0.1-0.1,0.1-0.2,0.1-0.3l-0.1-0.1C78.1,42.9,78,42.9,77.9,43L77.9,43z M77.7,48.6L77.7,48.6c0-0.1,0-0.1-0.1-0.2h-0.1
		C77.6,48.5,77.6,48.5,77.7,48.6L77.7,48.6z M77.6,47.7L77.6,47.7c-0.1,0.1-0.1,0.1,0,0.2h0.1c0,0,0,0,0-0.1
		C77.6,47.7,77.6,47.7,77.6,47.7z M78.1,42.6c0,0.1,0.1,0.2,0.2,0.2l0.1-0.1c-0.1-0.2,0.1-0.3-0.1-0.6c-0.1,0-0.1,0-0.2,0.1
		C78.2,42.4,78.1,42.5,78.1,42.6z M82.6,47.9c-0.1,0-0.1,0-0.2,0V48v0.1C82.5,48,82.6,47.9,82.6,47.9L82.6,47.9z M81.7,42.8
		c0.1,0,0.1,0,0.2,0c0,0,0,0,0-0.1l-0.1-0.1l0.1-0.1c-0.2,0-0.2,0-0.2-0.2c0,0,0,0-0.1,0C81.6,42.5,81.7,42.6,81.7,42.8z M81.6,54.1
		c0.1,0,0.2-0.1,0.2-0.1c0-0.1,0-0.2,0-0.3c-0.1,0-0.2,0-0.3,0c0.1,0.1,0.2,0.2,0.3,0.3C81.6,54,81.6,54,81.6,54.1z M81.6,41.9
		L81.6,41.9C81.7,41.9,81.6,42,81.6,41.9z M82.2,45.4c-0.1,0.1,0,0.4,0.1,0.5c0.1,0,0.2,0,0.3,0c0-0.1,0.1-0.2,0.1-0.2
		C82.6,45.6,82.5,45.5,82.2,45.4C82.1,45.4,82.2,45.3,82.2,45.4z M78.9,47.1c-0.1,0-0.1,0-0.2,0.1c0,0.1,0,0.1,0.1,0.2
		c0.1,0,0.2-0.1,0.3-0.1c0,0,0,0,0-0.1c0,0,0,0,0-0.1C79.1,47.1,79,47.1,78.9,47.1z M78.7,44.6L78.7,44.6l0.1,0.3c0.1,0,0.2,0,0.2,0
		l0,0c0-0.1-0.1-0.1-0.1-0.2C78.8,44.5,78.8,44.6,78.7,44.6z M77.3,45.6c-0.1,0-0.2,0-0.2,0l0,0c0,0.1,0.1,0.4,0.2,0.5
		c0,0.1-0.1,0.1-0.1,0.2c0.2,0.1,0.2,0.1,0.3,0.2h0.1c0-0.1,0-0.2,0-0.3c0.1,0,0.1,0,0.2,0C77.6,45.9,77.5,45.8,77.3,45.6z
		 M82.3,48.9C82.3,48.9,82.4,48.9,82.3,48.9c0.1,0,0.1,0,0.2-0.1v-0.1C82.4,48.8,82.4,48.8,82.3,48.9z M76.9,35.5
		c0.1-0.1,0.1-0.1,0.2-0.2c0-0.1,0-0.1-0.1-0.1s0,0-0.1-0.1H77c0-0.1,0-0.1-0.1-0.2c-0.1-0.1-0.3-0.1-0.4-0.2l-0.1,0.1
		c0,0.3,0.1,0.3,0.2,0.5C76.7,35.4,76.8,35.5,76.9,35.5z M78.5,38.9C78.6,39,78.6,39,78.5,38.9c0.2,0.1,0.2,0.2,0.3,0.2
		c0,0.2,0,0.2-0.1,0.3c-0.1,0-0.2,0-0.3,0c0,0.1,0,0.2-0.1,0.2c0.3,0,0.7,0.1,0.8,0.2c0,0.1,0,0.2-0.1,0.3c0.2,0.1,0.4,0.1,0.6,0.2
		c0-0.5-0.1-0.6-0.3-0.8c0-0.1,0.1-0.2,0.1-0.3c-0.1-0.1-0.3-0.4-0.5-0.4C78.8,38.8,78.6,38.8,78.5,38.9z M77.3,48.6
		C77.4,48.6,77.4,48.6,77.3,48.6C77.4,48.6,77.4,48.6,77.3,48.6C77.4,48.6,77.4,48.6,77.3,48.6C77.4,48.6,77.4,48.6,77.3,48.6
		L77.3,48.6z M79,36.1L79,36.1C79,36.1,78.9,36.1,79,36.1c-0.1-0.1-0.1,0-0.2,0c0,0,0,0,0,0.1C78.9,36.1,79,36.1,79,36.1z
		 M79.9,41.5c0.1-0.1,0.1-0.1,0.1-0.2c0-0.1-0.1-0.1-0.2-0.1C79.9,41,80,41,80,40.9s-0.1-0.1-0.1-0.2c-0.2,0-0.2,0.1-0.4,0.2
		C79.5,41.2,79.6,41.4,79.9,41.5z M77.3,50.2c0.2-0.1,0.4-0.2,0.6-0.4c0-0.2,0-0.2-0.1-0.3c0,0,0-0.1,0.1-0.1
		c0.1,0.1,0.3,0.1,0.4,0.2c0,0,0,0,0-0.1c0.1-0.1,0.1-0.1,0.1-0.3c-0.2,0-0.5,0-0.6-0.2c0.1,0,0.1,0,0.1-0.1c0,0,0,0,0-0.1
		c-0.2-0.1-0.3-0.1-0.4-0.3c-0.1,0.1-0.1,0.1-0.1,0.3c0.1,0.1,0.1,0.1,0.2,0.2h-0.1v0.1c0.1,0,0.2,0,0.3,0.1v0.1c-0.1,0-0.2,0-0.3,0
		v0.1c0.1,0,0.1,0.1,0.2,0.1c0,0,0,0,0,0.1c-0.2,0-0.3,0.1-0.4,0.1l0.1,0.1C77.2,50,77.3,50.1,77.3,50.2z M78.2,49.3
		C78.1,49.4,78.1,49.3,78.2,49.3C78.1,49.3,78.1,49.3,78.2,49.3z M79.4,41.3c-0.1,0-0.1,0-0.2,0l0,0C79.2,41.3,79.2,41.3,79.4,41.3
		C79.4,41.4,79.4,41.4,79.4,41.3L79.4,41.3z M77.8,36.3L77.8,36.3c-0.1-0.1-0.1-0.2-0.2-0.3c-0.1,0-0.2,0-0.2,0c0,0.1,0,0.3,0,0.4
		c0.1,0,0.1,0,0.2,0C77.6,36.4,77.7,36.4,77.8,36.3z M77.3,39.7L77.3,39.7v-0.2c-0.1,0-0.1,0-0.2,0c0,0.2,0,0.2-0.1,0.3
		C77.2,39.8,77.3,39.8,77.3,39.7z M81.5,40.9C81.5,40.9,81.5,40.8,81.5,40.9c0-0.1,0-0.1,0-0.2c-0.1,0-0.2,0-0.3,0.1c0,0,0,0,0,0.1
		C81.3,40.9,81.4,40.9,81.5,40.9z M77.8,37.7C77.8,37.7,77.8,37.6,77.8,37.7c-0.2-0.1-0.4-0.1-0.5-0.2h-0.1l0,0
		C77.4,37.7,77.5,37.8,77.8,37.7z M77.3,36.9L77.3,36.9C77.3,36.9,77.2,36.9,77.3,36.9C77.3,36.9,77.2,36.9,77.3,36.9z M83.1,46.2
		C83.1,46.1,83.1,46.1,83.1,46.2C83,46.1,83,46.1,83.1,46.2C83,46.1,83,46.2,83.1,46.2L83.1,46.2z M78.7,38.3L78.7,38.3L78.7,38.3
		C78.6,38.3,78.6,38.3,78.7,38.3c-0.1,0.1,0,0.1,0,0.2c0.1,0,0.2-0.1,0.3-0.1c-0.1-0.1-0.2-0.1-0.3-0.3c-0.1-0.4-0.2-0.7-0.5-1
		c-0.1,0-0.3,0.4-0.3,0.5C78.2,37.6,78.6,38.1,78.7,38.3z M77.8,41.6C77.8,41.6,77.7,41.6,77.8,41.6C77.7,41.6,77.8,41.7,77.8,41.6
		C77.8,41.7,77.8,41.7,77.8,41.6L77.8,41.6z M77.7,38.4C77.7,38.4,77.7,38.5,77.7,38.4c0.1,0.1,0.2,0.1,0.3,0.1
		C77.9,38.4,77.8,38.4,77.7,38.4L77.7,38.4z M77.8,41.8L77.8,41.8L77.8,41.8c0.1,0.1,0.1,0,0.2,0c0-0.1,0-0.1,0-0.2
		C78,41.7,77.9,41.8,77.8,41.8z M77.1,44.8c0.1-0.1,0.1-0.1,0-0.2c-0.1,0-0.1,0-0.2,0c0,0,0,0-0.1,0v0.1
		C77,44.8,77.1,44.8,77.1,44.8z M77.9,43.8L77.9,43.8l-0.2-0.1c0,0,0,0-0.1,0c0,0.1,0,0.1,0.1,0.1C77.9,43.8,77.8,43.8,77.9,43.8z
		 M77.5,42.6L77.5,42.6C77.4,42.5,77.4,42.5,77.5,42.6C77.4,42.5,77.4,42.6,77.5,42.6C77.4,42.6,77.5,42.6,77.5,42.6z M77.2,41.8
		c0.1,0,0.1,0,0.2,0v-0.1C77.3,41.8,77.3,41.8,77.2,41.8L77.2,41.8L77.2,41.8z M77,44.4L77,44.4c0.1-0.1,0.1-0.2,0.1-0.3V44
		c-0.1,0-0.1,0-0.2,0C77,44.2,77,44.3,77,44.4z M77.3,40.3C77.3,40.4,77.3,40.4,77.3,40.3c0.1,0.1,0.2,0.1,0.3,0.1l0,0
		C77.5,40.4,77.4,40.3,77.3,40.3L77.3,40.3z M77.4,42.8L77.4,42.8c0,0.1,0,0.1,0.1,0.2h0.1c0,0,0,0,0-0.1s0-0.1,0-0.2
		C77.5,42.7,77.5,42.8,77.4,42.8z M77.6,43.2C77.7,43.2,77.7,43.2,77.6,43.2C77.7,43.2,77.6,43.2,77.6,43.2L77.6,43.2z M82.8,44.8
		c-0.1,0-0.2,0-0.2-0.1v0.1C82.6,44.8,82.6,44.8,82.8,44.8C82.7,44.9,82.7,44.9,82.8,44.8z M80.6,47.5L80.6,47.5
		C80.4,47.5,80.5,47.4,80.6,47.5L80.6,47.5L80.6,47.5z M78.7,51.8C78.7,51.8,78.7,51.9,78.7,51.8c0.1,0.1,0.2,0.1,0.2,0.1v-0.1
		C78.9,51.8,78.9,51.8,78.7,51.8C78.8,51.8,78.8,51.8,78.7,51.8z M76.8,36.6l0.2,0.1c0-0.1,0-0.1-0.1-0.2
		C76.9,36.6,76.9,36.6,76.8,36.6z M79.2,50.3c-0.1-0.3,0.1-0.2,0.2-0.5c0,0,0,0-0.1,0c-0.3,0-0.4,0.2-0.6,0.2
		c-0.2-0.1-0.2-0.2-0.5-0.2c-0.2,0.2-0.6,0.4-1,0.5v0.1c0.1,0.1,0.2,0.2,0.3,0.3l0,0c0-0.1,0.1-0.1,0.1-0.2c0.1,0,0.3,0.1,0.4,0.1
		c0-0.1,0-0.1,0-0.2c0,0,0.1,0,0.1,0.1s0,0.1,0.1,0.2c0,0,0,0,0-0.1c0.1-0.1,0.1-0.6,0.3-0.4c0.1,0,0.1,0.1,0.2,0.1
		c0,0.1-0.1,0.1-0.1,0.2C78.9,50.7,79,50.6,79.2,50.3z M78.3,50.4c-0.2,0-0.2,0-0.3,0c-0.1-0.1-0.1-0.1-0.2-0.2
		c0.1,0,0.1-0.1,0.2-0.1h0.1c0.1,0,0.2,0,0.2,0.1c0,0,0,0,0,0.1C78.4,50.3,78.3,50.4,78.3,50.4z M78.5,50.3L78.5,50.3
		C78.4,50.3,78.4,50.2,78.5,50.3C78.5,50.2,78.5,50.2,78.5,50.3C78.5,50.2,78.5,50.3,78.5,50.3z M79.4,51.2
		C79.4,51.2,79.4,51.1,79.4,51.2c-0.2-0.1-0.3-0.1-0.3-0.2c-0.2,0-0.4,0.1-0.5,0.2v0.1c0.2,0,0.4,0,0.6,0.1
		C79.2,51.3,79.2,51.3,79.4,51.2z M80.5,45.6c0,0.1,0.1,0.1,0.1,0.2c-0.1,0-0.1,0-0.2,0c-0.1-0.1-0.1-0.1-0.2-0.1
		c-0.1,0.2-0.3,0.4-0.2,0.5l0,0c0.1-0.1,0.1-0.1,0.2-0.1c0,0.3,0.3,0.2,0,0.5v0.1c0.1,0,0.1,0.1,0.2,0.1s0.1-0.1,0.1,0
		c0.1,0.1,0,0.1,0,0.2c0.2,0,0.2,0,0.2,0.1c-0.1,0-0.1,0-0.2,0.1c0.1,0.1,0.1,0.1,0.1,0.1c-0.1,0.1-0.1,0.1,0,0.2
		c0.1,0.1,0.2,0.1,0.3,0.1c0,0-0.1,0-0.1,0.1c-0.1,0-0.1-0.1-0.2-0.1c0,0.1,0,0.1,0,0.2c-0.3-0.1-0.4-0.2-0.7-0.2v0.1H80
		c0.1,0.1,0,0.1,0,0.3c0.1,0.1,0.5,0.4,0.5,0.5c-0.2,0-0.3-0.1-0.4,0.1c0,0.2-0.1,0.3-0.1,0.4c0.1,0.2,0.3,0.2,0.5,0.5
		c0,0,0,0,0,0.1c-0.2,0-0.3,0.1-0.5,0.1c0,0.1,0,0.2,0,0.3h0.1c0.1,0,0.3,0,0.4,0c0,0.1,0,0.1,0,0.2c0.1,0,0.1,0,0.2,0
		c0,0.1,0.1,0.2,0.1,0.4c0.3,0,0.5,0,0.8,0l0.1-0.1v-0.1c-0.1,0-0.1,0-0.2-0.1c0.1-0.1,0.1-0.2,0.2-0.3c-0.1,0-0.1,0-0.2-0.1
		c0.2-0.2,0.1-0.6-0.1-0.9c-0.1,0-0.2,0-0.2,0.1c0,0.2-0.1,0.2-0.2,0.3c-0.2,0-0.4,0-0.4-0.1c0.1-0.1,0.2-0.2,0.2-0.4
		c0.2,0,0.7-0.1,0.8-0.3l0,0c0,0-0.1-0.7-0.1-0.9c0,0,0,0,0-0.1c0-0.2-0.2-0.2-0.2-0.4c0.1,0,0.1,0,0.1-0.1c-0.1,0-0.1-0.1-0.2-0.1
		c0.1-0.1,0.1-1.1-0.1-1.3c-0.1,0-0.3-0.1-0.4-0.1C80.6,45.5,80.6,45.6,80.5,45.6z M80.6,49.2L80.6,49.2c0.1,0.1,0.2,0.1,0.2,0.2
		h-0.1c-0.1,0-0.1,0-0.1-0.1C80.6,49.3,80.6,49.2,80.6,49.2z M80.6,48.4c0-0.2-0.2-0.2-0.3-0.3l0,0c0,0,0,0,0.1,0
		c0.2,0,0.2,0,0.3-0.1c0.1,0.1,0.1,0.1,0.2,0.2C80.7,48.2,80.7,48.3,80.6,48.4z M81.2,46.1C81.1,46.2,81.1,46.2,81.2,46.1
		C81.1,46.2,81.1,46.2,81.2,46.1C81.1,46.2,81.1,46.2,81.2,46.1z M81.1,47.7c0,0.1,0,0.1,0.1,0.2c-0.2,0-0.2,0-0.3,0
		C81,47.8,81.1,47.8,81.1,47.7z M80.3,46.1L80.3,46.1c0.1-0.1,0.2-0.1,0.3-0.1c0,0.1,0,0.1,0,0.2h-0.1
		C80.4,46.1,80.4,46.1,80.3,46.1z M80.5,46.3C80.5,46.3,80.6,46.3,80.5,46.3C80.6,46.3,80.6,46.4,80.5,46.3
		C80.6,46.4,80.6,46.4,80.5,46.3C80.5,46.4,80.5,46.4,80.5,46.3z M80.6,46.7c0-0.1,0-0.1-0.1-0.2c0,0,0,0,0.1,0
		C80.7,46.6,80.7,46.7,80.6,46.7C80.7,46.7,80.7,46.7,80.6,46.7z M78.5,50.7L78.5,50.7C78.6,50.7,78.6,50.7,78.5,50.7
		C78.5,50.7,78.5,50.7,78.5,50.7L78.5,50.7z M76.9,39c0.1,0,0.2,0,0.3,0v-0.1C77,38.9,76.9,38.8,76.9,39z M77,36.5L77,36.5
		C77.1,36.5,77.1,36.4,77,36.5C77,36.5,77.1,36.4,77,36.5z M76.9,43.1c0-0.2-0.1-0.2-0.3-0.3c-0.2,0-0.2,0.1-0.4,0.1l0.1,0.1l0,0
		C76.6,43,76.6,43,76.9,43.1z M76.5,52.7L76.5,52.7C76.5,52.7,76.4,52.7,76.5,52.7z M79.8,42C79.8,42,79.9,42,79.8,42
		c0.2,0.2,0.3,0.3,0.4,0.4c0,0,0,0.1-0.1,0.1s-0.2,0.1-0.3,0.1c-0.1-0.2-0.1-0.4-0.2-0.7c-0.3,0-0.4-0.2-0.5-0.4H79
		c0,0.1,0.1,0.2,0.1,0.3c0.1,0.1,0.2,0.1,0.3,0.2h-0.1c-0.1,0-0.2,0-0.2-0.1c0,0,0,0-0.1,0c0,0.1,0,0.1,0,0.2c0.2,0,0.3,0.1,0.4,0.2
		l-0.1,0.2c0,0,0.1,0,0.1,0.1c0.1-0.1,0.2-0.1,0.3,0c0,0.2,0,0.3,0,0.5c0,0,0,0,0,0.1c0.1,0,0.1,0,0.2,0v-0.1c0-0.1,0-0.1,0-0.2H80
		c0.1,0.2,0.3,0.3,0.3,0.5c0.1,0,0.1,0,0.2,0s0.1-0.1,0.2-0.1c0.1-0.7-0.4-1-0.6-1.5c-0.1,0-0.1,0-0.2,0
		C79.9,41.9,79.9,41.9,79.8,42z M80.1,46.9L80.1,46.9C80,47,80,47,79.9,47l0,0c0,0,0,0.1,0.1,0.1h0.1c0.1-0.1,0.1-0.1,0.2-0.2
		c0-0.1-0.1-0.1-0.1-0.2C80.1,46.9,80.2,46.8,80.1,46.9z M80.6,43.8c-0.1,0-0.2-0.1-0.2-0.1v0.1l0,0C80.5,43.8,80.5,43.9,80.6,43.8
		c0,0.2,0,0.2-0.1,0.3h0.1h0.1c0.1-0.1,0.1-0.1,0.2-0.2v-0.1C80.8,43.8,80.7,43.7,80.6,43.8C80.6,43.7,80.6,43.7,80.6,43.8z
		 M80.2,46.7C80.1,46.7,80.2,46.7,80.2,46.7L80.2,46.7z M80.1,45.6c0.1,0,0.1,0,0.2,0c0,0,0,0,0-0.1v-0.1c0-0.1-0.1-0.1-0.1-0.2
		C80,45.3,80,45.5,80.1,45.6C80,45.6,80,45.6,80.1,45.6z M76.4,34.4c-0.1-0.3-0.2-0.4-0.4-0.6c-0.1,0.1-0.1,0.2-0.2,0.3v0.1
		C76,34.2,76.2,34.3,76.4,34.4z M79.7,43.1L79.7,43.1c-0.1,0.1,0,0.1,0.1,0.2c0,0,0,0,0.1,0v-0.1C79.7,43.1,79.7,43.1,79.7,43.1z
		 M80.6,38.7C80.5,38.7,80.5,38.7,80.6,38.7C80.5,38.6,80.5,38.6,80.6,38.7C80.5,38.7,80.5,38.7,80.6,38.7
		C80.5,38.7,80.5,38.7,80.6,38.7z M80.5,50.5c0-0.1,0,0,0.1-0.2v-0.1c0,0-0.1,0-0.1-0.1v0.1c-0.1-0.1-0.1-0.1-0.2-0.1
		c-0.1,0.1-0.2,0.1-0.3,0.2c0.1,0.2,0.1,0.2,0.1,0.5c0.3,0.1,0.4,0.2,0.7,0.3c0,0,0,0-0.1-0.1C80.6,50.9,80.5,50.9,80.5,50.5
		c-0.2,0.1-0.3,0.1-0.4,0c0.1,0,0.1-0.1,0.2-0.1C80.3,50.5,80.4,50.5,80.5,50.5z M80,50.4L80,50.4L80,50.4
		C80,50.3,80.1,50.3,80,50.4L80,50.4C80.1,50.4,80.1,50.4,80,50.4z M80.4,45.1L80.4,45.1c0-0.2-0.1-0.3-0.1-0.5c-0.1,0-0.1,0-0.2,0
		c0,0.1,0,0.2,0,0.3H80c0-0.1,0-0.1-0.1-0.1c0,0.1-0.1,0.1-0.1,0.2l0.1,0.1C80,45.1,80.2,45.1,80.4,45.1z M79.8,44.6L79.8,44.6
		C79.8,44.7,79.8,44.7,79.8,44.6L79.8,44.6z M78.6,49.8c0.1,0,0.1,0,0.2-0.1C78.7,49.7,78.6,49.7,78.6,49.8
		C78.5,49.8,78.6,49.8,78.6,49.8z M76.4,42.4L76.4,42.4c-0.1-0.1-0.1-0.2-0.2-0.2h-0.1v0.1v0.1C76.2,42.4,76.3,42.4,76.4,42.4z
		 M76.1,41.5c0.1,0,0.2,0.1,0.3,0c-0.1-0.1-0.1-0.1-0.2-0.2c0-0.2,0-0.2-0.1-0.2s-0.1,0.1-0.2,0.2c0.1,0,0.1,0,0.2,0
		C76.1,41.4,76.1,41.4,76.1,41.5z M75.9,55.3c0-0.2,0.1-0.1,0.1-0.3c-0.2,0-0.2,0.1-0.4,0.2C75.7,55.2,75.8,55.3,75.9,55.3
		C75.8,55.3,75.8,55.3,75.9,55.3z M75.6,33.8L75.6,33.8C75.7,33.8,75.7,33.8,75.6,33.8L75.6,33.8C75.7,33.8,75.7,33.8,75.6,33.8
		L75.6,33.8z M77.1,43.7L77.1,43.7C77,43.6,77,43.5,77,43.5h-0.1c0,0,0,0.1-0.1,0.1v0.1C76.9,43.7,77,43.7,77.1,43.7z M76,39L76,39
		L76,39C76,39,76,39,76,39L76,39z M79,48.1L79,48.1L79,48.1L79,48.1C79.2,48.1,79.1,48.1,79,48.1C79.1,48.1,79.1,48.1,79,48.1z
		 M79.1,48.6L79.1,48.6C79,48.7,79,48.7,79.1,48.6C79,48.7,79.1,48.7,79.1,48.6C79.2,48.7,79.1,48.7,79.1,48.6z M80.5,44.9
		C80.5,45,80.5,45,80.5,44.9c0.1,0.1,0.1,0.1,0.2,0.1s0.2,0,0.3-0.1l0,0c-0.1,0-0.2-0.1-0.3-0.1C80.5,44.8,80.6,44.9,80.5,44.9z
		 M79.3,49.4c-0.1-0.1-0.1-0.1-0.1-0.4c-0.2,0-0.5,0.1-0.6,0.2v0.1c0.1,0.1,0.2,0.1,0.3,0.2c0,0.1-0.1,0.1-0.1,0.2l0,0
		c0.1,0,0.2,0,0.3-0.1l0,0c-0.1-0.1-0.1-0.1,0-0.2C79.3,49.4,79.3,49.4,79.3,49.4z M76.4,39.6L76.4,39.6L76.4,39.6
		c0-0.1,0-0.2,0-0.2h-0.1C76.3,39.5,76.3,39.6,76.4,39.6z M76.8,42.7c-0.1-0.1,0-0.2-0.1-0.3c-0.1,0-0.2,0-0.3,0c0,0.1,0,0.1,0,0.2
		C76.6,42.7,76.6,42.7,76.8,42.7C76.7,42.7,76.8,42.7,76.8,42.7z M76.4,38.2c0-0.1,0-0.1,0-0.2l-0.1-0.1c-0.1,0-0.1,0.1-0.2,0.1v0.1
		C76.2,38.1,76.3,38.1,76.4,38.2z M76.4,38.2c-0.1,0.1-0.1,0.1-0.2,0.1v0.1c0.1,0.1,0.2,0.2,0.2,0.2h0.1c0-0.1,0-0.2,0.1-0.3
		C76.5,38.3,76.5,38.2,76.4,38.2C76.5,38.2,76.5,38.2,76.4,38.2z M76.2,42.1c0.1,0.1,0.1,0.1,0.1,0.2l0.1-0.1
		c0.1-0.1,0.1-0.1,0.1-0.2C76.4,42,76.3,42,76.2,42.1C76.2,42,76.3,42,76.2,42.1z M76.3,41.7L76.3,41.7L76.3,41.7
		C76.3,41.7,76.3,41.7,76.3,41.7z M76.1,35.4L76.1,35.4l0.1,0.2c0,0,0,0,0.1,0v-0.1C76.3,35.5,76.3,35.4,76.1,35.4
		C76.2,35.4,76.2,35.4,76.1,35.4z M75.7,37.2L75.7,37.2c0.2,0.1,0.3,0.1,0.3,0.1c0-0.1,0-0.1,0-0.2c0.2,0,0.2,0,0.2-0.1
		c-0.2,0-0.4,0-0.5,0.1C75.8,37.2,75.7,37.2,75.7,37.2z M76.3,37.2L76.3,37.2L76.3,37.2C76.3,37.3,76.4,37.3,76.3,37.2
		C76.4,37.3,76.4,37.3,76.3,37.2C76.4,37.2,76.3,37.2,76.3,37.2z M76.1,39.1L76.1,39.1L76.1,39.1L76.1,39.1z M76.7,36.3L76.7,36.3
		L76.7,36.3c0.1,0.1,0.1,0.1,0.2,0.1C76.8,36.4,76.8,36.4,76.7,36.3C76.8,36.3,76.7,36.3,76.7,36.3z M78.2,49.7L78.2,49.7
		C78.2,49.6,78.1,49.6,78.2,49.7L78.2,49.7C78.1,49.7,78.1,49.7,78.2,49.7z M75.1,66.4L75.1,66.4c0.2,0.1,0.2,0.1,0.3,0
		c0,0,0,0,0-0.1C75.3,66.4,75.2,66.4,75.1,66.4z M69.4,72C69.4,72.1,69.4,72.1,69.4,72C69.4,72.1,69.5,72.1,69.4,72L69.4,72
		C69.5,72.1,69.5,72.1,69.4,72C69.4,72.1,69.4,72,69.4,72z M71.5,63C71.5,63,71.6,63,71.5,63C71.6,63,71.6,62.9,71.5,63
		C71.5,62.9,71.5,62.9,71.5,63z M69.3,72.3L69.3,72.3L69.3,72.3z M22.8,37.8C22.8,37.8,22.8,37.7,22.8,37.8
		c-0.1-0.1-0.1-0.1-0.2-0.1l-0.1,0.1l0,0C22.6,37.8,22.7,37.8,22.8,37.8z M21.7,44.6L21.7,44.6c-0.1,0-0.1,0-0.1,0
		S21.6,44.6,21.7,44.6C21.7,44.7,21.7,44.7,21.7,44.6L21.7,44.6z M20.9,46.1c0.1,0,0,0,0.1-0.1C21,46.1,21,46.1,20.9,46.1z
		 M62.7,76.2C62.8,76.2,62.8,76.2,62.7,76.2C62.8,76.2,62.8,76.2,62.7,76.2C62.8,76.2,62.8,76.2,62.7,76.2L62.7,76.2z M49.2-0.1
		L49.2-0.1C49.2-0.1,49.2-0.2,49.2-0.1C49.2-0.2,49.2-0.1,49.2-0.1z M81.4,56.6c-0.3-0.1-0.5-0.2-0.9-0.3v-0.1
		c0.2-0.1,0.3-0.2,0.5-0.4c0.1,0.1,0.2,0.1,0.5,0.1c0.1-0.1,0.1-0.1,0.2-0.2c-0.3,0.1-0.5-0.2-0.6-0.3c-0.1,0-0.2,0-0.3,0
		c0,0,0,0,0-0.1c0.1-0.1,0.2-0.1,0.3-0.2c0-0.1-0.1-0.2-0.2-0.3c-0.1,0.1-0.1,0.1-0.2,0.2c0,0-0.1,0-0.1-0.1v-0.1
		c0.1-0.1,0.2-0.1,0.4-0.2c-0.3-0.1-0.2-0.2-0.5-0.3l0.1-0.1l-0.1-0.1c0,0,0,0,0-0.1c0,0,0,0,0.1,0c0.2,0,0.3,0.1,0.6,0.1
		c0-0.1,0-0.1,0-0.2h0.1c0.1,0,0.1,0,0.2,0v-0.1l-0.1-0.1l0,0c0,0.1,0,0.1-0.1,0.2c0,0,0,0,0-0.1c0.1,0,0.1-0.1,0.2-0.1
		c0,0,0,0,0-0.1c-0.3-0.1-0.3-0.3-0.5-0.4c0-0.1,0.1-0.1,0.1-0.2c0,0.1,0.1,0.1,0.1,0.2h0.1c0,0,0.3-0.8,0.3-0.9
		c-0.1,0-0.5-0.4-0.6-0.5c0.1,0,0.1-0.1,0.2-0.1c0-0.1,0-0.1-0.1-0.2c0.1,0,0.2,0.1,0.2,0.1c0.3-0.2,0.4-0.9,0.1-1.1c0,0,0,0-0.1,0
		l0,0c0.1,0,0.1,0,0.1,0.1c-0.1,0.1-0.1,0.1-0.2,0c0-0.1,0-0.1-0.1-0.1L81,50.6h-0.1c0,0.1,0,0.1,0,0.2c0,0,0.1,0,0.1,0.1
		c0.1,0,0.1-0.1,0.2,0c0,0.1,0.1,0.1,0.1,0.2c0,0,0,0,0,0.1c-0.1,0-0.3,0.1-0.4,0.1c-0.2-0.1-0.3-0.1-0.5-0.3c0,0-0.1,0-0.1,0.1
		s0,0.2,0,0.4c0.1,0,0.2,0,0.2,0.1c-0.1,0-0.1,0-0.2,0.1v0.1c0.2,0,0.2,0.1,0.3,0.1c0.3,0,0.3-0.4,0.6-0.1l-0.1,0.1
		c-0.3,0.1-0.6,0.2-0.9,0.1c0,0.3-0.2,0.5-0.1,0.8c0.1,0,0.1,0,0.2,0.1c-0.1,0-0.1-0.1-0.2,0c0,0,0,0-0.1,0c0,0.1,0,0.2,0,0.3
		c0.2,0.1,0.4,0.2,0.7,0.2c0,0,0,0.1,0.1,0.1c0,0.1-0.1,0.2-0.1,0.3c-0.1,0-0.1-0.1-0.2-0.1c-0.2,0.1-0.5,0.2-0.7,0.4
		c0,0.1,0,0.1,0,0.2c0,0,0,0,0.1,0s0.3,0,0.4,0s0.1,0.1,0.2,0.1c0-0.1,0-0.1,0-0.2c0.2-0.1,0.3-0.1,0.4,0c0,0.1-0.1,0.1-0.1,0.2
		c-0.1,0-0.2,0-0.3,0c0,0.1,0,0.1,0,0.2c0,0,0.1,0,0.1,0.1c0,0,0,0,0,0.1c-0.2,0-0.2,0-0.3,0.1c0,0.1,0,0.1,0.1,0.2l0,0h-0.1
		c-0.1-0.1-0.2-0.3-0.5-0.3c-0.1,0.1,0,0.1-0.2,0.1c-0.1-0.1-0.2-0.1-0.3-0.2c0-0.1,0-0.4-0.1-0.6c-0.1,0-0.2-0.1-0.4-0.1
		c-0.1,0.1-0.2,0.1-0.4,0.1c0,0.1,0,0.1,0,0.2c-0.1,0-0.2,0-0.3,0c0,0.1,0,0.1,0.1,0.2c-0.1,0-0.2-0.1-0.3-0.1c0,0,0,0,0-0.1
		c0.1,0,0.1,0,0.2,0c0-0.2,0-0.2,0-0.3h0.1c0-0.2,0-0.4,0-0.6c-0.2,0-0.3-0.1-0.3-0.2l0,0c0.1,0,0.3,0,0.4,0c0-0.1,0-0.1,0.1-0.2
		c-0.1-0.1-0.2-0.2-0.2-0.3c0.1,0,0.2,0,0.3,0c0.1,0.1,0.1,0.2,0.3,0.2V53c0.2,0,0.3,0.2,0.5,0.2v-0.1c0-0.1-0.1-0.3,0-0.4
		c-0.5,0-0.4-0.2-0.8-0.4c0-0.1,0-0.1,0-0.2c-0.4,0-0.5,0.2-0.9-0.1c0.1-0.1,0.2-0.1,0.3-0.2c0.2,0,0.4,0,0.6,0.1c0,0,0,0,0.1-0.1
		c0,0,0,0,0-0.1c-0.2,0-0.5,0-0.6,0c0,0-0.1,0-0.1-0.1c0,0,0-0.1,0.1-0.1c0.3,0,0.4-0.2,0.6-0.4c0.1,0.1,0.1,0.1,0,0.2h0.1
		c0.1-0.1,0.1-0.2,0.1-0.3c-0.3,0-0.3-0.2-0.4,0c-0.3,0-0.6,0-0.8,0.1c0.1,0.2,0.2,0.3,0.2,0.4c-0.1,0.3-0.3,0.3-0.4,0.5
		c0,0.3,0.2,0.4,0.4,0.5c0,0,0,0.1-0.1,0.1s-0.1,0-0.2,0.1c0.1,0,0.1,0,0.2,0.1l-0.1,0.1c-0.1,0-0.2,0-0.3,0
		c0.1,0.2,0.2,0.2,0.3,0.3l0,0c0,0,0,0-0.1,0s-0.2,0-0.3,0.1c0,0.1-0.1,0.1-0.1,0.2c0.1,0.1,0.2,0.1,0.2,0.3
		c-0.2,0.1-0.2,0.1-0.3,0.3c0.1,0,0.1,0.1,0.2,0.1v0.1c-0.1,0-0.1,0-0.2,0.1v0.1c0.1,0.1,0.3,0.2,0.4,0.3c0-0.1,0-0.1,0-0.2h0.1
		c0.1,0.1,0.1,0.1,0.2,0.2l0,0l-0.1,0.1c0.1,0,0.2,0,0.3,0c0,0.3,0,0.2,0.1,0.4v0.1h-0.1c-0.1,0-0.2,0-0.3,0c0-0.1,0.1-0.2,0.1-0.2
		c-0.1-0.1-0.1-0.2-0.3-0.3c-0.2,0-0.4-0.1-0.6,0l0,0c0,0.1,0.1,0.1,0.1,0.2c0,0,0,0,0,0.1c-0.1,0-0.2,0-0.3,0.1
		c0,0.1,0.1,0.2,0.1,0.3c-0.1,0.1-0.2,0.1-0.3,0.2c-0.2,0.1-0.3,0-0.4,0c0,0,0,0-0.1,0c0,0.1,0,0.2,0,0.3c0.2,0,0.1-0.1,0.2-0.2
		c0,0,0,0,0.1,0c0,0,0,0,0,0.1c-0.1,0.1-0.1,0.1-0.1,0.3c0.1,0.1,0.2,0.2,0.2,0.3c-0.4,0-0.4,0.1-0.8,0.1c0,0.2,0,0.2-0.1,0.3
		l0.1,0.1c-0.1,0.1-0.2,0.3-0.4,0.4c0,0,0,0,0.1,0.1c0.2,0,0.4,0,0.5,0.2c-0.1,0.1-0.3,0.3-0.5,0.4c0,0,0,0,0,0.1
		c0.1,0,0.1,0.1,0.2,0.1c0,0.1,0,0.2-0.1,0.3c-0.2,0-0.3,0-0.3,0.1c0.1,0,0.2,0.1,0.2,0.1s0,0,0,0.1h-0.1c-0.1,0-0.2,0-0.3,0
		c0,0.2-0.1,0.2-0.1,0.3s0,0.3,0.1,0.4c-0.2,0-0.2,0-0.2,0.1c-0.1,0.1-0.2,0.1-0.2,0.4c0.2,0.1,0.2,0.2,0.1,0.3
		c-0.1,0-0.3,0-0.3,0.1s0,0.2,0.1,0.2c0.3,0.1,0.6-0.1,0.8,0.2c-0.1,0.1-0.1,0.4-0.2,0.5c-0.2-0.1-0.3-0.1-0.5-0.2
		c0.1,0,0.1,0,0.2-0.1c0,0,0-0.1-0.1-0.1c-0.2,0.1-0.3,0-0.6,0c-0.1,0.4-0.3,0.3-0.2,0.7c0.1,0,0.2,0.1,0.2,0.1
		c0.2,0,0.5-0.1,0.7-0.1l0,0c-0.2,0.2-0.3,0.3-0.5,0.4c-0.2,0-0.4-0.1-0.6-0.1V62h0.1v-0.1c-0.3,0.2-0.5,0.6-0.7,0.8
		c0,0.1,0,0.1,0.1,0.2c0.2,0,0.4,0,0.6,0.1c0.1,0.2,0.2,0.3,0.1,0.4c-0.1,0-0.1,0.1-0.2,0.1c-0.2,0-0.4-0.1-0.6-0.1l0,0
		c0.1,0,0.4-0.1,0.5-0.2c-0.2-0.2-0.6-0.3-0.8-0.2c0,0.2,0.1,0.2,0.1,0.3s-0.1,0.1-0.1,0.2c-0.1,0-0.2-0.1-0.3-0.1
		c0,0.1,0,0.1-0.2,0.1c0,0.2,0,0.3-0.1,0.4c0,0,0,0-0.1,0c-0.2,0-0.2-0.1-0.3-0.2l-0.1,0.1c0.2,0.5,0.5,0.6,1.1,0.7c0,0,0,0,0,0.1
		c-0.4,0-0.6,0-0.9-0.3c-0.2,0.1-0.2,0.1-0.5,0c-0.1,0.1-0.2,0.1-0.3,0.2c0.1,0.1,0.2,0.1,0.3,0.1v0.1l0,0c-0.1,0-0.2,0-0.4,0
		c0,0.1,0.1,0.2,0.1,0.3l0,0c-0.3,0-0.5,0.1-0.7,0c0,0,0,0,0,0.1c0,0,0,0,0,0.1c0.1,0,0.1,0,0.2,0.1c0,0.1,0,0.2,0,0.3
		c0.3,0.1,0.4,0.1,0.7,0.1c0,0.1,0.1,0.3,0.1,0.4c-0.1,0-0.2,0-0.2,0.1c-0.3-0.1-0.5-0.4-0.8-0.6c-0.1,0-0.2,0.1-0.3,0.1
		c0,0,0.1,0,0.1-0.1c-0.1,0-0.2-0.1-0.3,0c0,0,0,0-0.1,0l0,0c0.1,0.2,0.1,0.1,0.3,0.2c0,0.1,0,0.1-0.1,0.1c-0.4,0.5-1.4,0.7-1.4,1.2
		c-0.1,0-0.2-0.1-0.4-0.1c-0.1,0-0.1,0.1-0.2,0.1c0,0.1,0,0.2,0,0.3c-0.1,0-0.1,0-0.2-0.1c-0.5,0.2-0.9,0.6-1.3,0.9
		c-0.1,0.1-0.1,0.2-0.2,0.3c-0.1,0-0.3,0-0.4,0c-0.1,0.1-0.3,0.3-0.4,0.4c-0.1,0-0.3,0-0.4,0c-0.3,0-0.4,0.4-0.6,0.5
		s-0.4,0.1-0.7,0.1c-0.3,0.1-0.6,0.3-0.8,0.5c-0.3-0.1-0.4-0.1-0.6,0l-0.1,0.3c-0.4-0.1-0.9,0.3-1.2,0.3c-1,0.3-2.4,0.8-3.5,1
		c0,0.1,0,0.1,0,0.2c-0.3,0-0.3,0.1-0.5,0.1c-0.3,0.1-1.1-0.2-1.5-0.2c-0.2,0.1-0.3,0.1-0.5,0.2c-0.1-0.1-0.3-0.1-0.4-0.2
		c-0.2,0-0.2,0.2-0.4,0.2c-0.3,0-0.5,0-0.8-0.1c-0.1,0-0.1,0.1-0.2,0.1l0,0c-0.2,0-0.3-0.1-0.5-0.1s-0.5,0.1-0.7,0.1
		s-0.2-0.2-0.4-0.2c0,0.1,0,0.1,0,0.2c-0.5-0.1-1.8-0.3-2-0.1c-0.6-0.4-1.4-0.3-2-0.5c-0.3,0-0.5,0-0.8,0c-0.2-0.1-0.5-0.3-0.8-0.3
		c0,0,0,0.1-0.1,0.1c-0.5-0.2-1.2-0.5-1.8-0.7c-0.2,0-0.5,0-0.7,0c-0.3-0.2-0.6-0.3-0.9-0.5c-0.1,0-0.3,0-0.4,0
		c-0.3-0.1-0.9-0.6-1.2-0.8c-0.4-0.1-0.7-0.1-1.1-0.2c-0.1-0.1-0.1-0.2-0.2-0.3c-0.4-0.3-0.8-0.5-1.2-0.8c-0.3-0.2-0.5-0.5-0.8-0.7
		c-0.1,0-0.3,0-0.4-0.1c-0.1-0.3-0.5-0.6-0.8-0.8c0-0.1,0-0.1,0-0.2c-0.8-0.1-2.5-2.3-2.9-2.9c-0.1-0.2-0.5-0.1-0.7-0.4
		c0.2-0.6-1.5-2-1.5-2.8c0.1-0.1,0.1-0.1,0.1-0.2c-0.1-0.1-0.2-0.1-0.4-0.1c-0.2-0.7-1.2-2-0.9-2.7c-0.6-0.2-0.4-1.4-0.6-1.8
		c0-0.2-0.2-0.3-0.3-0.5c0-0.4-0.1-0.7-0.1-1.1c-0.1-0.3-0.2-0.7-0.2-1c0-0.2,0.1-0.3,0.1-0.5c-0.3-1-0.2-2.4,0.1-3.5
		c0.1-0.3-0.2-0.4-0.2-0.6c0.1-0.1,0.2-0.2,0.2-0.3c0-0.2-0.1-0.3-0.1-0.5c0.1-0.2,0.2-0.2,0.1-0.5c-0.1,0-0.2-0.1-0.3-0.2v-0.1
		c0,0,0.1,0,0.1-0.1c0.1,0.1,0,0.1,0.2,0.1c0.1-0.6,0.3-1,0.2-1.6c0.4-0.5,1.2-2,1.1-2.6c0.2-0.1,0.1-0.2,0.1-0.4
		c0.5-0.2,1.1-1.2,0.9-1.8c0,0,0,0,0.1,0s0.1,0,0.2,0c0.1-0.4,0.5-0.6,0.7-0.9c0.1-0.3,0.3-0.6,0.4-0.9c0.3-0.5,1-0.8,1.2-1.3
		c0-0.1,0-0.2,0-0.3c0.2,0,0.2-0.1,0.3-0.2c0.1,0,0.3,0.1,0.4,0.1c0-0.3,0.2-0.2,0.3-0.4c0.2-0.3,0.1-0.6,0.1-0.9h0.1
		c0.1,0.1,0.1,0.1,0.2,0.2c0-0.3,0.5-0.2,0.7-0.4c0-0.1,0.1-0.2,0.1-0.2c0-0.1-0.1-0.1-0.1-0.2c0.2-0.2,0.2-0.6,0.5-0.6
		c-0.1-0.2,0-0.2,0-0.4c0.2,0,0.3-0.1,0.3-0.3h-0.1c0,0,0,0,0-0.1c0.2,0.1,0.4,0.1,0.7,0.2c0.1,0,0.2-0.1,0.3-0.1c0,0,0,0,0-0.1
		c0,0-0.1,0-0.1-0.1l0,0c0.3,0,0.3-0.1,0.5-0.3c0.1,0,0.1,0,0.2,0c0-0.1,0.1-0.2,0.1-0.3c-0.1-0.1-0.1-0.1-0.2-0.3V32
		c0.1,0,0.2,0,0.3,0c0-0.1,0-0.1,0-0.2c0.3,0.1,0.7,0.5,0.9,0.4c0-0.1-0.1-0.2-0.1-0.3c0.3,0,0.5,0,0.9,0v-0.1l-0.1-0.1
		c0.2-0.2,0.4-0.2,0.6-0.3c0-0.1,0-0.3,0.1-0.3l0.1,0.1H41c0-0.1-0.1-0.1-0.1-0.2c0.2-0.1,0.3-0.2,0.4-0.3l0,0c0,0,0,0,0,0.1
		s0,0.1,0.1,0.2c-0.2,0.4-0.4,0.9-0.5,1.4c-0.1,0.3-0.2,0.5-0.2,0.8c0,0.2-0.2,0.8,0.2,0.8l0,0l0,0H41c0.3-0.5,0.8-1,1.3-1.5
		c-0.1,0.1-0.3,0.3-0.4,0.3c0.4-0.4,1-0.8,1.3-1s0.2-0.1,0,0c1.3-0.9,2.8-1.5,4.1-2.6c0.2-0.1,0.6-0.5,0.7-0.7c0,0.2,0,0.4,0.1,0.6
		c0,0.1,0.2,0.2,0.4,0.2c0.3-0.2,0.1-0.2,0.2-0.3c0.2-0.8,0.7-1.5,1.2-2.1c0.4-0.4,0.6-0.6,0.7-0.7l0,0c0,0.1,0.2,0.3,0.4,0.6
		c0.2,0.1,0.1,0,0.2,0c0.5-0.7,0.6-0.9,1.1-1.2c-0.2,0.1,0.3-0.1,0.3-0.1c0.6-0.3,1.1-0.4,1.4-0.6c0.2-0.1,0.4-0.2,0.5-0.3
		c-0.1,0,0.1,0.3,0,0.5l0,0v0.1c0,0,0,0,0-0.1c-0.1,0.6-0.6,1.2-0.8,1.8h0.1V27c0,0,0,0,0.1,0l0,0l0,0H54c0.6,0,1.1-0.5,1.4-0.8
		c0.4-0.3,0.7-0.7,0.9-1l0,0c0.1,0.3,0.2,0.8,0.7,0.4c0.1-0.1,0.1-0.1,0.2-0.2c0,0.1,0.1,0.2,0.2,0.3c0.2,0.1,0.4,0,0.4-0.1
		c0.3-0.3,0.7-1,0.6-1c1.1,0.3,1.9-0.8,1.7-1.8c-0.4-0.6-1-0.2-1.4-0.2c-0.2,0.1-0.5,0.1-0.7,0.2c0.3-0.6,0.4-1.3,0.5-2l-0.1-0.1
		c-0.1,0-0.1,0-0.2,0.1c-0.2,0.7-0.8,1.3-1.3,1.8c-0.5-0.3-1.1-0.8-1.8-0.9c-0.9-0.3-1.8-0.3-2.7-0.2c-0.9,0.1-1.8,0.4-2.6,0.8
		c-0.4,0.2-0.8,0.5-1.1,0.8l0,0c0.2-0.7,0.5-1.3,1-1.7c0.7-0.4,1.6-1,2.2-1.1c1.7,0.1,3.5,0.4,5.3,0c0.9-0.2,1.7-0.6,2.4-1.2
		l0.1-0.1l0,0c0,0.2-0.1,0.4-0.2,0.6c-0.2,0.4-0.5,0.7-0.6,1.2c-0.1,0.1-0.1,0.2-0.1,0.4c0.4,0.3,0.3,0,0.4,0.1
		c0.2-0.1,0.4-0.2,0.6-0.3c0.4-0.2,0.7-0.5,1-0.9s0.5-0.8,0.7-1.2c0-0.1,0.1-0.4,0.2-0.5c-0.1,0-0.1,0.1-0.2,0.1
		c0-0.1,0-0.1,0.1-0.2c0.1,0,0.1,0,0.2,0c0.1,0,0.1,0,0.2,0l0,0c-0.1,0-0.2,0.1-0.2,0.1l0,0c0.2,0,0.5-0.1,0.7-0.2
		c0.8-0.4,1.1-0.8,1.3-1.3c0.2-0.4,0.4-1,0-1.8l0,0l0,0l0,0l0,0c0.3-0.2,0.5-0.6,0.7-0.8c0.4-0.6,0.9-1.2,0.8-2
		c0.1-0.8-0.4-1.5-1.1-1.9c-0.4-0.2-0.7-0.6-1.1-0.7C62.3,9.3,61.7,9,61,8.8c-0.6-0.2-1.3-0.3-1.9-0.5l0,0c-0.8-0.2-1.6-0.6-2.4-0.8
		c-0.6-0.3-1.3-0.5-1.8-0.8l0,0c-0.2-0.1-0.5-0.2-0.7-0.3l0,0c-0.8-0.5-1.6-0.9-2.4-1.4c-0.7-0.5-1.4-1-2-1.6V3.3
		c-0.1-0.1-0.2-0.2-0.2-0.3l0,0c-0.2-0.3-0.5-0.6-0.5-0.9c-0.3-0.6-0.3-1.2,0-1.8c0,0,0-0.1,0.1-0.1c0-0.1,0.1-0.2,0.1-0.2
		c0,0.1-0.1,0.1-0.1,0.2l0,0C49,0.6,48.9,1.1,49,1.5l0,0c0.1,0.1,0,0.3,0.1,0.4l0,0V2l0,0c0.2,0.5,0.4,1,0.8,1.4l0,0
		c0.1,0.2,0.3,0.3,0.4,0.5l0,0c0.2,0.2,0.3,0.3,0.5,0.5l0,0l0.1,0.1l0,0c0.1,0.1,0.4,0.3,0.4,0.4l0,0c0.2,0.2,0.4,0.4,0.7,0.5l0,0
		c0.1,0,0.1,0.1,0.2,0.1l0,0c0.2,0.2,0.5,0.2,0.7,0.5H53c-0.2-0.2,0-0.2,0-0.1l0,0c0.3,0.3,0.8,0.3,1.1,0.6l0,0
		c0.2,0.1,0.3,0.2,0.6,0.3c0.5,0.3,1,0.4,1.5,0.7l0,0C56.6,7.7,57,7.8,57.4,8c0.5,0.1,0.9,0.3,1.4,0.5l0,0c0,0.1,0.2,0,0.3,0.1l0,0
		c0.2,0.1,0.4,0.2,0.7,0.2l0,0L60,8.9l0,0c0.9,0.3,1.8,0.6,2.7,1l0,0h0.1l0,0C62.9,10,63,10,63.1,10l0,0c0.1,0.1,0.2,0.1,0.3,0.1
		l0,0c0,0.1,0.1,0.2,0.1,0.2c0.5,0.2,1.1,0.6,1.3,1.1l0.1,0.1c0.1,0.2,0.2,0.4,0.2,0.5c0.1,0.1,0,0.1,0.1,0.2c0,0.1,0,0.3,0,0.5l0,0
		c0,0.2-0.1,0.3-0.1,0.4c-0.1,0.1-0.1,0.4-0.3,0.5c-0.1,0.2-0.2,0.4-0.3,0.6l0,0c-0.1,0-0.2,0.2-0.2,0.2c0,0.2-0.1,0.1-0.2,0.2l0,0
		c-0.1,0.1-0.2,0.2-0.2,0.3c0-0.1-0.1,0.1-0.1,0.1l-0.1,0.1c-0.2-0.3-0.9-0.9-1.1-0.8c-0.7,0-1.4,0.2-1.9,0.6
		c-0.6,0.3-0.8,1.1-1,1.5l0,0c-0.4,0.1-0.7,0.3-1.1,0.3c-0.7,0.2-1.5,0-2.2-0.1c-0.8-0.3-1.4-0.6-2.2-0.8c-0.4-0.1-0.8-0.5-1.2-0.6
		c-0.6-0.3-1.1-0.8-1.6-1.1c-0.5-0.4-1-0.7-1.5-1.1l0,0c-0.6-0.5-1.3-1-2-1.3c-0.5-0.4-1.2-0.6-1.7-0.9l0,0
		c-0.2-0.1-0.5-0.2-0.8-0.3l0,0c-0.9-0.4-1.8-0.6-2.8-0.7c-0.9-0.1-1.8-0.2-2.7-0.1h-0.1c-0.1,0-0.3,0-0.5,0l0,0
		c-0.4,0-0.8,0.1-1.1,0.1c-0.7,0.1-1.4,0.1-2,0.3h-0.1c-0.1,0.1-0.2,0.1-0.3,0.1c-0.2,0-0.4,0.1-0.6,0.1l0,0c-0.1,0,0,0-0.1,0l0,0
		c-0.1,0.1-0.2,0-0.4,0.1l0,0c0.4-0.1,0.8-0.3,1.3-0.3l0,0c0.5-0.1,1-0.2,1.5-0.2l0,0c0.1,0,0.3,0,0.5-0.1l0,0h0.1l0,0
		c0.6-0.1,1.2,0,1.8-0.1l0,0c0.2,0,0.5,0,0.7,0l0,0c0.2,0,0.5,0.1,0.7,0.1l0,0h0.1l0,0c0.2,0,0.5,0,0.6,0.1l0,0
		c0.3,0,0.6,0.2,0.9,0.1l0,0c0.1,0,0.2,0,0.3,0l0,0c0.3,0.1,0.6,0,0.8,0.2h0.1c0,0.1,0.1,0.1,0.2,0.1l0,0c0.4,0.2,0.8,0.2,1.2,0.4
		l0,0c0.2,0.1,0.4,0.1,0.6,0.2c0.5,0.2,1,0.4,1.5,0.7l0,0c0.3,0.2,0.7,0.4,1,0.7c0.4,0.2,0.8,0.5,1.1,0.8l0,0c0,0.1,0.2,0.1,0.3,0.2
		l0,0c0.2,0.1,0.3,0.3,0.5,0.4l0,0l0.1,0.1l0,0c0.7,0.5,1.4,1.1,2.2,1.6c0,0,0,0,0-0.1l0.1,0.1l0,0c0.1,0.1,0.2,0.1,0.3,0.2l0,0
		c0.1,0.1,0.2,0.1,0.3,0.1l0,0c0,0.1,0.1,0.2,0.1,0.2c0.6,0.2,1.2,0.5,1.7,0.8c0,0,0.1,0,0.2,0c0.2,0.1,0.4,0.2,0.5,0.2s0.2,0,0.2,0
		c0.1,0.1,0.3,0.1,0.5,0.2l0,0c0.2,0.1,0.4,0.1,0.5,0.1c0.1,0.1,0.4,0,0.6,0.1c0.2,0,0.5,0,0.7,0l0,0c0.1,0.1,0.3,0,0.3,0
		c0.1-0.1,0.2,0,0.3-0.1l0,0c0.1,0,0.3-0.1,0.3-0.1c0,0.1,0.1,0,0.1,0c-0.9,0.7-2,1.3-3.2,1.6c0.4-0.1,0.6-0.1,0.1,0l-0.5,0.1h-0.1
		c-0.3,0-0.6,0-0.5,0c-0.8,0.1-1.5-0.2-2.5-0.3c-0.6,0.6-1.3,1.1-2,1.5s-1.5,0.4-2.4,0.2c-0.3-0.1-0.7-0.2-1.1-0.2
		c1.3-0.9,3-0.3,4.5-1c0.7-0.3,1.6-1.4,0.8-2.2c-0.9-0.3-1.7-0.1-2.6,0c-1.4,0.4-3.3,1-4.9,1.4c-0.1,0-0.3,0-0.4,0v0.1h-0.1
		c0.2,0.4,0.6,0.4,0.9,0.5c-0.6,0.1-1.2-0.1-1.8-0.1c-1.2-0.1-2.4-0.3-3.6-0.5c-2.4-0.4-4.9-0.7-7.5-0.5c0,0,0.7-0.1,2.8,0.1
		c0.8,0,1.7,0.1,2.6,0.3c-0.9-1-1.4-1.1-2-1.1c-0.1,0-0.2,0-0.3,0s-0.2,0-0.4,0c-0.1,0-0.3,0-0.4,0c-0.1,0-0.2,0-0.3,0s-0.3,0-0.4,0
		c-0.1,0-0.2,0-0.3,0c-0.2,0-0.3,0-0.5,0c-0.1,0-0.2,0-0.3,0c-0.3,0-0.5,0-0.8,0c-0.1,0-0.2,0-0.4,0c0,0,0,0-0.1,0s-0.2,0-0.3,0
		c0,0,0,0-0.1,0s-0.2,0-0.3,0c0,0,0,0-0.1,0s-0.2,0-0.2,0h-0.1c-0.1,0-0.1,0-0.2,0h-0.1h-0.1c-0.1,0-0.1,0-0.1,0h-0.1H30
		c0,0,0,0-0.1,0s-0.1,0-0.2,0l0,0c-0.1,0-0.1,0-0.2,0.1l0,0l0,0h-0.1c-0.3,0.1-0.6,0.2-0.9,0.3c-0.4,0.2,0.3-0.1,0.3-0.1
		c-0.1,0-0.2,0.1-0.3,0.1l0,0c-0.1,0-0.2,0.1-0.3,0.1c0,0-0.5,0.2-0.7,0.3c0.1,0,0.3-0.1,0.3-0.1c-0.3,0.1-0.7,0.3-1.2,0.5
		c0.3-0.1,0,0-0.1,0s-0.7,0.2-1.4,0.4c-0.5,0.2-1.4,0.5-2.3,0.7c0.4-0.1,0.8-0.2,1.4-0.3c-0.5,0.2-0.6,0.2-1.2,0.3
		c-0.3,0-0.5,0.1-1.2,0.2l0,0c-0.7,0.1-0.7,0.1-1.5,0.2c-1.5,0.2-3,0.4-4.1,0.5l0,0c-0.2,0-0.4,0-0.6,0h-0.4h-0.1l0,0h0.1h-0.1l0,0
		H15l0,0l0,0l0,0l0,0l0,0l0,0l0,0l0,0l0,0l0,0l0,0l0,0l0,0h0.1l0,0l0,0l0,0c0.5,0.1,1.1,0.3,1.5,0.3c1.4,0.3,3.1,0.2,3.9,0.2
		c2.5-0.2,4.7-0.9,7.2-1.6l-0.4,0.1c0.5-0.1,0.3-0.1,0.7-0.2c-0.5,0.2,0.6-0.2,0.9-0.2c1.1-0.4,2.6-0.7,3.6-0.8l0,0
		c1-0.1,2.3-0.3,3.6-0.2c0.1,0,0.4,0,0.8,0.1c0.7,0.1,1.1,0.2,2.1,0.5c0.3,0,0.6,0.2,0.9,0.3c0,0.1,0,0.1,0,0.2
		c-0.1,0-0.2-0.1-0.4-0.1c-0.7-0.1-1.5-0.1-2.2,0c-1.4,0.1-3,0.4-4.1,1.5c-0.1,0-0.1,0.1-0.1,0.2c-0.2,0.3-0.5,0.6-0.6,0.9L32.2,22
		c0.3,0.2,0.2,0,0.4,0c0.2-0.1,0.3-0.2,0.5-0.3c0.6-0.5,1.3-0.8,2.1-1c0.2-0.1,0.4,0,0.6,0c0,0.1-0.1,0.1-0.2,0.1c0,0.1,0,0.1,0,0.1
		c-0.6,0.2-1.2,0.3-1.7,0.7c0,0,0,0,0.1,0c0,0-0.1,0-0.1,0.1l0,0c-0.1,0-0.1,0-0.2,0.2c0,0,0,0,0.1-0.1c0,0,0,0.1,0,0.2
		c0.2,0.1,0.2,0,0.3,0.1c0.2,0,0.4,0,0.5,0s0.2,0,0.3,0l0,0c0,0.1-0.1,0.1-0.1,0.2c0.1,0,0.1,0,0.2,0c0,0.2,0,0.2,0,0.3
		c0,0,0,0-0.1,0c0,0,0,0-0.1,0l0,0l0,0c-0.6,0.3-0.8,0.4-1.4,0.6c-1.3,0.4-2,0.5-3.1,0.8c0.1,0,0,0-0.3,0.1c-0.1,0-0.3,0.1-0.5,0.2
		c-0.1,0-0.2,0.1-0.3,0.2c0,0.4,0.2,0.2,0.3,0.2c0.4,0,0.6,0.1,0.3,0c0.9,0.1,2,0,3-0.2c-0.1,0.2,0,0.3-0.1,0.6c0.1,0,0.1,0,0.2-0.1
		c0,0,0,0,0.1,0.1v0.1l0,0c-0.2,0-0.2,0-0.3,0c0,0.1,0,0.1,0,0.2c-0.1,0-0.1,0-0.2,0.1c0,0.1,0,0.2,0,0.3h-0.1c-0.1-0.1,0,0-0.2-0.1
		c0,0,0,0-0.1,0c0,0.3-0.1,0.7-0.3,0.9c-0.1-0.1-0.1-0.2-0.3-0.2c0,0.1,0,0.1,0,0.2l0,0c-0.1-0.1-0.3-0.2-0.5-0.2l0,0
		c0.1,0.1,0.1,0.2,0.1,0.4c-0.2-0.1-0.2-0.1-0.3,0.1c0.2,0.1,0.3,0.3,0.6,0.3c0,0,0,0,0,0.1c-0.1,0-0.1-0.1-0.2,0s-0.1,0.1-0.2,0.2
		c-0.2-0.1-0.4-0.2-0.6,0v0.1c-0.2-0.1-0.3-0.2-0.5-0.3c0,0.1,0,0.2-0.1,0.3h0.1c0,0.1,0,0.2-0.1,0.3c0,0,0,0-0.1,0
		c-0.3-0.1-0.6-0.1-0.9-0.2l0,0c0.1,0.1,0.1,0.3,0.3,0.4v0.1c-0.1,0-0.2,0-0.3,0.1c0,0.1,0.1,0.1,0.1,0.2c0,0,0,0,0,0.1
		c-0.2,0-0.3-0.1-0.4,0c0.1,0,0.1,0,0.1,0.1c-0.2-0.1-0.4-0.1-0.4,0.1c0.1,0,0.2,0,0.2,0.1c0,0,0,0,0,0.1l0,0c-0.2,0-0.2-0.1-0.3,0
		H28c0.1,0.2,0.1,0.2,0,0.4c0.1,0,0.2,0.1,0.3,0.1c0,0,0,0.1-0.1,0.1c-0.1-0.1-0.8-0.1-1,0v0.1c0.1,0,0.2,0,0.2,0.1c0,0,0,0,0,0.1
		c-0.1,0-0.1,0-0.1,0c0,0.3-0.2,0.4,0,0.6c-0.1,0-0.2,0-0.3,0c0,0.2-0.1,0.3-0.2,0.4c0-0.1-0.1-0.1-0.1-0.2c0,0,0,0-0.1,0
		c0,0.1,0,0.2-0.1,0.3c-0.1,0-0.2,0-0.4,0.1v0.1c0.1,0.1,0.2,0.1,0.3,0.2c-0.1,0.1-0.1,0.1-0.2,0.2c0.1,0.1,0.2,0.1,0.1,0.3
		c-0.2,0-0.2,0.1-0.3,0.2c0.1,0,0.2,0,0.3,0.2c0,0,0,0.1-0.1,0.1h-0.1c-0.1-0.1-0.1-0.1-0.3-0.1c0,0.1,0,0.1,0,0.2
		c-0.1,0-0.1-0.1-0.2-0.1c0,0,0,0-0.1,0c0,0.2,0.1,0.2,0,0.3l0,0l-0.1-0.1c-0.1,0.1-0.1,0.1-0.3,0c0,0,0,0-0.1,0
		c-0.1,0.4-0.2,0.3-0.3,0.6c0.1,0,0.1,0,0.2,0.1c-0.1,0.1-0.1,0.1,0,0.2c-0.1,0-0.1,0-0.2,0.1c0.1,0.1,0.1,0.1,0.1,0.3
		c-0.3,0-0.6,0.4-0.6,0.7c0.2,0,0.2,0.1,0.2,0.2c-0.1,0-0.1,0-0.2,0l-0.1-0.1c-0.1,0-0.3,0.1-0.4,0.1c0,0,0,0,0,0.1
		c0.1,0.1,0.2,0.1,0.4,0.2c0,0-0.1,0-0.1,0.1c-0.2-0.1-0.3-0.1-0.4-0.2c0,0.1-0.1,0.2-0.1,0.2c0.1,0.1,0.1,0.3,0.2,0.4
		c-0.1,0.1-0.1,0.1-0.1,0.3c0.2,0,0.2,0,0.3,0.1h-0.1l0.1,0.1h-0.1c-0.1-0.2-0.1-0.1-0.2-0.2c0,0-0.1,0-0.1,0.1
		c0.1,0.1,0,0.1,0.1,0.1v0.1c-0.1,0-0.1,0-0.2,0c0.1,0.1,0.1,0.2-0.1,0.3c-0.1,0-0.2,0-0.3,0l0,0l0.1,0.1c-0.1,0-0.1,0-0.1,0.1
		c0.1,0.1,0.1,0.1,0.3,0.2c-0.1,0.2-0.2,0.2-0.2,0.5c-0.1,0-0.1,0.1-0.2,0.1c0.1,0.2,0.1,0.2,0,0.4c0.1,0,0.1,0,0.2,0V38
		c-0.2,0-0.2,0.1-0.4,0.2c-0.1,0-0.1-0.1-0.2-0.1c-0.1,0.1,0,0.1-0.2,0.1c0,0.1,0.1,0.1,0.2,0.2c0,0,0,0,0,0.1
		c-0.2,0.1-0.3,0.3-0.2,0.5c-0.1,0-0.1,0.1-0.2,0.1c0.1,0.2,0.2,0.3,0.5,0.3c-0.1,0.2-0.4,0.4-0.5,0.6c0.1,0.1,0.1,0.2,0.1,0.3
		C22,40,22,39.9,21.9,39.8c0,0.1,0,0.1,0,0.2c0.5,0.3-0.1,0.8,0,1.1c-0.1,0-0.2,0-0.2,0.1c0.1,0.2,0.1,0.2,0,0.5h0.1c0,0,0,0,0.1,0
		l0,0c-0.1,0.1-0.1,0.1-0.2,0.1c0.1,0.1,0.1,0.1,0.1,0.3c-0.1,0.1-0.2,0-0.4,0.1c0,0.1,0,0.1-0.1,0.2c0.1,0.1,0,0.1,0.2,0.1
		c0.2,0.1,0.3,0.2,0.5,0.3c0,0.1-0.1,0.2-0.1,0.2c-0.2,0-0.3,0-0.4,0.1c0.1,0.2,0.1,0.3,0.2,0.6c-0.1,0.1-0.2,0-0.3,0.2
		c0.1,0.2,0.2,0.2,0.2,0.3c0,0,0,0.1-0.1,0.1c0.2,0,0.5,0.2,0.4,0.5l0,0c-0.1-0.1-0.1-0.1-0.2,0c0,0,0,0-0.1,0c0,0.1,0,0.2,0,0.3
		c-0.3,0-0.6-0.1-0.8-0.1v0.1l0,0c0.2,0.1,0,0.1,0.1,0.3s0.4,0.2,0.5,0.3c0,0.1,0,0.2-0.1,0.3c-0.1-0.1-0.1-0.1-0.2-0.1
		c0,0,0,0,0,0.1c-0.1,0.1,0.1,0.3,0.2,0.4c-0.1,0-0.2-0.1-0.4-0.1l0,0v0.1c0.1,0,0.1,0.1,0.1,0.1h0.1c0.1,0,0.1-0.1,0.2-0.1h0.1v0.1
		c0,0,0,0.1-0.1,0.1h-0.1c0,0.2,0,0.2,0,0.3c0.1,0,0.1,0,0.2,0.1c-0.1,0,0,0,0,0.1c0.1,0,0.2,0.1,0.2,0.1c0,0.1,0,0.2-0.1,0.2
		c-0.4-0.1-0.7-0.1-1-0.1c-0.1,0.2-0.3,0.2-0.4,0.2c0.1,0.1,0.2,0.1,0.3,0.3c-0.1,0.1-0.1,0-0.2,0.1l0,0c0.2,0,0.2,0.1,0.3,0.2
		c-0.1,0.1-0.2,0.2-0.3,0.3c0.2,0,0.2,0.1,0.3,0.2v0.1c-0.1,0-0.1,0-0.2,0c0.1,0.1,0.3,0.2,0.6,0.1v-0.1c0.2,0,0.1,0,0.3,0v0.1
		c-0.1,0.1-0.1,0.2-0.2,0.3c-0.2,0-0.3-0.1-0.5-0.1c0,0.2,0,0.2-0.2,0.2c0,0.1,0,0.1,0,0.2c0.1,0.1,0.1,0.2,0.2,0.3h-0.1
		c0.1,0.1,0.1,0.2,0.3,0.2V50c-0.1,0-0.2-0.1-0.4-0.1V50h0.1c0,0.1,0.1,0.1,0.1,0.2c-0.1,0-0.3,0.5-0.4,0.7c0.1,0.2,0.2,0.3,0.3,0.5
		c0.1,0,0.1,0,0.2,0c0,0.2,0.1,0.3,0.2,0.4c0.1,0,0.1-0.1,0.2-0.1l0.1,0.1c0,0,0,0.1-0.1,0.1s-0.1,0-0.2,0c0,0.2,0.1,0.2,0.2,0.4
		h-0.1c0-0.1-0.1-0.2-0.2-0.2c0,0.3-0.2,0.5-0.4,0.8c0.2,0.1,0.3,0.1,0.5,0.2c0,0.1,0.1,0.2,0.2,0.3c0,0,0,0,0,0.1
		c-0.1,0-0.2,0.1-0.3,0.1v0.1c0.3,0.1,0.2,0.3,0.3,0.6c0.1,0,0.2,0,0.3,0.1v0.1c0,0,0,0-0.1,0s-0.2-0.1-0.3,0.1c0.1,0.2,0,0.2,0,0.4
		l0.1,0.1c0,0,0,0,0,0.1l0,0c-0.1,0-0.1,0-0.2,0c0,0.1,0,0.1,0,0.2c-0.1,0-0.1,0-0.1,0.1c0.1,0,0.3,0,0.4,0.1c0,0.1,0.1,0.1,0.1,0.2
		c-0.1,0.1-0.1,0.1-0.1,0.3c0.1,0.1,0.1,0.2,0.2,0.3s0.5,0.1,0.7,0.1v0.1c-0.2,0-0.4,0.1-0.6,0.1c-0.1,0.2,0,0.3,0,0.5
		c0.2,0,0.3,0.1,0.3,0.3c0.2,0,0.3,0,0.5-0.1c0.1,0.1,0.4,0.3,0.4,0.5c-0.1,0-0.1-0.1-0.2-0.1v0.1c0.1,0.1,0.1,0.3,0.2,0.4
		c-0.1,0-0.1,0-0.2,0.1c0,0.1,0,0.1,0,0.2c0.1,0.1,0.1,0.1,0.2,0.2c0,0.1-0.1,0.1-0.1,0.2c-0.1,0-0.2,0-0.3,0c0,0.2,0,0.2,0.1,0.2
		s0.3,0,0.4,0c0,0.1,0,0.1,0,0.2c-0.1,0-0.1,0-0.2,0.1c0.2,0,0.4,0.2,0.6,0.4c-0.1,0.2-0.3,0.2-0.5,0.3l0,0c0.2,0,0.1,0.1,0.2,0.1
		c0.2,0.1,0.5,0,0.6,0.1s0.2,0.2,0.2,0.3c0.2,0,0.1-0.1,0.2,0c0.1,0,0.1,0,0.2,0.1c-0.3,0.1-0.4,0.5-0.8,0.5c0,0,0,0,0,0.1
		c0.1,0,0.2,0.1,0.3,0.1v0.1c-0.2,0-0.3-0.1-0.5,0.1l0,0c0.2,0.1,0.3,0.2,0.4,0.3c-0.4,0.7,0.9,0.8,1.2,0.9l0,0
		c-0.1,0.1-0.1,0-0.1,0.2c0.1,0,0.3,0,0.4,0c-0.2,0.3-0.3,0.5-0.3,0.8c-0.1,0-0.1,0-0.2,0l0,0c0,0.1,0,0.1,0.1,0.2h0.1
		c0-0.1,0-0.1,0-0.2l0,0c0.2,0.1,0.4,0.1,0.5,0.2c0,0.1,0,0.2,0,0.2c0.4,0.1,0.9,0.2,1.1,0c0.1,0,0.1,0.1,0.2,0.2c0,0-0.1,0-0.1,0.1
		c-0.1,0.1-0.2,0.1-0.3,0.2c0.1,0.1,0.1,0.2,0.1,0.2c-0.2,0-0.3,0.1-0.3,0.2c0.1,0.1,0.1,0.2,0.2,0.2s0.2-0.1,0.3,0v0.1
		c-0.1,0-0.1,0-0.1,0l0.1,0.1c0.1,0,0,0,0.1,0l0,0c0,0.1-0.1,0.2-0.1,0.2s0,0,0.1,0h0.1c0.1-0.1,0.2-0.1,0.2-0.2
		c-0.1-0.1-0.1-0.1-0.3-0.2v-0.1c0.1,0,0.1,0,0.2,0c0.1,0.2,0.3,0.4,0.4,0.6c-0.1,0-0.1,0.1-0.2,0.1v0.1h0.1l0,0
		c0-0.1,0-0.1,0.1-0.2l0,0c0.1,0,0.1,0.1,0.2,0.1c-0.1,0.1-0.1,0.1-0.2,0.2c0.1,0,0.1,0,0.1,0.1c-0.1,0.1-0.1,0.1-0.2,0.2h-0.1l0,0
		c0,0,0,0,0,0.1c0,0,0,0,0.1,0s0.1,0,0.2,0c0-0.1,0-0.1,0-0.2c0.1,0.1,0.2,0,0.3,0.1c0,0,0,0.1,0.1,0.1c-0.1,0-0.1,0.1-0.2,0.1
		c0,0,0,0.1,0.1,0.1s0.2-0.1,0.3,0c0,0.1-0.1,0.1-0.1,0.2c0,0,0,0,0.1,0c0,0,0.1,0,0.1-0.1c0,0,0,0,0,0.1v0.1l-0.1,0.1
		c0.1,0,0.1,0.1,0.2,0.1c0,0,0.1,0,0.1-0.1c0.1,0.1,0.2,0.2,0.3,0.3c0,0,0.1,0,0.1-0.1c0,0.2,0.1,0.2,0.2,0.3c0.2,0,0.3-0.1,0.5,0.1
		c0,0,0,0,0,0.1C29,68,29,68,29,68.2c0.1,0,0.1,0.1,0.2,0.1h-0.1c0,0,0,0,0,0.1c0.2,0,0.1,0,0.2,0.1c0,0.1-0.1,0.3,0,0.5
		c0.2,0,0.2,0.1,0.2,0.2c0.2,0,0.3,0,0.4,0c0.1,0.2,0.3,0.5,0.5,0.6c0.1,0,0.1,0,0.2-0.1h0.1c0,0.1,0,0.1,0,0.2c0.1,0,0.2,0,0.2,0
		V70c-0.1,0.1-0.1,0.1-0.2,0.2c0,0.1,0.1,0.1,0.1,0.2c0.2,0,0.5,0,0.4,0.3c0.3,0,0.5,0.4,0.8,0.5c0,0,0,0.1-0.1,0.1
		c0.2,0,0.4,0.1,0.6,0.1v-0.1c0.1,0,0.1-0.1,0.2-0.1c0.1,0,0.1,0,0.2,0.1c-0.1,0-0.2,0.1-0.2,0.2c0.1,0,0.1,0,0.2,0v0.1
		c-0.1,0.2-0.2,0.3,0,0.3l0,0l0,0c-0.1,0,0,0-0.1,0c0,0.1,0.1,0.1,0.1,0.2c-0.1,0-0.1,0-0.2,0c0,0.1,0.3,0.6,0.3,0.6
		c0.1,0.1,0.1,0.1,0.2,0.1v-0.1C33,73,33,73,32.9,72.9c0-0.1,0-0.1,0-0.2c-0.1,0-0.1,0-0.2,0c0-0.1,0-0.1,0-0.2c0.1,0,0.3,0,0.3,0.1
		c0.1,0.1,0.2,0.2,0.3,0.3c0.1-0.1,0.5-0.2,0.6-0.1c0.1,0.2,0.2,0.6,0.5,0.5c0-0.1,0-0.1,0.1-0.2l0,0c0.2,0.4,0.1,0.5,0.6,0.6
		c0,0.6,0.3,0.4,0.6,0.7c-0.1,0-0.1,0-0.2,0v0.1c0.1,0,0.1,0,0.2,0c0,0.1-0.1,0.2-0.1,0.2h0.1c0.2-0.1,0.3-0.1,0.5-0.2
		c0-0.1,0-0.3,0-0.4h0.1l0,0c0.1,0.4,0.7,0.7,1,0.9c0,0,0-0.1,0.1-0.1c0.2,0.1,0.5,0.2,0.5,0.5l0,0c0-0.1,0-0.2,0.1-0.2
		c0.1,0.1,0.1,0.1,0.1,0.3c0.1,0,0.5,0,0.7,0.1c0.2-0.1,0.2-0.2,0.4-0.2c0,0.1,0.2,0.2,0.3,0.2c0,0.2,0,0.3,0.1,0.4
		c0.2,0.1,0.5,0,0.7,0.1c0,0.2,0,0.2,0.1,0.3c0.3,0,0.3,0,0.6,0c0.1,0,0.1,0.1,0.2,0.1c-0.1,0.2-0.1,0.2,0,0.4
		c0.2,0.1,0.2,0.2,0.4,0.3c0.1,0,1.2,0.3,1.2,0.3c0-0.2,0.2-0.3,0.3-0.4c0.3,0.1,0.3,0,0.5,0.1v-0.1c0-0.1,0,0-0.1-0.1
		c0.1,0,0.1,0,0.2,0c0,0.2,0.1,0.4,0.1,0.6c0.4,0.1,0.5,0.3,0.8,0.6h0.1v-0.1L44.6,78c0,0,0-0.1,0.1-0.1c0.7,0,0.9,0.3,1.6,0.4
		c0.1-0.1,0.1-0.2,0.2-0.2c0.1,0.1,0.1,0.1,0.2,0.1c0,0.2,0,0.2,0.2,0.3c0.1-0.2,0.3-0.3,0.5-0.4c0.1,0.1,0,0.1,0.1,0.1
		c0-0.1,0.1-0.1,0.1-0.2l0,0c0,0.3,0.2,0.5,0.6,0.5c0,0,0,0,0-0.1c0.1-0.1,0.1-0.2,0.1-0.3l0,0h0.1c0,0.1,0,0.1,0,0.2
		c0.1,0.1,0,0,0.1,0.1c0.1,0,0.2-0.1,0.3-0.1c0.1,0.1,0.2,0.2,0.2,0.4c0.2,0,0.2,0.1,0.2-0.1c0.3,0,0.3-0.1,0.6-0.1
		c0.1,0.2,0.2,0.2,0.3,0.3c0.1-0.2,0.1-0.3,0.3-0.5c0.1,0,0.2,0,0.2,0.1c0,0,0,0,0,0.1c0.1-0.1,0.1-0.1,0.1-0.2c0.1,0,0.2,0,0.3,0.1
		l0.1-0.1c0,0,0.1,0,0.1,0.1c-0.1,0.1-0.1,0.1-0.1,0.2c0.1,0,0.2,0,0.3,0c0.1-0.2,1,0.2,1.3,0c0-0.2,0.1-0.2,0.2-0.3
		c0.3,0.1,0.3,0.1,0.5,0.2c0,0,0.1,0,0.1,0.1s0,0.1-0.1,0.2l0,0h0.1c0-0.1,0-0.1,0.1-0.2c0.1,0,0.1,0,0.2-0.1
		c0.1,0.1,0.4,0.3,0.6,0.2c0-0.1,0-0.1,0-0.2c0.5,0,0.1-0.4,0.9-0.4c0,0.1,0.1,0.1,0.1,0.2c0.1,0,0.3-0.1,0.4-0.1c0-0.1,0-0.1,0-0.2
		l0.1-0.1c0,0,0.1,0,0.1,0.1s0.1,0.1,0.1,0.2c0,0,0,0,0.1,0c0.1-0.1,0.2-0.2,0.2-0.4l-0.1-0.1c0,0,0.1,0,0.1-0.1
		c0.2,0,0.1,0.1,0.2,0.2c0,0,0,0,0.1,0c0-0.1-0.1-0.1-0.1-0.2c0.1,0,0,0,0.1,0c0.2,0.2,0.5,0.4,0.9,0.5c0.1-0.1,0.1-0.2,0.2-0.3
		c-0.1-0.1-0.2-0.2-0.2-0.2s0,0,0.1,0c0.3,0.2,0.6,0.3,1,0.2v-0.1c0-0.1-0.1-0.1-0.1-0.2c0,0,0-0.1,0.1-0.1s0.2-0.1,0.4-0.1
		c0-0.1,0-0.1-0.1-0.2c0.2,0,0.2,0.1,0.3,0.2c0.5,0.2,1.2-0.3,1.4-0.6c0.3,0.1,0.4,0.1,0.6,0.2c0.1-0.2,0.1-0.1,0.3-0.1
		c0.1-0.2,0-0.3-0.2-0.4c0.1,0,0.1-0.1,0.1-0.2c0.1,0,0.1,0,0.2,0c0-0.1,0-0.1,0-0.2c0.2,0,0.2,0.1,0.4,0.1c0.1-0.2,0.2-0.1,0.4-0.1
		c0.1,0.1,0.1,0.1,0.1,0.1c0-0.1,0-0.1,0.1-0.1c0,0.2,0,0.1,0.1,0.2h0.1v-0.1L62.8,76v-0.1c0.1,0,0.1,0,0.2,0c-0.1-0.1-0.1,0,0-0.1
		l0,0c0.1,0,0.1,0.1,0.2,0.1c0.1-0.1,0.1-0.1,0.2-0.1c0-0.1,0-0.1,0-0.2c0.3,0.1,0.4,0.1,0.7,0.1c0-0.1,0.1-0.1,0.1-0.2l-0.1-0.1
		c0.1-0.1,0.1-0.2,0.3-0.2c0-0.1,0-0.1,0-0.2c0.2,0,0.1,0,0.2-0.1c0.2,0.1,0.3,0.2,0.7,0.2V75c-0.1-0.1-0.3-0.2-0.2-0.4
		c0.1,0,0.1,0,0.2,0c0-0.1,0-0.1,0.1-0.2c0,0,0,0,0.1,0l0,0c-0.1,0.1-0.1,0.1,0,0.2c0.1-0.1,0.1,0,0.1-0.1l0,0
		c0.2,0.2,0.4,0.1,0.6,0.1c0,0,0,0,0-0.1l0,0c-0.1-0.1-0.2-0.1-0.2-0.3h0.1c0.1,0,0.1-0.1,0.2-0.1V74c0.1,0.1,0.1,0.3,0.4,0.3
		c0-0.1,0,0,0.1-0.1c0,0,0,0-0.1,0c0-0.1-0.2-0.2-0.3-0.2v-0.1h0.1c0,0.1,0,0.1,0.1,0.1s0.1,0,0.2-0.1c-0.1-0.2-0.2-0.3-0.3-0.5
		c0,0,0-0.1,0.1-0.1s0.1,0,0.2,0l0.1,0.1c0.1,0,0.1,0,0.2-0.1c0,0,0,0,0-0.1l0,0c-0.1,0-0.1,0-0.2,0l0,0c0-0.1,0-0.1,0-0.2l0,0
		c0.2,0.1,0.3,0.2,0.4,0.1c0-0.1,0-0.1,0.1-0.1c0.2,0.1,0.3,0,0.6,0c0,0,0-0.1-0.1-0.1c0.1-0.2,0.3-0.3,0.5-0.3c0,0.1,0,0,0.1,0.1
		c0-0.1-0.1-0.1-0.1-0.2c0.1-0.1,0.2-0.3,0.2-0.4c0.2,0,0.2,0.1,0.4,0c0-0.1-0.1-0.1-0.2-0.2v-0.1c0.1,0,0.2,0,0.3,0
		c0-0.1,0-0.2,0.1-0.2l0.1,0.1c0.2,0,0.3-0.1,0.4-0.2c0-0.1,0-0.1,0-0.2c0.2,0,0.6,0,0.7-0.1v-0.1c0.2,0,0.6,0.1,0.8-0.1
		c-0.1-0.1,0-0.1-0.1-0.3c-0.1-0.1-0.2,0-0.2-0.1c0.1,0,0.1,0,0.2-0.1L71,70.4c0.1,0,0.1,0,0.2,0c0-0.1-0.1-0.1-0.1-0.2l0,0
		c0.3,0,0.4,0.1,0.5,0.3c0.2-0.1,0.3-0.2,0.3-0.3c-0.1,0-0.1,0-0.2-0.1V70c0,0,0.1,0,0.1-0.1c0,0,0,0,0.1,0.1s0.1,0.1,0.1,0.2
		c0.2,0,0.1-0.1,0.2-0.2c-0.1-0.3-0.4-0.5-0.3-0.8c-0.2,0-0.2,0-0.3-0.1c0.2,0,0.3,0,0.4,0c0,0.1-0.1,0.1,0,0.2
		c0.2,0,0.3,0.1,0.4,0.2c0,0,0,0.1-0.1,0.1h0.1c0.1,0,0.1,0,0.2-0.1v-0.1c-0.1-0.1-0.2-0.3-0.3-0.4c0,0,0,0,0-0.1
		c0.2,0,0.7,0.3,0.9-0.1l-0.1-0.1c0.2-0.1,0.5-0.2,0.6-0.5c0.3,0.1,0.9,0,1-0.4c0-0.1,0-0.1-0.1-0.2c-0.1,0-0.2,0-0.3-0.1v-0.1l0,0
		c0.1,0,0.1,0,0.2,0c0,0,0,0,0-0.1c0.2,0,0.2,0.1,0.3,0.2c0,0,0,0,0.1,0c0.1-0.1,0.2-0.2,0.3-0.3c0-0.4-0.4-0.4-0.4-0.8l0,0
		c0,0,0,0,0.1,0c0,0.1,0.2,0.3,0.3,0.3c0.1,0,0,0,0.1,0c0-0.2,0-0.3,0.1-0.4c-0.2,0-0.2-0.1-0.3-0.3c0.2-0.1,0-0.2,0-0.4
		c0.2,0.1,0.5,0.2,0.7,0.4c0.2-0.2,0.5-0.2,0.9-0.2c0-0.1,0.1-0.2,0.1-0.2c-0.1,0-0.3,0-0.4-0.1v-0.1c0.2,0,0.3,0.1,0.4,0l0,0
		c0-0.1,0-0.1-0.1-0.1c-0.2,0-0.3-0.1-0.4-0.3l0,0c0,0,0,0,0.1,0c0.2,0.1,0.4,0.1,0.7,0.1l0,0c0-0.1-0.1-0.1-0.1-0.3
		c-0.1,0-0.3-0.1-0.4-0.1c0.1-0.1,0.1-0.1,0.1-0.3c0.3,0.1,0.5,0.2,0.8,0.1l0,0c-0.2-0.1-0.3-0.1-0.4-0.3l0,0
		c0.3,0.1,0.8,0.1,0.9-0.3v-0.1c-0.2,0-0.1-0.1-0.2-0.2c0.1-0.1,0.1-0.1,0-0.2c0.1,0,0.1-0.1,0.2-0.1s0.2,0.1,0.3,0.1
		c0.1-0.1,0.2-0.1,0.3-0.2c0-0.1,0-0.2,0-0.3h0.1c-0.1-0.1,0-0.2,0-0.4c-0.2,0-0.1,0-0.2-0.1c0,0,0,0,0.1,0s0.2,0,0.3,0
		c0.1,0.1,0,0.1,0.2,0.1c0,0,0,0,0-0.1C79,62.3,79,62.3,79,62.1c0.1,0,0.1,0,0.2-0.1c-0.1,0-0.1-0.1-0.2-0.1c0-0.1,0.1-0.1,0.1-0.2
		h0.1l0.2,0.2l0,0c0.1-0.2,0.2-0.6,0.4-0.8c0-0.1-0.1-0.2-0.1-0.2c0.1,0,0.1,0,0.2,0c-0.1-0.1-0.2-0.1-0.2-0.3
		c0.2,0,0.4-0.1,0.5-0.1l0,0c0,0,0-0.1-0.1-0.1s-0.1,0.1-0.2,0.1c-0.1-0.1-0.1-0.1-0.2-0.2c0.1-0.2,0.4-0.7,0.5-0.7s0.2,0.1,0.4,0.1
		c0-0.2,0.1-0.1,0.2-0.3c-0.2,0-0.1,0-0.1-0.1c0.1,0,0.1,0,0.2,0c-0.1-0.3-0.4-0.4-0.4-0.7c0.1,0,0.1,0,0.2,0v-0.1
		c0-0.1-0.1-0.1-0.1-0.2v-0.1c0.1,0,0.3-0.1,0.4-0.1l0.1,0.1c0.1,0,0.1-0.1,0.2-0.1l0,0C81.1,58,81.2,58,81,57.9
		c0-0.2,0-0.3,0.1-0.5c0.1,0,0.2-0.1,0.3-0.1c-0.1,0-0.1,0-0.2-0.1c0.1-0.1,0.1-0.1,0.2-0.2l-0.1-0.1C81.4,56.8,81.3,56.8,81.4,56.6
		c0.2,0,0.3,0,0.4-0.1c-0.1-0.1-0.1-0.2-0.2-0.4C81.3,56.7,81.3,56.6,81.4,56.6z M80.7,55C80.7,55,80.8,55.1,80.7,55
		C80.7,55.1,80.7,55,80.7,55L80.7,55z M80.2,51.7L80.2,51.7L80.2,51.7z M80.6,51.6c-0.1,0-0.1-0.1-0.2-0.1c0.1-0.1,0-0.1,0.1-0.1
		C80.6,51.5,80.7,51.5,80.6,51.6C80.7,51.6,80.7,51.6,80.6,51.6z M77.9,52.2C77.9,52.2,77.8,52.3,77.9,52.2
		C77.8,52.2,77.8,52.3,77.9,52.2z M77.6,52.4L77.6,52.4L77.6,52.4L77.6,52.4C77.7,52.5,77.7,52.5,77.6,52.4
		C77.6,52.5,77.6,52.5,77.6,52.4L77.6,52.4z M77.3,52.4c0.1,0,0.1,0,0.2,0v0.1C77.4,52.5,77.4,52.5,77.3,52.4L77.3,52.4z M77.3,53.8
		C77.4,53.8,77.4,53.8,77.3,53.8C77.4,53.8,77.4,53.8,77.3,53.8C77.3,53.8,77.4,53.8,77.3,53.8z M77.4,53.6L77.4,53.6
		c0.1-0.1,0-0.2,0.1-0.2c0,0.1,0.1,0.1,0.1,0.2H77.4C77.4,53.6,77.4,53.6,77.4,53.6z M58.1,24.6v-0.1l0,0v-0.1h0.1
		C58.2,24.5,58.2,24.6,58.1,24.6L58.1,24.6z M57.2,25.4L57.2,25.4c0,0,0-0.1-0.1-0.1l0,0C57.1,25.3,57.1,25.4,57.2,25.4z M57.1,25.1
		L57.1,25.1L57.1,25.1L57.1,25.1z M57.1,25.1L57.1,25.1L57.1,25.1L57.1,25.1L57.1,25.1L57.1,25.1z M56.3,24.9L56.3,24.9
		C56.3,24.9,56.2,24.9,56.3,24.9C56.2,24.9,56.2,24.9,56.3,24.9z M54.3,24.6L54.3,24.6C54.4,24.6,54.4,24.6,54.3,24.6
		C54.4,24.6,54.3,24.6,54.3,24.6z M53.3,21.5c0.4-0.1,1.5,0.2,1.8,0.3c0.2,0.1,0.4,0.1,0.5,0.2l0,0c-0.3-0.2-0.7-0.3-1.1-0.4l0,0
		c-0.1,0-0.2,0-0.2,0s0,0-0.1,0s-0.2,0-0.2,0l0,0C53.7,21.5,53.6,21.5,53.3,21.5C53.4,21.5,53.4,21.5,53.3,21.5h0.4
		C53.6,21.5,53.1,21.5,53.3,21.5z M49.7,22.4L49.7,22.4c-0.1,0-0.1,0.1-0.1,0.1C49.6,22.5,49.6,22.5,49.7,22.4z M59,21.1L59,21.1
		c0,0,0.1,0,0.1-0.1l0,0C59,21.1,59,21.1,59,21.1z M63.4,14.9L63.4,14.9L63.4,14.9c0,0,0-0.1-0.1-0.1l0,0
		C63.4,14.7,63.4,14.8,63.4,14.9z M59.6,16.1C59.6,16.1,59.7,16.1,59.6,16.1L59.6,16.1L59.6,16.1z M59.7,18.7L59.7,18.7
		C59.7,18.8,59.7,18.8,59.7,18.7C59.7,18.7,59.6,18.7,59.7,18.7C59.6,18.7,59.6,18.7,59.7,18.7z M56.5,20.2L56.5,20.2
		C56.5,20.2,56.4,20.2,56.5,20.2c-0.1,0-0.2,0-0.3,0C56.3,20.3,56.4,20.2,56.5,20.2z M55.4,18c0.1,0,0.2,0,0.5,0h-0.1l0,0
		C55.6,18,55.5,18,55.4,18C55.3,18,55.3,18,55.4,18z M54.3,18L54.3,18c-0.3,0-0.6-0.1-1-0.1C53.7,18,54,18,54.3,18z M52.5,20.2
		L52.5,20.2c-0.3,0-0.5,0-0.6-0.1C52.1,20.2,52.3,20.2,52.5,20.2L52.5,20.2z M52.4,18L52.4,18L52.4,18L52.4,18
		c-0.1,0.1-0.1,0.1-0.2,0.2l0,0l-0.1,0.1c0,0,0,0-0.1,0c0,0-0.1,0.1-0.2,0.1c0,0,0,0-0.1,0s-0.1,0.1-0.2,0.1l0,0
		C51.8,18.3,52.1,18.1,52.4,18z M51.4,20.2L51.4,20.2c0,0,0.1,0,0.1-0.1l0,0c0,0,0.1,0,0.1-0.1h0.1C51.7,20.1,51.6,20.2,51.4,20.2
		C51.4,20.2,51.3,20.3,51.4,20.2C51.3,20.3,51.4,20.2,51.4,20.2z M47.8,28.4L47.8,28.4L47.8,28.4L47.8,28.4z M48.2,23.9L48.2,23.9
		L48.2,23.9L48.2,23.9z M47.7,19.3c0.6,0.2,1.2,0.4,1.9,0.3c0.2,0,0.5-0.1,0.7-0.2c-0.1,0-0.2,0.1-0.2,0.1l0,0
		c-0.1,0-0.2,0.1-0.2,0.1c-0.1,0-0.1,0-0.2,0l0,0c-0.1,0-0.1,0-0.2,0l0,0c-0.1,0-0.1,0-0.2,0l0,0c-0.1,0-0.1,0-0.2,0l0,0
		c-0.1,0-0.1,0-0.2,0l0,0h-0.1c0,0,0,0-0.1,0h-0.1h-0.1l0,0C48.1,19.4,47.9,19.3,47.7,19.3C47.7,19.3,47.7,19.3,47.7,19.3
		S47.6,19.3,47.7,19.3z M27.4,18.2L27.4,18.2c0.2-0.1,0.3-0.1,0.3-0.1C27.7,18.1,27.6,18.2,27.4,18.2z M40.8,19.6
		c-0.2,0-0.3-0.1-0.5-0.1v-0.1C40.6,19.4,40.7,19.5,40.8,19.6C40.9,19.6,40.9,19.6,40.8,19.6z M41.1,19.7L41.1,19.7L41.1,19.7
		L41.1,19.7z M46.9,19.3L46.9,19.3c0.1,0,0.1,0,0.2,0C47,19.2,46.9,19.2,46.9,19.3z M51.8,15.9c0.1,0,0.3,0,0.4,0.1l0,0
		C52.1,15.9,52,15.9,51.8,15.9C51.9,15.9,51.9,15.9,51.8,15.9c0,0-0.1,0-0.2,0C51.7,15.9,51.8,15.9,51.8,15.9z M49.9,16L49.9,16
		c0.2,0,0.2,0,0.3-0.1c0.1,0,0.2,0,0.2,0c0.1,0,0.1,0,0.2,0l0,0l0,0c0.1,0,0.2,0,0.3,0l0,0c-0.1,0-0.2,0-0.4,0c-0.1,0-0.2,0-0.3,0
		c0,0,0,0-0.1,0l0,0C50.1,16,50,16,49.9,16L49.9,16z M47,19L47,19c0.1-0.1,0.1-0.1,0.2-0.1h0.1h0.1h0.1h0.1h0.1h0.1h0.1H48h0.1h0.1
		h0.1h0.1h0.1c0,0,0,0,0.1,0h0.1l0,0c0.1,0,0.1,0,0.2,0l0,0H49c0,0,0,0,0.1,0h0.1c0,0,0,0,0.1,0h0.1l0,0h0.1l0,0c0.2,0,0.4,0,0.6,0
		l0,0c0.1,0,0.2,0,0.3,0l0,0c0.1,0,0.1,0,0.2,0l0,0h0.1c0,0,0,0,0.1,0h0.1c0,0,0,0,0.1,0h0.1c0,0,0,0,0.1,0h0.1c0,0,0,0,0.1,0h0.1
		c0,0,0,0,0.1,0h0.1c0,0,0,0,0.1,0c0,0,0.1,0,0.1-0.1c0,0,0,0,0.1,0s0.1-0.1,0.2-0.1c0,0,0.1,0,0.1-0.1c0,0,0,0,0.1,0c0,0,0,0,0.1,0
		c0,0,0,0,0.1-0.1l0,0l0.1-0.1l0,0l0.1-0.1l0,0l0.1-0.1l0,0c0.3-0.4,0.3-0.9,0-1.2c0.1,0.1,0.2,0.3,0.2,0.5v0.1l0,0c0,0,0,0,0,0.1
		l0,0l0,0c-0.1,0.7-0.8,1.2-1.4,1.4c0,0,0.2-0.1,0.1,0c-0.2,0.1-1.3,0.3-1.6,0.3s-0.3,0-0.6,0.1h-0.4c-0.6,0-1.2,0.2-1.8,0.7l0,0
		l0,0C46.9,19.1,46.9,19.1,47,19z M46.4,19.5C46.4,19.5,46.5,19.4,46.4,19.5C46.5,19.4,46.5,19.4,46.4,19.5L46.4,19.5L46.4,19.5
		L46.4,19.5L46.4,19.5z M46.3,19.6L46.3,19.6L46.3,19.6L46.3,19.6z M45.2,17.8c0.1,0,0.2,0,0.3,0s0.2,0,0.2,0l0,0l0,0l0,0l0,0l0,0
		c0,0,0,0-0.1-0.1c0,0,0,0-0.1,0C45.4,17.9,45.3,17.8,45.2,17.8z M39.5,17.4c1.7,0.3,3.4,0.5,4.9,0.6c0.4,0-0.1,0,0.7,0
		c0.1,0,0.1,0,0.1,0h-0.3c-0.3,0-0.5,0-0.8,0c-0.1,0-0.2,0-0.3,0c-0.2,0-0.3,0-0.5,0c-0.1,0-0.2,0-0.3,0c-0.2,0-0.3,0-0.5-0.1
		c-0.1,0-0.2,0-0.3,0c-0.2,0-0.3,0-0.5-0.1c-0.1,0-0.2,0-0.3,0c-0.2,0-0.3,0-0.5-0.1c-0.1,0-0.2,0-0.3,0c-0.2,0-0.4-0.1-0.6-0.1
		c-0.1,0-0.1,0-0.2,0C40,17.5,39.8,17.5,39.5,17.4z M35.2,22.2c0,0,0,0.1,0.1,0.1l0,0h-0.1C35.2,22.3,35.2,22.2,35.2,22.2
		C35.1,22.2,35.1,22.2,35.2,22.2z M32.8,25.3C32.8,25.3,32.9,25.3,32.8,25.3c0.1,0,0.1,0,0.1,0.1c0,0,0,0,0,0.1l0,0c0,0,0,0-0.1,0
		C32.8,25.4,32.8,25.4,32.8,25.3L32.8,25.3z M32.2,25.9C32.2,26,32.2,26,32.2,25.9C32.2,26,32.2,26,32.2,25.9L32.2,25.9z M32,26.1
		L32,26.1l0.1,0.1l0,0C32.1,26.2,32.1,26.2,32,26.1C32,26.2,32,26.1,32,26.1z M30.6,27.4C30.6,27.4,30.7,27.5,30.6,27.4
		C30.6,27.5,30.6,27.4,30.6,27.4L30.6,27.4z M30.1,27.8c0.1,0,0.1,0,0.2,0v0.1C30.2,27.8,30.1,27.8,30.1,27.8L30.1,27.8z M29,43.8
		L29,43.8L29,43.8C29,43.8,29,43.8,29,43.8C28.9,43.8,29,43.8,29,43.8z M28.8,45.5C28.7,45.5,28.7,45.5,28.8,45.5
		C28.8,45.4,28.8,45.4,28.8,45.5C28.8,45.5,28.8,45.5,28.8,45.5z M28.7,45L28.7,45C28.7,45.1,28.7,45.1,28.7,45
		C28.7,45.1,28.7,45.1,28.7,45z M28.7,44.7C28.7,44.6,28.7,44.6,28.7,44.7c0.1,0,0.1,0,0.1,0v0.1C28.7,44.8,28.7,44.7,28.7,44.7
		L28.7,44.7z M28.7,45.4L28.7,45.4C28.7,45.4,28.6,45.4,28.7,45.4C28.6,45.4,28.6,45.4,28.7,45.4z M28.4,46.9L28.4,46.9L28.4,46.9
		C28.4,46.9,28.3,46.9,28.4,46.9z M28.2,29C28.2,29,28.2,28.9,28.2,29c0-0.1,0-0.1,0-0.1h0.1c0,0,0,0,0,0.1C28.3,29,28.3,29,28.2,29
		z M21.7,43.9L21.7,43.9L21.7,43.9z M21.8,43.4c0-0.1-0.1-0.1-0.2-0.1c0-0.1,0-0.1,0.1-0.1C21.8,43.2,21.8,43.3,21.8,43.4L21.8,43.4
		z M21.6,46.7C21.5,46.7,21.5,46.7,21.6,46.7C21.5,46.6,21.5,46.6,21.6,46.7C21.5,46.6,21.5,46.6,21.6,46.7
		C21.5,46.6,21.6,46.6,21.6,46.7C21.6,46.6,21.6,46.6,21.6,46.7z M20.6,49.4c0,0,0.1,0,0.1-0.1C20.7,49.3,20.7,49.3,20.6,49.4z
		 M21.2,51.6C21.2,51.6,21.2,51.5,21.2,51.6C21.3,51.5,21.3,51.6,21.2,51.6C21.3,51.6,21.2,51.6,21.2,51.6z M21.2,52.1
		C21.2,52.1,21.2,52,21.2,52.1C21.2,52,21.2,52,21.2,52.1l0.1-0.1v0.1C21.3,52.1,21.2,52.1,21.2,52.1z M21.3,52.4
		C21.2,52.5,21.3,52.5,21.3,52.4C21.2,52.5,21.2,52.5,21.3,52.4z M21.3,53.6C21.3,53.5,21.2,53.5,21.3,53.6
		C21.2,53.5,21.2,53.5,21.3,53.6C21.3,53.5,21.3,53.5,21.3,53.6C21.3,53.5,21.3,53.5,21.3,53.6C21.3,53.5,21.3,53.5,21.3,53.6z
		 M21.3,54.9C21.4,54.9,21.4,54.9,21.3,54.9C21.4,54.9,21.4,54.9,21.3,54.9z M22,41.2C22,41.2,21.9,41.2,22,41.2
		C21.9,41.1,21.9,41.1,22,41.2c0-0.1,0-0.2,0.1-0.2c0,0,0,0,0.1,0v0.1C22.1,41.1,22,41.1,22,41.2z M22.3,39.8L22.3,39.8L22.3,39.8
		c-0.1,0-0.1,0-0.1,0v-0.1L22.3,39.8C22.3,39.7,22.3,39.7,22.3,39.8z M22.7,58.7C22.6,58.7,22.6,58.7,22.7,58.7c0-0.1-0.1-0.2,0-0.2
		l0.1,0.1C22.7,58.6,22.7,58.7,22.7,58.7z M23,59.7C23,59.7,23,59.6,23,59.7C23,59.6,23,59.6,23,59.7C23,59.6,23,59.7,23,59.7z
		 M23.1,60.1L23.1,60.1L23,60.2l0,0C23,60.2,23,60.2,23.1,60.1C23.1,60.1,23,60.1,23.1,60.1C23,60.1,23.1,60.1,23.1,60.1L23.1,60.1z
		 M23.1,37.2L23.1,37.2C23.1,37.2,23.1,37.1,23.1,37.2C23.2,37.1,23.2,37.1,23.1,37.2c0.1,0,0.1,0,0.1,0S23.2,37.2,23.1,37.2z
		 M23.9,62L23.9,62C23.9,62.1,23.9,62.1,23.9,62C23.8,62,23.8,62,23.9,62C23.8,61.9,23.8,62,23.9,62z M23.8,62.2L23.8,62.2
		c0.1,0,0.1,0,0.1,0.1c0,0,0,0,0,0.1C23.8,62.3,23.8,62.3,23.8,62.2L23.8,62.2z M23.9,62.5c0.1,0,0.1,0,0.2,0
		C24,62.6,23.9,62.6,23.9,62.5z M24.1,62.2c-0.1,0,0,0-0.1,0C24,62.1,24,62.2,24.1,62.2L24.1,62.2z M24,35.5c0-0.1,0.1-0.1,0.1-0.2
		h0.1c0,0.1,0,0.2,0,0.3c0,0,0,0-0.1,0S24,35.6,24,35.5z M24.1,62.8c0.1,0,0.2-0.1,0.2-0.1c0.1,0.1,0.1,0,0.1,0.2
		C24.3,62.8,24.2,62.9,24.1,62.8z M24.8,63.1C24.8,63.1,24.8,63,24.8,63.1C24.8,63,24.8,63,24.8,63.1C24.8,63,24.8,63.1,24.8,63.1z
		 M25,64C25.1,64,25.1,64,25,64C25.1,64,25.1,64,25,64z M25.8,32.3L25.8,32.3C25.9,32.3,25.9,32.4,25.8,32.3
		C25.8,32.3,25.9,32.4,25.8,32.3z M26,32.4L26,32.4L26,32.4c0,0,0,0,0,0.1C26.1,32.5,26,32.4,26,32.4z M26.4,31.4L26.4,31.4
		c0-0.1,0-0.1,0-0.1l0,0C26.5,31.3,26.4,31.4,26.4,31.4z M27.8,67.1L27.8,67.1c0-0.1,0-0.1,0.1-0.1C27.8,67,27.8,67.1,27.8,67.1
		L27.8,67.1z M28.4,67.8c0-0.1,0-0.1,0.1-0.1v0.1H28.4z M29.9,67.9L29.9,67.9L29.8,68C29.8,67.9,29.8,67.9,29.9,67.9z M29.8,69.5
		C29.8,69.5,29.8,69.4,29.8,69.5C29.8,69.4,29.8,69.4,29.8,69.5C29.8,69.4,29.8,69.5,29.8,69.5z M30,69.6L30,69.6
		c-0.1,0-0.1,0-0.2,0v-0.1l0,0C30,69.6,30,69.6,30,69.6L30,69.6z M31.5,71.1L31.5,71.1L31.5,71.1L31.5,71.1L31.5,71.1z M37.2,74.9
		L37.2,74.9H37C37,74.8,37,74.8,37.2,74.9C37.1,74.7,37.1,74.8,37.2,74.9C37.2,74.8,37.2,74.8,37.2,74.9z M38,75.3L38,75.3
		c0-0.1,0-0.1,0-0.2h0.1L38,75.3C38.2,75.3,38.2,75.3,38,75.3z M40.8,76.5L40.8,76.5C40.9,76.5,40.9,76.5,40.8,76.5
		C40.9,76.6,40.9,76.6,40.8,76.5z M45.9,78.3L45.9,78.3L45.9,78.3z M46.9,78.2L46.9,78.2C46.8,78.1,46.8,78.1,46.9,78.2
		C46.8,78.1,46.9,78.1,46.9,78.2C46.9,78.1,46.9,78.1,46.9,78.2C46.9,78.1,46.9,78.2,46.9,78.2z M49,78.4
		C49.1,78.4,49.1,78.4,49,78.4C49.1,78.5,49.1,78.4,49,78.4z M53,78.1L53,78.1c0.1,0.1,0.1,0.1,0.2,0.2C53.1,78.2,53.1,78.2,53,78.1
		z M54.4,78.5C54.5,78.5,54.5,78.5,54.4,78.5C54.5,78.5,54.5,78.5,54.4,78.5z M55.3,78C55.3,78,55.3,77.9,55.3,78
		C55.3,77.9,55.3,77.9,55.3,78L55.3,78C55.4,78,55.4,78,55.3,78z M56,78c-0.1-0.1,0,0,0-0.2h0.1C56.1,77.9,56.1,78,56,78z
		 M59.6,77.1L59.6,77.1L59.6,77.1C59.6,77,59.6,77.1,59.6,77.1L59.6,77.1L59.6,77.1z M60.3,77.2L60.3,77.2
		C60.2,77.1,60.3,77.1,60.3,77.2C60.3,77.1,60.3,77.1,60.3,77.2z M63.4,75.6L63.4,75.6C63.5,75.6,63.5,75.6,63.4,75.6z M65.3,71.5
		L65.3,71.5L65.3,71.5L65.3,71.5z M65.9,74.5L65.9,74.5C65.9,74.5,65.9,74.4,65.9,74.5C65.9,74.4,65.9,74.4,65.9,74.5
		C65.9,74.4,65.9,74.5,65.9,74.5L65.9,74.5z M67.3,73.3L67.3,73.3C67.3,73.3,67.3,73.4,67.3,73.3z M68.1,69.7L68.1,69.7
		c-0.1,0.1-0.2,0.1-0.2,0s0,0,0-0.1c-0.1,0-0.2,0.1-0.3,0.1v-0.1c0.1,0,0.1-0.1,0.2-0.1h0.1C68,69.7,68,69.6,68.1,69.7L68.1,69.7z
		 M74.3,68L74.3,68L74.3,68C74.4,68.1,74.4,68.1,74.3,68L74.3,68C74.2,68.2,74.2,68.1,74.3,68C74.2,68.1,74.2,68.1,74.3,68z
		 M73.1,63.5L73.1,63.5L73.1,63.5C73.2,63.6,73.1,63.6,73.1,63.5C73.1,63.6,73.1,63.6,73.1,63.5z M72.2,64.1c0-0.1,0-0.2,0-0.3
		c0.1,0,0.2,0,0.3-0.1c0.2,0.1,0.3,0.3,0.5,0.4c0,0,0,0-0.1,0s-0.8,0-0.9,0l0,0V64C72,64.1,72.1,64.1,72.2,64.1z M72.4,66.1
		c-0.1,0-0.2-0.1-0.3-0.1c0-0.1,0-0.1,0-0.2h0.1C72.3,66,72.4,66,72.4,66.1z M71.8,63.9L71.8,63.9c0.1,0,0.2,0,0.2,0V64
		C72,64,72,64,71.8,63.9C71.9,64,71.8,64,71.8,63.9z M71.6,64.7c0,0.2,0.1,0.2,0.2,0.4c-0.3,0-0.5-0.1-0.7-0.2v-0.1
		C71.4,64.8,71.4,64.8,71.6,64.7z M71.1,65.5C71.1,65.5,71.2,65.5,71.1,65.5C71.2,65.6,71.2,65.6,71.1,65.5
		C71.1,65.6,71.1,65.5,71.1,65.5L71.1,65.5z M70.8,64.8L70.8,64.8C70.9,64.9,70.9,64.8,70.8,64.8C70.8,64.9,70.8,64.9,70.8,64.8
		L70.8,64.8z M71,65.8c-0.1,0-0.2,0.1-0.2,0.1l0,0C70.9,65.8,70.9,65.8,71,65.8z M70.5,66.1c0.1,0,0.1,0,0.2,0
		c0,0.1,0.1,0.2,0.1,0.2v0.1c-0.1,0-0.1,0-0.2,0C70.6,66.3,70.6,66.3,70.5,66.1C70.5,66.2,70.5,66.2,70.5,66.1
		C70.4,66.2,70.4,66.1,70.5,66.1z M70.5,66.6c0.1,0.1,0.2,0.1,0.3,0.2v0.1c-0.1,0-0.2,0-0.3,0c0-0.1-0.1-0.1-0.2-0.2
		C70.3,66.6,70.4,66.6,70.5,66.6z M69.2,66.5C69.3,66.4,69.3,66.4,69.2,66.5C69.3,66.4,69.3,66.5,69.2,66.5
		C69.3,66.5,69.3,66.5,69.2,66.5L69.2,66.5z M69.2,67C69.2,67,69.3,67,69.2,67c0.1,0.1,0.2,0.1,0.2,0.2v0.1c0,0,0,0-0.1,0
		C69.2,67.2,69.2,67.1,69.2,67C69.1,67,69.1,67,69.2,67z M68.8,67.8C68.8,67.8,68.9,67.8,68.8,67.8c0.1,0,0.2,0,0.2,0l0,0
		C69,67.8,69,67.9,68.8,67.8L68.8,67.8C68.8,67.8,68.8,67.8,68.8,67.8z M69,68.8L69,68.8c-0.1-0.1-0.1,0-0.2-0.1L69,68.8
		C69,68.6,69,68.7,69,68.8L69,68.8z M69.1,68.1c0-0.1,0-0.2,0-0.3c0.1,0,0.1,0,0.2,0c0,0,0,0.1,0.1,0.1c-0.1,0.1-0.1,0.1,0,0.2
		s0.2,0.1,0.3,0.2c0,0,0,0-0.1,0C69.4,68.2,69.2,68.2,69.1,68.1z M69.6,68.7c-0.1,0-0.2,0.1-0.3,0.1v-0.1c0,0,0,0,0-0.1
		c0.1,0,0.1,0,0.2,0v-0.1l-0.1-0.1h0.1C69.5,68.5,69.6,68.6,69.6,68.7L69.6,68.7z M69.9,68.4L69.9,68.4L69.9,68.4
		c-0.1-0.2-0.2-0.2-0.2-0.4c0,0,0.1,0,0.1-0.1h0.1c0,0.1,0.1,0.2,0.1,0.3h-0.1C69.9,68.4,69.9,68.4,69.9,68.4z M70.1,67.4
		c0.4,0.1,0.4,0,0.9,0.1c0,0.1,0,0.1-0.1,0.2c-0.2,0-0.3-0.1-0.5-0.1c0,0.2-0.1,0.2-0.2,0.3c0,0,0-0.1-0.1-0.1
		c0.1-0.1,0.1,0,0.1-0.1C70.1,67.5,70.1,67.5,70.1,67.4z M70.5,67.9L70.5,67.9L70.5,67.9L70.5,67.9C70.4,67.9,70.5,67.9,70.5,67.9z
		 M70.3,71.3C70.3,71.2,70.3,71.2,70.3,71.3c-0.1-0.1-0.1-0.2,0-0.2c0,0.1,0,0.1,0.2,0.1C70.3,71.3,70.4,71.2,70.3,71.3z M70.6,68.2
		C70.5,68.3,70.5,68.3,70.6,68.2c-0.2,0-0.3-0.1-0.3-0.2c0.1,0,0.2,0,0.2,0C70.5,68.1,70.5,68.1,70.6,68.2L70.6,68.2z M70.7,70.3
		L70.7,70.3C70.7,70.3,70.7,70.4,70.7,70.3C70.7,70.3,70.7,70.4,70.7,70.3z M70.8,71.1L70.8,71.1L70.8,71.1z M70.9,70.1
		C70.9,70.1,70.9,70,70.9,70.1c0-0.1,0.1-0.2,0.2-0.2C71,70,71,70,70.9,70.1z M71.5,70C71.4,70,71.4,70,71.5,70
		C71.4,69.9,71.4,69.9,71.5,70L71.5,70L71.5,70L71.5,70z M71.8,67.2c-0.4-0.2-1,0.1-1.2-0.2c0,0,0.1,0,0.1-0.1c0.1,0,0.2,0,0.3,0
		c0-0.2,0-0.2,0-0.3l0,0c0.1,0,0.2,0,0.3,0c0.1-0.1,0-0.1,0.2-0.1c0-0.1-0.1-0.1-0.1-0.2c0.1,0,0.1,0,0.2,0c0.1,0.3,0.1,0.2,0.1,0.6
		c0.2,0.1,0.3,0.1,0.4,0.3C71.9,67.2,71.8,67.2,71.8,67.2z M72,66.7c-0.1-0.1-0.2-0.2-0.3-0.2c0-0.1,0-0.1,0-0.2
		c-0.2,0-0.2,0-0.2-0.1c0.1,0,0.2,0,0.3-0.1c0,0-0.1,0-0.1-0.1l0,0c0.1,0,0.2,0,0.3,0c0,0.1,0.1,0.2,0.1,0.2c0.4,0,0.5,0,0.6,0.3
		c0,0.1,0,0.1,0,0.2l-0.1,0.1c-0.2,0-0.3-0.1-0.5-0.2C72.1,66.6,72.1,66.7,72,66.7C72.1,66.7,72,66.7,72,66.7z M72.5,65.7
		c0.2,0,0.4,0,0.6,0c0,0.1,0,0.1,0,0.2l0,0C72.8,65.9,72.6,65.9,72.5,65.7z M72.3,67.3L72.3,67.3L72.3,67.3
		C72.3,67.2,72.3,67.2,72.3,67.3C72.3,67.2,72.3,67.2,72.3,67.3z M72.6,67.2C72.6,67.3,72.6,67.3,72.6,67.2c-0.1,0.1-0.2,0-0.2,0
		S72.5,67.2,72.6,67.2z M72.8,68.9C72.8,68.9,72.8,68.8,72.8,68.9C72.8,68.8,72.8,68.8,72.8,68.9C72.9,68.8,72.9,68.9,72.8,68.9
		L72.8,68.9z M73.4,68.3c-0.1,0-0.1,0-0.2,0c0,0.1,0,0.2,0,0.3c-0.2,0-0.2,0.1-0.4,0.1c-0.2-0.1-0.2-0.3-0.3-0.4
		c0.1-0.1,0.1-0.1,0.2-0.1c0-0.1,0-0.1,0-0.2c0.2,0,0.2,0.1,0.4,0.1l0.1-0.1C73.3,68.1,73.3,68.1,73.4,68.3
		C73.5,68.2,73.4,68.2,73.4,68.3z M73.5,67.5L73.5,67.5C73.6,67.5,73.6,67.6,73.5,67.5C73.6,67.6,73.5,67.5,73.5,67.5z M73.9,67.5
		C73.8,67.5,73.8,67.4,73.9,67.5C73.8,67.4,73.8,67.4,73.9,67.5C73.8,67.4,73.8,67.4,73.9,67.5C73.9,67.4,73.9,67.5,73.9,67.5z
		 M74,67.5c-0.1-0.1-0.1-0.1,0-0.2l0,0C74,67.4,74.1,67.5,74,67.5C74.1,67.5,74.1,67.5,74,67.5z M74.3,64.1c-0.1,0-0.3,0-0.4,0
		c0,0.1,0,0.1,0,0.2c-0.1,0-0.1,0-0.2,0c0,0.1-0.1,0.1-0.1,0.2v0.1c0.2,0,0.2,0.1,0.3,0.2c-0.1,0.1-0.2,0.1-0.3,0.2
		c0,0.1,0.1,0.1,0.1,0.2c0,0-0.1,0-0.1,0.1c-0.2,0-0.2-0.1-0.3-0.3c-0.1,0-0.1,0-0.2,0l0,0c0,0.1,0.1,0.1,0.1,0.3l0,0
		c-0.2-0.1-0.4,0-0.6,0l0,0c0.1-0.1,0.1-0.2,0.2-0.2h0.1c0-0.2,0.2-0.3,0.5-0.3c0,0,0-0.1-0.1-0.1l0,0h0.1v0.1c0.1,0,0.2,0,0.2,0
		s0,0,0-0.1c-0.2-0.1-0.3-0.2-0.6-0.3c0-0.1,0-0.1,0-0.2c0.1,0,0.2,0.1,0.4,0.1c0.2-0.1,0.2-0.2,0.4-0.3l-0.1-0.1c0,0,0-0.1,0.1-0.1
		s0.2,0,0.3,0C74.3,63.8,74.3,63.9,74.3,64.1C74.4,64.1,74.4,64.1,74.3,64.1z M74.6,66.7L74.6,66.7C74.6,66.6,74.6,66.6,74.6,66.7
		C74.6,66.6,74.6,66.7,74.6,66.7L74.6,66.7z M75.4,56.9c0-0.1-0.1-0.1-0.1-0.2c0,0,0-0.1,0.1-0.1c0,0,0,0,0.1,0
		c0,0.1,0.1,0.2,0.1,0.3C75.5,57,75.5,57,75.4,56.9C75.4,57,75.4,57,75.4,56.9z M74.4,59.9c0.1-0.1,0.1-0.2,0.2-0.1
		c0.1,0,0.1,0,0.2,0c0.2,0.2,0.3,0.1,0.6,0.2c0,0.1,0,0.1,0.1,0.2c0,0,0,0-0.1,0C75.1,60.2,74.5,60.1,74.4,59.9z M75.1,63.4
		C75.1,63.4,75.1,63.3,75.1,63.4C75.1,63.3,75.1,63.3,75.1,63.4C75.2,63.3,75.2,63.3,75.1,63.4C75.2,63.3,75.1,63.3,75.1,63.4z
		 M75.3,64.2C75.3,64.2,75.4,64.2,75.3,64.2C75.4,64.3,75.2,64.2,75.3,64.2z M75.7,61.8c-0.3,0-0.5,0.1-0.8,0.1v-0.1c0,0,0,0,0-0.1
		c0.2,0,0.2,0,0.3-0.1c0,0,0-0.1-0.1-0.1c-0.2,0-0.2,0-0.2-0.2c0.2,0,0.2,0,0.4-0.1C75.5,61.4,75.6,61.6,75.7,61.8
		C75.8,61.7,75.8,61.7,75.7,61.8z M75.4,61c0.1,0,0.3,0,0.4,0c0,0.1,0,0.1,0.1,0.2h-0.1C75.7,61.2,75.6,61.1,75.4,61z M76.1,65.6
		L76.1,65.6c-0.1,0-0.2,0-0.2,0H76.1C76,65.5,76.1,65.5,76.1,65.6C76.1,65.5,76.1,65.6,76.1,65.6z M76.2,64.9L76.2,64.9
		c-0.1,0-0.2,0-0.2,0H76.2C76.1,64.8,76.2,64.9,76.2,64.9L76.2,64.9z M76,58.9L76,58.9C76.1,58.9,76.1,58.9,76,58.9
		C76,58.9,76,58.9,76,58.9z M76.7,58.4c-0.4,0-0.8-0.1-1.1,0.1c-0.1,0.1-0.1,0.2,0,0.3c-0.1,0-0.2-0.1-0.3-0.2
		c0.2-0.3,0.2-0.3,0.1-0.6c0.3-0.1,0.6-0.1,0.9-0.2C76.4,58.1,76.6,58.2,76.7,58.4L76.7,58.4z M76.8,55.5c0-0.2,0-0.2-0.2-0.3
		c0,0,0,0,0-0.1c0,0,0,0,0-0.1h0.1c0.1,0,0.1,0.1,0.2,0.1C76.9,55.3,76.9,55.4,76.8,55.5z M77.1,57.5C77.1,57.4,77.1,57.4,77.1,57.5
		C77.1,57.5,77.1,57.4,77.1,57.5z M77.3,59C77.3,59,77.3,58.9,77.3,59l0.3-0.1V59C77.5,58.9,77.4,58.9,77.3,59z M77.7,62.5
		C77.8,62.5,77.8,62.5,77.7,62.5C77.7,62.6,77.8,62.6,77.7,62.5z M77.8,57.6c-0.2,0-0.3-0.1-0.5-0.1c0.2-0.1,0.3-0.2,0.3-0.4
		c-0.1,0-0.1,0-0.2-0.1c0.1-0.1,0.1-0.1,0.2-0.1c0.1,0.2,0.2,0.3,0.3,0.5C77.9,57.5,77.9,57.5,77.8,57.6z M79,55.4L79,55.4
		C79,55.3,79,55.3,79,55.4C79,55.3,79,55.3,79,55.4C79.1,55.4,79.1,55.4,79,55.4L79,55.4z M80.1,58.9L80.1,58.9
		C80.1,58.8,80.1,58.8,80.1,58.9C80.1,58.9,80.1,58.9,80.1,58.9z M80.2,58C80.2,58,80.1,58,80.2,58C80.1,58,80.1,58,80.2,58
		C80.1,58,80.2,58,80.2,58L80.2,58z M80.4,52.1C80.4,52.1,80.5,52.1,80.4,52.1C80.4,52.2,80.4,52.2,80.4,52.1L80.4,52.1
		C80.4,52.2,80.3,52.2,80.4,52.1C80.4,52.2,80.4,52.1,80.4,52.1z M80.2,52.9c-0.1,0-0.1,0-0.2-0.1l0,0C80,52.8,80,52.8,80.2,52.9
		c0,0,0.1,0,0.2-0.1C80.3,52.8,80.3,52.8,80.2,52.9z M80.3,54.4C80.3,54.4,80.3,54.3,80.3,54.4c0.2-0.1,0.2,0,0.3,0c0,0,0,0,0,0.1
		h-0.1C80.4,54.5,80.3,54.5,80.3,54.4z M80.7,58L80.7,58L80.7,58c0-0.1,0-0.1,0.1-0.2C80.8,57.9,80.7,57.9,80.7,58z M49.5-0.6
		c-0.1,0.1-0.2,0.3-0.3,0.4C49.4-0.3,49.5-0.4,49.5-0.6C49.6-0.6,49.5-0.5,49.5-0.6z M75.6,56.2c0-0.2,0.1-0.2,0-0.3v-0.1
		C75.5,55.9,75.5,56,75.6,56.2C75.5,56.2,75.5,56.2,75.6,56.2z M73,68.2c0,0.1,0,0.1,0.1,0.2h0.1v-0.1C73.1,68.2,73.1,68.2,73,68.2z
		 M66.4,74.6C66.5,74.6,66.5,74.6,66.4,74.6C66.5,74.6,66.5,74.6,66.4,74.6L66.4,74.6z M36.2,75C36.3,75,36.2,75,36.2,75
		C36.3,75,36.3,75,36.2,75L36.2,75z M37.8,75.5L37.8,75.5C37.8,75.5,37.8,75.4,37.8,75.5C37.8,75.5,37.8,75.4,37.8,75.5z M37.6,75.5
		C37.6,75.5,37.6,75.4,37.6,75.5C37.7,75.4,37.7,75.4,37.6,75.5C37.6,75.4,37.6,75.4,37.6,75.5C37.6,75.4,37.6,75.5,37.6,75.5z
		 M34.6,74.1L34.6,74.1C34.7,74.1,34.7,74.1,34.6,74.1v-0.2C34.5,74,34.6,74,34.6,74.1z M35.4,74.4c-0.1,0-0.1,0.1-0.2,0.1v0.1
		c0.1,0,0.1,0,0.2,0C35.5,74.5,35.5,74.5,35.4,74.4L35.4,74.4z M61,76.8C61,76.8,61.1,76.8,61,76.8C61.1,76.8,61.1,76.7,61,76.8
		C61,76.8,61,76.8,61,76.8z M56.7,78.3L56.7,78.3C56.8,78.3,56.8,78.3,56.7,78.3L56.7,78.3L56.7,78.3z M56.5,78.2L56.5,78.2
		C56.6,78.2,56.6,78.2,56.5,78.2C56.6,78.2,56.6,78.2,56.5,78.2C56.6,78.2,56.6,78.2,56.5,78.2L56.5,78.2z M51.1,78.6L51.1,78.6
		C51.2,78.7,51.2,78.7,51.1,78.6C51.2,78.6,51.2,78.6,51.1,78.6z M42.7,77.7L42.7,77.7L42.7,77.7z M24.7,33.1h-0.1v0.1
		C24.7,33.2,24.7,33.1,24.7,33.1C24.8,33.1,24.8,33.1,24.7,33.1z M82.6,51.2c-0.1,0-0.3,0.1-0.4,0.1c0,0.1-0.1,0.1-0.1,0.2
		c0,0,0,0.1,0.1,0.1c0.2,0,0.3-0.1,0.4-0.2C82.5,51.3,82.5,51.3,82.6,51.2z M82.3,52.3c0,0.1-0.1,0.1-0.1,0.2c0,0,0,0,0.1,0
		c0,0,0,0,0.1,0C82.3,52.4,82.3,52.3,82.3,52.3z M82.3,53c-0.1,0-0.2-0.1-0.3-0.1c0,0,0,0-0.1,0c0.1,0.2,0.1,0.2,0.3,0.3
		c0,0,0.1,0,0.1-0.1C82.4,53.1,82.4,53.1,82.3,53C82.4,53,82.3,53,82.3,53z M24.6,33.8C24.5,33.8,24.5,33.8,24.6,33.8
		c-0.1,0-0.1,0-0.1,0l0,0C24.5,33.8,24.5,33.8,24.6,33.8C24.6,33.8,24.5,33.8,24.6,33.8z M81.9,54.3C81.9,54.4,81.9,54.3,81.9,54.3
		L81.9,54.3L81.9,54.3z M81.5,55.3c0,0.1-0.1,0.2-0.1,0.2c0,0.1,0.1,0.1,0.1,0.2c0,0,0,0,0.1,0c0.1-0.2,0.1-0.3,0.2-0.4
		c0-0.1-0.1-0.1-0.1-0.2C81.6,55.2,81.6,55.2,81.5,55.3z M82.2,51.1C82.2,51,82.2,51.1,82.2,51.1L82.2,51.1
		C82.1,51,82.2,51,82.2,51.1L82.2,51.1z M82.5,49.6c-0.1,0-0.2-0.1-0.3,0c0.1,0.1,0.2,0.2,0.3,0.3c-0.1,0.1-0.1,0.1-0.1,0.3
		c0.2,0,0.3,0.1,0.5,0.1c0-0.1,0-0.2,0-0.2C82.6,50,82.6,49.8,82.5,49.6z M83,50.4L83,50.4C83.1,50.4,83.1,50.4,83,50.4
		C83,50.4,83,50.4,83,50.4L83,50.4z M82.4,51L82.4,51C82.4,51,82.4,51.1,82.4,51C82.4,51.1,82.4,51.1,82.4,51
		C82.5,51.1,82.5,51.1,82.4,51C82.5,51,82.4,51,82.4,51z M82.4,44.7L82.4,44.7c0.1-0.3-0.1-0.3-0.4-0.4c0,0.1,0,0,0,0.1
		C82.1,44.5,82.3,44.6,82.4,44.7z M31.9,25.9h-0.1V26h0.1C31.9,26,31.9,26,31.9,25.9z M31.7,26.2C31.7,26.3,31.7,26.3,31.7,26.2
		C31.7,26.3,31.8,26.3,31.7,26.2c0.1,0,0.1,0,0.1-0.1C31.7,26.2,31.7,26.2,31.7,26.2z M26.5,30.6h-0.1c0,0.1,0.1,0.1,0.1,0.2
		C26.5,30.7,26.5,30.7,26.5,30.6L26.5,30.6z M74.3,60.8L74.3,60.8C74.4,60.8,74.4,60.8,74.3,60.8C74.3,60.7,74.3,60.7,74.3,60.8z
		 M81.6,57C81.6,57,81.7,56.9,81.6,57C81.6,56.9,81.6,56.9,81.6,57C81.6,56.9,81.6,57,81.6,57z M33.3,73L33.3,73
		C33.4,73,33.4,72.9,33.3,73C33.3,72.9,33.3,72.9,33.3,73C33.3,72.9,33.3,73,33.3,73z M81.1,55.3c0.1,0,0.1,0,0.2,0v-0.1
		C81.3,55.3,81.2,55.3,81.1,55.3L81.1,55.3z M79.8,54.5L79.8,54.5c-0.1,0-0.1,0-0.2,0H79.8C79.8,54.6,79.8,54.6,79.8,54.5
		C79.8,54.6,79.8,54.6,79.8,54.5z M78,53.5c0,0.1,0.1,0.2,0.1,0.3l0,0c0.1-0.1,0.1-0.2,0.2-0.3c0,0,0,0,0-0.1
		C78.2,53.5,78.1,53.5,78,53.5L78,53.5z M78.5,53.6c0.1,0,0.2,0,0.2,0s0-0.1,0.1-0.1L78.5,53.6c0-0.1,0-0.1-0.1-0.1
		C78.4,53.5,78.5,53.5,78.5,53.6z M73.2,36.1L73.2,36.1c0.2-0.1,0.2-0.1,0.2-0.2c-0.1,0-0.2,0-0.3,0C73.3,36,73.2,36,73.2,36.1z
		 M73.9,33.8L73.9,33.8C73.8,33.8,73.8,33.8,73.9,33.8C73.8,33.8,73.9,33.8,73.9,33.8z M73.6,33.8C73.6,33.7,73.6,33.7,73.6,33.8
		C73.6,33.7,73.6,33.7,73.6,33.8C73.6,33.7,73.6,33.7,73.6,33.8L73.6,33.8z M73.9,35.5C73.9,35.5,73.9,35.4,73.9,35.5
		C73.8,35.4,73.9,35.4,73.9,35.5z M74,31.8L74,31.8L74,31.8L74,31.8z M72.1,34.4C72.1,34.4,72.1,34.3,72.1,34.4
		C72.1,34.3,72,34.3,72.1,34.4C72,34.3,72,34.3,72.1,34.4C72,34.4,72,34.4,72.1,34.4C72,34.4,72.1,34.4,72.1,34.4z M73.3,36.2
		C73.3,36.3,73.3,36.3,73.3,36.2C73.3,36.3,73.3,36.3,73.3,36.2c0.2,0.1,0.2,0.1,0.3,0.1v-0.1c0,0-0.1,0-0.1-0.1
		C73.4,36.2,73.4,36.2,73.3,36.2z M73.7,59.4L73.7,59.4c0-0.1,0-0.1,0-0.2c0,0,0,0-0.1,0C73.7,59.3,73.7,59.4,73.7,59.4z M72.9,35.3
		L72.9,35.3c-0.1-0.1-0.1-0.1-0.2-0.1C72.7,35.3,72.8,35.3,72.9,35.3C72.8,35.3,72.9,35.3,72.9,35.3z M72.6,34.9L72.6,34.9
		L72.6,34.9C72.5,34.9,72.5,34.9,72.6,34.9L72.6,34.9z M73.2,60.5C73.1,60.5,73.1,60.5,73.2,60.5C73.2,60.6,73.1,60.7,73.2,60.5z
		 M73.1,35.9L73.1,35.9L73.1,35.9L73.1,35.9z M73.2,36.3L73.2,36.3C73.1,36.2,73,36.1,73,36h-0.1C73,36.2,73.1,36.3,73.2,36.3z
		 M75.7,33.7c0-0.1,0-0.1,0.1-0.2c0-0.1-0.1-0.2-0.1-0.2s0,0-0.1,0s-0.2,0-0.3,0v0.1c0.1,0.1,0.1,0,0,0.1c-0.1,0-0.1,0-0.1,0v0.1
		c0,0,0,0,0.1,0C75.4,33.7,75.5,33.7,75.7,33.7z M73.8,59.1C73.8,59.1,73.7,59.1,73.8,59.1c-0.1,0.1-0.1,0.1,0,0.2
		C73.8,59.2,73.8,59.2,73.8,59.1z M75.3,37.9c0.1-0.2,0.1-0.2,0.1-0.3c0,0-0.1,0-0.1,0.1c0,0,0,0,0,0.1
		C75.2,37.7,75.2,37.8,75.3,37.9C75.2,37.9,75.3,37.9,75.3,37.9z M73.9,39L73.9,39L73.9,39C73.9,38.9,73.9,38.9,73.9,39z M74.7,36.6
		C74.7,36.6,74.7,36.7,74.7,36.6C74.7,36.7,74.7,36.7,74.7,36.6L74.7,36.6z M74.4,38.2L74.4,38.2c0.2,0.2,0.5,0.1,0.7,0
		c0-0.1,0-0.1,0-0.1C75,38,75,37.9,74.9,37.7c-0.1,0-0.1,0-0.2,0s-0.1,0.1-0.2,0.1C74.4,38,74.4,38,74.4,38.2z M75.4,39.3L75.4,39.3
		L75.4,39.3C75.4,39.2,75.3,39.2,75.4,39.3C75.4,39.3,75.3,39.3,75.4,39.3z M75.6,36.2c-0.1,0-0.2,0-0.2,0l0,0
		C75.5,36.3,75.5,36.3,75.6,36.2z M75.1,37.3c0-0.1-0.1-0.2-0.1-0.2h-0.1c0,0,0,0,0,0.1c0,0,0,0,0,0.1C75,37.2,75,37.3,75.1,37.3
		L75.1,37.3z M74.3,37.3L74.3,37.3c0.1,0.1,0.1,0.1,0.2,0.1l0,0C74.5,37.4,74.4,37.4,74.3,37.3C74.4,37.3,74.3,37.3,74.3,37.3z
		 M73.9,36.6C74,36.6,74,36.7,73.9,36.6c0.1,0.1,0.2,0.1,0.2,0l0,0c-0.2-0.1-0.3-0.2-0.4-0.3c-0.1,0.1-0.1,0.1-0.3,0.1
		c0,0.3,0.2,0.3,0.2,0.6c0.2,0,0.2,0.1,0.4,0c0,0.1,0,0.1,0,0.2c0.1,0,0.2,0,0.3,0c0,0,0,0,0-0.1L74.2,37
		C74.2,36.8,74,36.7,73.9,36.6L73.9,36.6L73.9,36.6z M74.9,57.8c0-0.1,0-0.1-0.1-0.2c0,0-0.1,0-0.1,0.1
		C74.7,57.8,74.8,57.8,74.9,57.8z M74.4,38.4c0-0.1-0.1-0.1-0.1-0.2h-0.1C74.3,38.3,74.3,38.4,74.4,38.4
		C74.4,38.5,74.4,38.5,74.4,38.4C74.4,38.5,74.4,38.4,74.4,38.4z M74.3,58.2C74.4,58.2,74.4,58.2,74.3,58.2
		C74.4,58.2,74.4,58.1,74.3,58.2C74.3,58.1,74.3,58.1,74.3,58.2z M71.4,33.5c-0.1,0-0.1,0-0.2,0c0,0,0,0,0,0.1
		C71.4,33.5,71.4,33.5,71.4,33.5z M71.7,33.8L71.7,33.8C71.6,33.8,71.7,33.8,71.7,33.8C71.7,33.9,71.7,33.8,71.7,33.8z M26.2,65.9
		C26.1,65.9,26.1,65.9,26.2,65.9C26.1,66,26.1,66,26,66.1C26.1,66.1,26.2,66.1,26.2,65.9c0.1,0.1,0.1,0.1,0.2,0.1
		C26.2,66,26.2,66,26.2,65.9z M31.9,71.9C31.8,71.9,31.8,71.8,31.9,71.9C31.8,71.8,31.8,71.8,31.9,71.9z M27.1,67.7L27.1,67.7
		L27.1,67.7L27.1,67.7c0.1-0.1,0.1-0.1,0.1-0.2h-0.1C27.1,67.6,27.1,67.7,27.1,67.7z M28.4,69.4c0,0,0.1,0,0.1,0.1l0,0
		C28.5,69.4,28.5,69.4,28.4,69.4C28.5,69.4,28.4,69.4,28.4,69.4z M71.7,62.6L71.7,62.6C71.8,62.6,71.8,62.6,71.7,62.6
		C71.8,62.6,71.8,62.5,71.7,62.6C71.7,62.5,71.7,62.5,71.7,62.6C71.6,62.5,71.7,62.6,71.7,62.6z M72,35C72,35,72,34.9,72,35l0.1-0.2
		H72C71.9,34.9,71.9,34.9,72,35z M40.5,32.4c0-0.1,0-0.1,0.1-0.2c0-0.1,0-0.1,0-0.2C40.5,32.3,40.5,32.3,40.5,32.4z M15,17.4
		C15,17.4,15.1,17.4,15,17.4c0.1,0.1,0.2,0.1,0.2,0.1l0.3,0.2c0.1,0,0,0,0,0s0.1,0,0.1,0.1l0,0c0,0,0.1,0.1,0.2,0.1
		c0,0-0.1,0-0.1-0.1c0.1,0.1,0.2,0.1,0.4,0.2c-0.1-0.1,0,0,0,0s0.2,0.1,0.4,0.2c0.2,0.1,0.4,0.2,0.7,0.3c-0.1-0.1-0.2-0.1-0.4-0.2
		l0,0c0.1,0,0.2,0.1,0.4,0.1c0.1,0,0.1,0.1,0.3,0.1l0,0c0.2,0.1,0.2,0.1,0.5,0.2c0.4,0.1,0.9,0.2,1.3,0.2l0,0C19.5,19,20,19,20.2,19
		c0.4,0,1,0,1.2,0c0.8,0,1.5-0.1,2.3-0.3h-0.1c0.1,0,0.1,0,0.2-0.1c-0.2,0.1,0.2,0,0.3,0c0.3-0.1,0.8-0.2,1.1-0.3l0,0
		c0.3-0.1,0.7-0.2,1.1-0.3c0,0,0.1-0.1,0.2-0.1c0.2,0,0.3-0.1,0.6-0.2c0.2-0.1,0.6-0.2,0.8-0.3c0.8-0.2,1.7-0.5,2.6-0.7h0.1
		c0.9-0.2,1.9-0.4,2.7-0.4h-0.1c0.2,0,0.5,0,0.5,0c0.2,0,0.6,0,0.7,0c0.2,0,0.3,0,0.5,0c0.4,0,0.6,0,1,0.1c0,0,0,0,0.1,0
		c0.2,0,0.6,0.1,0.4,0.1c0.5,0.1,1.1,0.2,1.6,0.4c0,0,0.1,0,0.1,0.1c0.5,0.1,0.9,0.1,1.2,0.2c0.1,0-0.1,0,0.1,0c0.1,0,0,0,0.1,0
		c0.7,0.1,1.4,0.1,2,0.2s1.1,0.2,1.7,0.2c0.6-0.1,1.1-0.2,1.6-0.3l0,0c0.4,0,0.8-0.2,1.1-0.2c0.1,0,0.3-0.1,0.3-0.1
		c0.3,0,0.7-0.2,1.1-0.3c0.4-0.1,0.7-0.2,1.1-0.4h-0.1c0.2-0.1,0.4-0.1,0.5-0.2c0.1,0,0.1,0,0,0l0.7-0.4c-0.1-0.5-0.4-0.4-0.6-0.6
		c-0.5-0.2-1.1-0.2-1.6-0.1c-0.7,0.2,0,0.1-0.6,0.2l0,0c-0.2,0.1-0.3,0.1-0.5,0.2c0.1,0-0.1,0-0.1,0c-0.4,0.2-0.5,0.2-0.8,0.3l0,0
		c-0.4,0.1-0.8,0.3-1.2,0.4c-0.5,0.2-1.1,0.2-1.6,0.1c-0.1,0-0.6,0.1-0.3,0.4c-0.2,0-0.4,0-0.5,0c-1.1,0-2.1-0.4-3.2-0.6
		c-2.1-0.6-4.3-1.1-6.5-0.7c-0.5,0.1-0.5,0.2-1.1,0.3c0,0,0.1,0,0,0l-0.4,0.1c-0.8,0.2-1.5,0.5-2.3,0.7c0.1,0,0.2,0,0,0H28l0,0
		c-0.1,0-0.2,0-0.1,0c-2,0.6-4.1,1-6.1,1.1c-0.5,0-1.2,0-1.7,0c-1.6,0-3-0.1-4.6-0.4c0,0,0.2,0.1,0.9,0.2c0.8,0.2,1.8,0.2,2.7,0.3
		l0,0c-0.3,0-0.5,0-0.8-0.1l0,0c-0.3,0-0.6-0.1-0.8-0.1l0,0c-0.3,0-0.6-0.1-0.8-0.1c-0.1,0-0.1,0-0.2,0c-0.3,0-0.6-0.1-0.9-0.1
		c0,0,0,0-0.1,0l0,0c0,0,0,0-0.1,0l0,0h-0.1l0,0h-0.1l0,0c0,0,0,0-0.1,0l0,0C15.1,17.3,15.1,17.3,15,17.4
		C15.1,17.3,15.1,17.3,15,17.4C15,17.3,15,17.3,15,17.4C15,17.3,15,17.3,15,17.4L15,17.4L15,17.4L15,17.4v-0.1
		C14.9,17.3,15.1,17.5,15,17.4z M41.7,16.6L41.7,16.6L41.7,16.6L41.7,16.6z M40.4,16.4c0.1,0,0.4,0.1,0.5,0.1s0.2,0,0.3,0.1l0,0
		c-0.1,0-0.3,0-0.4-0.1l0,0C40.7,16.5,40.6,16.5,40.4,16.4L40.4,16.4L40.4,16.4L40.4,16.4L40.4,16.4z M39,16.1c0,0,0.1,0,0.2,0l0,0
		C39.2,16.1,39.1,16.1,39,16.1L39,16.1z M37,15.6L37,15.6L37,15.6L37,15.6z M36.9,15.6L36.9,15.6c-0.1,0-0.1,0-0.2,0l0,0
		C36.8,15.5,36.9,15.6,36.9,15.6z M35.5,15.3C35.6,15.3,35.6,15.3,35.5,15.3C35.6,15.3,35.6,15.3,35.5,15.3
		C35.6,15.3,35.6,15.3,35.5,15.3L35.5,15.3z M34.5,15.2C34.6,15.2,34.6,15.2,34.5,15.2C34.6,15.2,34.5,15.2,34.5,15.2L34.5,15.2z
		 M31,15.5c0.2-0.1,0.4-0.1,0.6-0.2l0,0C31.4,15.4,31.2,15.5,31,15.5L31,15.5C31,15.6,31,15.6,31,15.5z M28.1,16.4L28.1,16.4
		L28.1,16.4L28.1,16.4L28.1,16.4z M22.9,17.4L22.9,17.4c0.1,0,0.4,0,0.6-0.1c0,0-0.1,0,0,0s0.4,0,0.5,0s0.1,0,0.2-0.1h0.1
		c0.3,0,0.8-0.1,1.2-0.2h0.1c0,0-0.1,0,0,0c0.3-0.1,0.6-0.1,0.9-0.2l0,0c-0.2,0-0.4,0.1-0.6,0.1h-0.1c-0.1,0-0.1,0-0.2,0l0,0h-0.1
		c-0.3,0.1-0.6,0.1-0.9,0.2c0,0,0,0-0.1,0c-0.2,0-0.4,0.1-0.6,0.1c0,0,0,0-0.1,0c-0.4,0.1-0.8,0.1-1.2,0.1c0,0,0,0-0.1,0
		c-0.4,0-0.8,0.1-1.3,0.1C21.9,17.5,22.4,17.5,22.9,17.4z M19.5,17.5c0.2,0,0.4,0,0.6,0c-0.2,0-0.5,0-0.7,0l0,0
		C19.3,17.5,19.3,17.5,19.5,17.5z M15.9,17.8L15.9,17.8L15.9,17.8L15.9,17.8C15.8,17.8,15.9,17.8,15.9,17.8z M14.9,20.9L14.9,20.9
		C14.9,20.8,14.9,20.8,14.9,20.9L14.9,20.9H15l0,0H14.9z M36,16.3L36,16.3L36,16.3L36,16.3z M15.5,17.1
		C15.5,17.1,15.4,17.1,15.5,17.1C15.4,17.1,15.3,17.1,15.5,17.1z M15.3,17.1C15.4,17.1,15.4,17.1,15.3,17.1
		C15.4,17.1,15.4,17.1,15.3,17.1z M32.3,16.9c-0.1,0-0.3,0-0.6,0.1C32.6,16.8,31.3,17,32.3,16.9z M15,20.7L15,20.7L15,20.7L15,20.7z
		 M52.6,16.7L52.6,16.7L52.6,16.7L52.6,16.7z M29.9,24c0.2,0,0.3-0.1,0.4-0.1c0,0,0,0-0.1,0L29.9,24z M30.4,17.2
		c0.1,0,0.4-0.1,0.3-0.1C30.6,17.2,30,17.3,30.4,17.2z M47.5,16.5L47.5,16.5C47.4,16.5,47.4,16.5,47.5,16.5L47.5,16.5z M49.6-0.6
		L49.6-0.6C49.6-0.6,49.6-0.7,49.6-0.6C49.6-0.7,49.6-0.6,49.6-0.6z M49.6-0.6L49.6-0.6L49.6-0.6L49.6-0.6z M49.5-0.6L49.5-0.6
		C49.6-0.6,49.6-0.6,49.5-0.6C49.6-0.6,49.6-0.6,49.5-0.6z M49.9-0.9c-0.1,0.1-0.1,0.1-0.2,0.2C49.7-0.7,49.8-0.8,49.9-0.9
		C49.8-0.8,49.9-0.9,49.9-0.9z M63.3,10L63.3,10L63.3,10L63.3,10z M53.1,15.2L53.1,15.2L53.1,15.2L53.1,15.2z"/>
	<g>
		<g>
			<path class="st1" d="M47.3,29.5c0.1-0.1,0.3-0.1,0.4-0.1c0.2,0.1,0.3,0.2,0.5,0.5c0.1,0.3,0.3,0.6,0.4,1c0.1,0.3,0.1,0.4,0.1,0.5
				s0,0.2-0.1,0.3c-0.1,0.2-0.4,0.4-1,0.7c-0.4,0.2-0.7,0.4-0.8,0.4c-0.1,0.1-0.2,0.2-0.3,0.5c-0.2,0.3-0.3,0.6-0.3,0.8l-0.1,0.3
				l0.3-0.1c0.2-0.1,0.4-0.2,0.7-0.4c0.2-0.2,0.5-0.3,0.8-0.4c0.3-0.1,0.6-0.2,0.8-0.2c0.4,0,0.9,0.1,1.5,0.4c0.6,0.3,1,0.6,1.3,1
				c0.4,0.6,0.6,1.2,0.6,2c0,0.4,0,0.9-0.1,1.5c-0.1,0.5-0.1,0.8-0.2,0.9c-0.1,0.1-0.1,0.2-0.2,0.4c0,0.2-0.1,0.4-0.3,0.6
				c-0.2,0.2-0.3,0.4-0.5,0.6c-0.2,0.1-0.3,0.2-0.2,0.3c0,0.1,0.1,0.2,0.3,0.2c0.5,0.2,0.7,0.4,0.6,0.7c0,0.1-0.1,0.2-0.2,0.2
				c-0.1,0.1-0.3,0.1-0.7,0.3c-0.5,0.2-0.8,0.3-0.9,0.4c-0.1,0.1-0.1,0.1,0,0.3c0,0.1,0.1,0.1,0.1,0.2c0,0,0.1,0,0.2,0
				c0.2,0,0.5,0.1,0.9,0.3c0.3,0.2,0.5,0.4,0.6,0.5c0,0.1-0.3,0.5-0.9,1.2c-0.7,0.7-1,1.2-1.1,1.4c-0.1,0.3-0.2,0.5-0.4,0.6
				c-0.1,0.1-0.2,0.2-0.4,0.2c-0.1,0-0.3,0.1-0.5,0.1l0,0c0.1,0,0.2,0,0.4,0c0.4,0,0.7,0,1,0c0.2,0,0.6,0.1,0.9,0.2
				c0.5,0.2,0.8,0.3,0.9,0.3c0.1,0.1,0.2,0.2,0.1,0.3c0,0.1,0,0.2,0,0.3c0.1,0.1,0,0.2-0.2,0.4L51,49.4h-1c-0.7,0-1.4,0.1-2.2,0.2
				c-1.5,0.2-2.4,0.2-2.7,0C45,49.5,45,49.5,45,49.4s0-0.2,0-0.3c0.1-0.2,0.1-0.4,0.1-0.4c0-0.1,0.2-0.3,0.5-0.6s0.5-0.5,0.7-0.7
				c0.2-0.1,0.3-0.2,0.3-0.3c0,0,0-0.1-0.1-0.2c-0.1-0.1-0.2-0.2-0.3-0.4s-0.2-0.4-0.3-0.7s-0.1-0.5-0.1-0.6
				c0.1-0.1,0.3-0.3,0.6-0.5c0.4-0.3,0.9-0.5,1.4-0.7c0.4-0.2,0.6-0.3,0.6-0.3c0.1-0.1,0.1-0.1,0.1-0.3c0-0.1,0-0.2-0.1-0.2
				c0,0-0.1,0-0.3,0s-0.4,0.1-0.6,0.2c-0.2,0.1-0.3,0.2-0.4,0.2c-0.1,0-0.4,0.1-0.9,0.4c-0.5,0.2-1,0.5-1.3,0.7
				c-0.6,0.3-1,0.6-1.2,0.7c-0.2,0.1-0.4,0.1-0.6,0.1c-0.4,0-0.6-0.1-0.6-0.2c-0.1-0.1,0.1-0.4,0.3-0.6c0.2-0.2,0.4-0.4,0.4-0.6
				c0.1-0.2,0.1-0.3,0.2-0.3c0.1-0.1,0.2-0.1,0.5-0.2c0.6-0.2,1-0.4,1.4-0.9c0.2-0.2,0.4-0.4,0.5-0.5L46,42l0,0.1
				c-0.1,0.2-0.2,0.3-0.2,0.4c0,0,0.1,0,0.3-0.1s0.3-0.2,0.5-0.3c0.3-0.2,0.2-0.3-0.1-0.4c-0.1,0-0.4-0.3-0.7-0.6
				c-0.4-0.4-0.6-0.7-0.8-0.9c-0.2-0.1-0.5-0.2-0.8-0.3c-0.2,0-0.4-0.1-0.5-0.1s-0.2-0.1-0.3-0.3c-0.3-0.4-0.5-0.7-0.5-0.9
				c0-0.1,0-0.3-0.1-0.5c-0.1-0.1-0.1-0.2-0.1-0.3s0-0.1,0.1-0.2c0.3-0.5,0.6-1.2,1-2.1c0.2-0.5,0.5-1.3,1.1-2.3
				c0.5-1.1,0.9-1.8,1.2-2.1c0.3-0.4,0.4-0.6,0.4-0.6c0-0.1,0-0.1,0.1-0.2s0.2-0.2,0.4-0.4C47.1,29.7,47.2,29.6,47.3,29.5z
				 M49.4,34.5c-0.4-0.2-0.8-0.2-1.1-0.1c-0.3,0.1-0.7,0.3-1.1,0.7c-0.4,0.4-0.8,0.6-1.1,0.7c-0.2,0.1-0.4,0.1-0.4,0.2
				c-0.1,0.1-0.2,0.1-0.2,0.3c-0.1,0.2-0.1,0.3-0.1,0.5s0.1,0.2,0.2,0.2c0.1,0,0.4-0.1,0.9-0.3c1-0.3,1.7-0.4,2-0.4
				c0.1,0,0.4,0.2,0.7,0.4c0.3,0.3,0.5,0.4,0.5,0.6c0,0.1,0,0.3-0.2,0.5s-0.3,0.4-0.3,0.5s-0.1,0.2-0.2,0.2
				c-0.1,0.1-0.2,0.1-0.2,0.2c0,0.1-0.2,0.3-0.6,0.8c-0.4,0.5-0.6,0.8-0.6,0.8s0.2,0,0.4-0.1s0.5-0.2,0.6-0.3
				c0.3-0.2,0.5-0.4,0.7-0.6c0.2-0.2,0.4-0.5,0.6-0.9c0.4-0.8,0.7-1.6,0.7-2.2C50.6,35.4,50.2,34.8,49.4,34.5z M48.4,38.3
				C48.4,38.2,48.3,38.2,48.4,38.3c-0.1-0.1-0.3-0.1-0.5,0c-0.3,0.1-0.8,0.4-1.4,0.8c-0.2,0.1-0.4,0.2-0.6,0.3
				c-0.2,0-0.3,0.1-0.3,0.1c0,0.1,0.1,0.2,0.3,0.4s0.4,0.3,0.6,0.4c0.5,0.3,0.8,0.3,0.8,0.1c0-0.1,0.1-0.3,0.2-0.4
				c0.2-0.2,0.3-0.5,0.5-0.9C48.3,38.5,48.4,38.3,48.4,38.3z M46.4,46.3C46.5,46.3,46.5,46.3,46.4,46.3
				C46.5,46.2,46.5,46.2,46.4,46.3C46.3,46.2,46.3,46.2,46.4,46.3C46.3,46.2,46.3,46.3,46.4,46.3z M48.6,44.9
				c-0.1-0.1-0.3-0.1-0.7,0.1c-0.3,0.1-0.5,0.3-0.6,0.4c-0.1,0.1-0.1,0.2-0.1,0.4s0.1,0.3,0.2,0.3c0.2,0.2,0.4,0.2,0.7,0
				s0.4-0.4,0.5-0.8C48.6,45.1,48.6,45,48.6,44.9z"/>
			<path class="st1" d="M43.9,51.2c0-0.7,0.1-1,0.2-1c0.1,0,0.1,0.1,0.3,0.2c0.3,0.3,0.5,1,0.6,2c0,0.5,0.1,0.8,0.1,0.8
				c0.1,0,0.2-0.1,0.4-0.2c0.2-0.1,0.6-0.3,1-0.4c0.5-0.2,1.6-0.5,3.3-1.1c0.4-0.1,0.6-0.1,0.8-0.1s0.5,0.1,0.9,0.3s0.8,0.4,1,0.6
				c0.2,0.2,0.3,0.4,0.3,0.6c0,0.2,0,0.4-0.1,0.6c-0.1,0.2-0.2,0.4-0.3,0.5c-0.1,0.2-0.4,0.4-0.7,0.6c-0.3,0.2-0.5,0.3-0.7,0.3
				s-0.5,0.2-1,0.4s-0.8,0.4-1,0.4s-0.4,0.1-0.5,0.2c-0.2,0.1-0.2,0.2-0.2,0.4c0,0.1,0,0.1,0.1,0.1s0.4-0.1,1-0.2
				c0.4-0.1,0.7-0.2,0.9-0.4c0.2-0.1,0.3-0.2,0.4-0.2c0.1,0,0.5,0.2,1,0.5c0.5,0.4,0.8,0.6,0.9,0.8c0.1,0.2,0.2,0.4,0.2,0.7
				s0,0.5-0.1,0.7c-0.1,0.1-0.3,0.3-0.7,0.6s-0.7,0.4-0.8,0.4s-0.3,0.1-0.6,0.2c-0.3,0.1-0.5,0.2-0.7,0.4c-0.2,0.1-0.3,0.2-0.4,0.3
				c-0.2,0.1-0.2,0.2,0.2,0.4c0,0,0.1,0,0.1,0.1c0.3,0.1,0.5,0.2,0.5,0.3c0.1,0.1,0.1,0.2,0.2,0.5c0,0.2,0,0.4,0,0.5
				s-0.1,0.2-0.2,0.2c-0.1,0-0.3,0-0.6,0c-0.9,0-1.4,0.1-1.5,0.4c-0.1,0.1,0,0.2,0,0.2c0.1,0,0.4,0.1,0.9,0.3c0.8,0.2,1.1,0.5,1,0.7
				c-0.1,0.1-0.3,0.2-0.8,0.4s-0.8,0.3-0.9,0.5c-0.1,0.1-0.2,0.5-0.3,1.1c-0.1,0.7-0.1,1-0.1,1.1s0.2,0.1,0.6,0
				c0.4,0,0.6-0.1,0.7-0.2c0.1-0.1,0.2-0.2,0.2-0.4c0-0.7,0.3-1.3,1-1.7l0.3-0.2l0.7,0.2c0.4,0.1,0.7,0.3,1,0.5
				c0.2,0.2,0.3,0.4,0.3,0.5s-0.2,0.2-0.4,0.2s-0.4,0-0.6-0.1c-0.2-0.1-0.4-0.1-0.7-0.1s-0.5,0-0.6,0c-0.1,0.1-0.1,0.2-0.2,0.4
				c0,0.1,0,0.2,0,0.3c0,0.1,0.1,0.2,0.2,0.3c0.2,0.2,0.5,0.4,0.8,0.5c0.6,0.2,0.9,0.5,1,1c0,0.2,0,0.3-0.2,0.4
				c-0.3,0.2-0.8,0.2-1.6,0.1c-0.4-0.1-0.9-0.1-1.3-0.1c-0.4,0-1.1,0-2,0.1s-1.6,0.2-2.1,0.3c-0.7,0.2-1.3,0.2-1.8,0.2
				c-0.5-0.1-0.8-0.2-1-0.5c-0.2-0.2-0.2-0.4-0.1-0.6c0.1-0.2,0.2-0.2,0.4-0.2c0.3,0.1,0.8,0.1,1.5-0.1s1.1-0.4,1.5-0.7
				c0.3-0.3,0.6-0.6,0.7-1c0.1-0.4,0.2-0.6,0.2-0.6s-0.2,0-0.4,0.2c-0.8,0.5-1.3,0.7-1.5,0.7s-0.3-0.1-0.4-0.3
				c-0.1-0.2-0.2-0.4-0.2-0.6c0-0.4,0.1-0.7,0.3-0.8c0.1-0.1,0.2,0,0.2,0.2c0,0,0,0,0,0.1c0,0.2,0.1,0.3,0.3,0.3s0.5-0.1,1-0.4
				c0.4-0.2,0.7-0.4,0.8-0.5s0.2-0.3,0.1-0.5c-0.1-0.2-0.7-0.2-1.9,0c-0.5,0.1-0.9,0.2-1.2,0.2c-0.2,0-0.4,0-0.5,0s-0.2-0.1-0.3-0.2
				c-0.1-0.1-0.2-0.3-0.2-0.4c0-0.1,0-0.2,0.1-0.4c0.1-0.1,0.2-0.2,0.2-0.3c0.1,0,0.2,0,0.4,0c0.3,0,0.7-0.1,1.3-0.3
				s0.9-0.5,0.9-0.7c0-0.1,0-0.3-0.2-0.5c-0.2-0.3-0.3-0.5-0.5-0.6c-0.3-0.2-0.5-0.4-0.6-0.4c-0.2,0-0.4,0-0.7,0.2
				c-0.4,0.2-0.6,0.4-0.8,0.6c-0.2,0.2-0.3,0.3-0.3,0.3c-0.1,0-0.2-0.1-0.5-0.4c-0.2-0.2-0.3-0.4-0.4-0.6c0-0.2,0-0.5,0.1-1
				c0.1-0.4,0.2-0.6,0.3-0.8c0.1-0.1,0.2-0.2,0.3-0.2s0.2,0,0.4,0.1s0.5,0.2,0.9,0.3l0.7,0.2l0.7-0.4c0.6-0.3,1-0.6,1.2-0.8
				c0.1-0.2,0.1-0.5,0-0.8c-0.1-0.2-0.2-0.5-0.2-0.9s0-0.6,0-0.7c0.1-0.2,0.5-0.3,1.2-0.5c0.1,0,0.3-0.1,0.6-0.4
				c0.3-0.2,0.6-0.5,0.9-0.7c0.3-0.2,0.4-0.4,0.4-0.4s-0.6,0.1-1.8,0.6c-1.1,0.4-1.8,0.7-2,0.8c-0.7,0.5-1.3,1.1-1.5,1.8
				c-0.1,0.2-0.2,0.4-0.3,0.5l-0.2,0.2L43,57c-0.1-0.2-0.3-0.3-0.5-0.5c-0.1-0.1-0.2-0.2-0.3-0.3c0-0.1-0.1-0.3-0.1-0.6v-0.7
				l0.4-0.5C43.5,53.4,43.8,52.4,43.9,51.2z M46.3,58.7c0-0.1,0-0.2-0.1-0.2s-0.2,0.1-0.3,0.2c-0.2,0.2-0.3,0.3-0.1,0.4
				c0.1,0,0.2,0,0.3-0.1C46.3,59,46.3,58.9,46.3,58.7z M50.1,56.8L50.1,56.8c-0.8,0-1.3,0.1-1.5,0.3c-0.3,0.1-0.4,0.3-0.5,0.6
				C48,57.8,48,58,47.9,58.4c0,0.3-0.1,0.6-0.1,0.8s0,0.3,0.1,0.4c0.1,0,0.3-0.2,0.6-0.5c0.4-0.4,0.8-0.8,1.2-1.3
				C50,57.2,50.2,56.9,50.1,56.8z"/>
		</g>
		<path class="st1" d="M61.6,39.4c0.1-0.1,0.3-0.1,0.7-0.1s0.7,0.1,0.9,0.1c0.3,0.1,0.5,0.2,0.6,0.3s0.4,0.3,0.8,0.5
			c0.3,0.1,0.6,0.3,0.9,0.6c0.3,0.2,0.4,0.5,0.5,0.7c0.2,0.4,0.2,0.7,0.3,0.9c0,0.2,0,0.4-0.1,0.6c-0.1,0.3-0.1,0.5-0.1,0.7
			c0.1,0.5,0.1,0.9,0,1.2c0,0.2,0,0.8,0,1.8c0,2.1,0,3.2-0.1,3.4c-0.1,0.3-0.1,0.9,0,2c0.2,1.5,0.3,2.7,0.4,3.6c0,0.4,0,0.7,0,0.8
			s-0.1,0.2-0.1,0.2c-0.1,0-0.2,0-0.4-0.1c-0.2-0.1-0.3-0.1-0.5,0c-0.1,0-0.2,0-0.2,0c-0.1,0-0.2-0.1-0.3-0.2
			c-0.2-0.2-0.3-0.3-0.3-0.3s-0.1-0.2-0.4-0.5c-0.3-0.3-0.5-0.6-0.7-0.9c-0.2-0.3-0.4-0.6-0.7-0.9l-0.4-0.4l-0.7,0.1
			c-0.5,0.1-0.8,0.1-1,0.1s-0.4,0.1-0.4,0.1c-0.1,0-0.2,0.1-0.4,0.1c-1.4,0.2-2.4,0.4-2.9,0.4c-0.6,0-1,0-1.3-0.1L55.5,54v0.3
			c0,0.3-0.1,0.5-0.2,0.4c-0.1-0.1-0.2-0.1-0.3-0.1c-0.2,0-0.3,0-0.3-0.1c-0.1-0.1-0.2-0.3-0.4-0.6s-0.4-0.6-0.4-1
			c-0.1-0.4-0.1-0.6-0.2-0.8c-0.1-0.2-0.1-0.6-0.1-1.2c0-0.7,0.1-1.3,0.2-2c0.1-0.3,0.1-0.8,0.1-1.4c0-0.6,0.1-1,0.1-1.4
			c0.1-0.3,0.1-0.5,0.1-0.6s0,0,0.1,0c0.1,0.1,0.1,0.4,0.2,1.1c0,0.7,0.1,1.3,0,1.9c0,0.8,0,1.1,0,1c0.1-0.1,0.2-0.4,0.3-1.1
			c0.1-0.7,0.2-1.3,0.2-1.8c0.1-1.5,0.2-2.3,0.3-2.2c0,0,0.1,0.2,0.2,0.5c0.1,0.3,0.2,0.5,0.2,0.7c0,0.1,0,0.8,0.1,2.1
			c0,1.3,0,2.3-0.1,2.9c-0.2,1-0.3,1.6-0.3,2s0,0.6,0,0.7c0.1,0.1,0.3,0.1,0.6,0.1s1-0.2,2.2-0.5c1.6-0.4,2.4-0.6,2.5-0.7
			c0,0,0,0,0-0.1V52c0,0,0.1-0.1,0.2-0.1c0.1,0,0.2-0.1,0.3-0.1s0.3-0.1,0.4-0.1c0.1,0,0.2-0.1,0.2-0.1s0-0.1-0.1-0.2
			c-0.1-0.1-0.2-0.1-0.2-0.1c-0.1,0-0.3,0-0.6,0.1c-0.4,0.1-0.7,0.1-0.9,0.1s-0.3,0-0.4,0.1c-0.1,0.1-0.2,0.1-0.4,0.1
			s-0.4,0.1-0.6,0.2c-0.2,0.1-0.4,0.2-0.5,0.2c-0.2-0.1-0.4-0.5-0.7-1.3C57,50.6,57,50.5,57,50.4s0.1-0.2,0.2-0.4
			c0.1-0.3,0.3-0.5,0.4-0.5c0.1,0,0.4-0.3,0.6-0.8c0-0.1,0.1-0.1,0-0.2c0-0.1,0-0.1-0.1-0.2C58,48.1,57.9,48,57.7,48
			c-0.5-0.1-0.8-0.2-0.9-0.3c-0.1-0.1-0.2-0.2-0.2-0.3c0-0.2,0.2-0.5,0.6-0.9c0.4-0.4,0.8-0.6,1.3-0.8c0.4-0.1,0.6-0.2,0.7-0.3
			c0.1-0.1,0.1-0.3,0.1-0.5v-0.5h-0.6c-0.3,0-0.5,0-0.6,0s-0.2-0.1-0.4-0.2c-0.6-0.5-0.8-0.8-0.7-0.9c0,0,0.2-0.1,0.4-0.1
			c0.4,0,0.9-0.2,1.4-0.5c0.4-0.3,0.9-0.3,1.3-0.1c0.4,0.2,0.7,0.5,1,0.9l0.2,0.4L61,44.3c-0.2,0.3-0.2,0.6-0.2,0.8s0,0.3,0,0.4
			c0,0.1,0.1,0.1,0.2,0.2c0.3,0.2,0.5,0.5,0.7,1.1c0,0.1,0.1,0.2,0.2,0.2c0.1,0.1,0.2,0.1,0.5,0.2c0.4,0.1,0.7,0.3,0.8,0.4
			c0.1,0.1,0.3,0.3,0.4,0.5c0.2,0.3,0.3,0.4,0.3,0.4c0-0.1,0-0.3,0-0.8c0-0.4,0-0.9,0-1.5s-0.1-0.9-0.1-1c-0.1-0.2-0.1-0.4,0-0.6
			c0-0.2,0-0.3,0-0.4c-0.1-0.1-0.1-0.5-0.1-1s-0.1-0.9-0.2-1.2c-0.1-0.4-0.2-0.6-0.4-0.6c-0.1,0-0.2-0.1-0.2-0.1
			c0-0.1-0.3-0.1-0.8-0.1s-0.9,0-1.2,0c-0.4,0.1-0.7,0.1-0.8,0.1c-0.2,0-0.5,0.1-0.8,0.1c-0.4,0.1-0.6,0.1-0.7,0.1
			c-0.1,0-0.2,0-0.5,0.1s-0.4,0.1-0.5,0.2c-0.2,0.1-0.5,0.2-0.9,0.2s-0.7-0.2-1.1-0.4c-0.2-0.1-0.4-0.2-0.6-0.3
			c-0.2-0.1-0.3-0.1-0.2-0.2c0.1-0.1,0.1-0.1,0.1-0.2c0-0.1,0-0.1,0-0.1c0.5,0,1.2-0.2,2.1-0.5c0.9-0.3,1.4-0.4,1.6-0.5
			c0.2-0.1,0.4-0.1,0.8-0.2c0.4-0.1,0.7-0.1,1-0.2c0.3-0.1,0.5-0.2,0.8-0.2C61.5,39.4,61.6,39.4,61.6,39.4z M54,43.8
			c0-0.1,0-0.2,0.1-0.2s0.1,0.3,0,0.8c0,0.5-0.1,0.8-0.1,0.8c-0.1,0.1-0.1,0-0.1-0.1s0-0.3,0-0.6C54,44.2,54,44,54,43.8z M58.8,47.3
			C58.9,47.3,58.9,47.3,58.8,47.3c0-0.1,0-0.2,0-0.2c-0.1,0-0.1,0-0.1,0.1C58.7,47.3,58.7,47.3,58.8,47.3z M61.9,47.9
			c-0.3-0.4-0.5-0.4-0.7-0.3c0,0-0.1,0.2-0.3,0.5c-0.1,0.2-0.1,0.4-0.2,0.4c0,0.1,0,0.2,0,0.3c0.1,0.2,0.1,0.3,0.2,0.4
			c0.1,0,0.2-0.1,0.5-0.3s0.5-0.4,0.6-0.5s0.1-0.2,0-0.2C62.2,48.2,62.1,48.1,61.9,47.9z M64,49.2c0-0.3-0.1-0.3-0.2-0.1
			c-0.1,0.1-0.2,0.1-0.3,0.2c-0.2,0.1-0.3,0.1-0.5,0s-0.3-0.1-0.4,0c0,0.1-0.1,0.1-0.3,0.1c-0.1,0-0.3,0-0.3,0.1
			c-0.1,0.1-0.1,0.2,0,0.4c0.1,0.1,0.2,0.2,0.3,0.3c0.1,0,0.3,0.2,0.4,0.4c0.1,0.3,0.1,0.5,0.1,0.6s0,0.2,0.1,0.3s0.1,0.2,0.2,0.2
			c0,0,0.1,0.1,0.2,0.2c0.1,0.1,0.2,0.2,0.4,0.3s0.3,0.1,0.3,0.1s0-0.2,0.1-0.5c0-0.4,0.1-0.5,0.1-0.6v-0.1c-0.1,0-0.1-0.3-0.1-0.7
			C64,49.6,64,49.3,64,49.2z"/>
		<path class="st1" d="M56.8,57.6c0.2-0.1,0.6-0.1,1.1-0.1c0.3,0,0.6,0,0.7,0c0.1,0,0.2,0.1,0.3,0.1c0.1,0.1,0.2,0.3,0.1,0.4
			c0,0.2-0.1,0.5-0.1,1c-0.1,0.5-0.2,1-0.3,1.5c-0.1,0.4-0.2,0.7-0.2,0.8s0,0.3,0,0.3s0,0,0.1,0h0.1c0,0,0.1-0.1,0.2-0.1
			c0.1-0.1,0.1-0.1,0.2-0.2c0.3-0.3,0.5-0.5,0.5-0.6c0.1-0.1,0.4-0.3,0.9-0.6c0.6-0.3,0.9-0.4,1.1-0.4c0.2,0,0.3,0,0.5,0
			c0.2-0.1,0.7-0.2,1.4-0.5c1-0.3,1.8-0.5,2.5-0.4s1,0.3,1,0.7c0,0.1-0.1,0.3-0.3,0.5c-0.2,0.2-0.4,0.3-0.6,0.4
			c-0.1,0.1-0.4,0.2-0.7,0.5c-0.2,0.2-0.5,0.4-1,0.7c-0.4,0.3-0.7,0.4-0.9,0.4c-0.1,0-0.2,0.1-0.4,0.2c-0.2,0.1-0.4,0.2-0.5,0.2
			h-0.2l0.2-0.2c0.7-0.6,1.1-0.9,1.1-1.1c0-0.1-0.1-0.1-0.4-0.1c-0.3,0-0.6,0.1-0.9,0c-0.3,0-0.5,0-0.6-0.1c-0.1,0-0.4-0.1-0.9-0.1
			c-0.5-0.1-0.9,0-1.1,0c-0.2,0.1-0.5,0.3-0.8,0.5c-0.3,0.3-0.5,0.4-0.5,0.6c0,0.1,0.1,0.5,0.3,1c0.3,0.5,0.4,1,0.4,1.3
			c0,0.5,0.2,0.8,0.5,0.8c0.1,0,0.6-0.2,1.4-0.6c1.2-0.6,1.9-0.9,1.9-1c0.1-0.1,0.2-0.1,0.4-0.2c0.2-0.1,0.5-0.2,1-0.5
			c0.3-0.2,0.6-0.3,0.7-0.3s0.4,0,0.7,0c0.5,0,0.9,0.1,1.2,0.2c0.2,0.1,0.4,0.3,0.4,0.6c0,0.2-0.1,0.4-0.3,0.5
			c-0.2,0.1-0.5,0.2-1,0.4c-0.6,0.2-1,0.3-1.2,0.3c-0.2,0.1-0.4,0.1-0.4,0.3c0,0.1,0,0.3,0.1,0.7c0.1,0.5,0.2,0.7,0.3,0.7
			c0.1,0,0.1,0,0.2,0.1c0,0,0,0.1-0.1,0.2c-0.1,0-0.1,0.3-0.1,0.7c0,0.4-0.1,1.6-0.2,3.6c0,0.7-0.1,1.1-0.1,1.3
			c0,0.2-0.1,0.4-0.2,0.5c-0.1,0.2-0.2,0.3-0.2,0.2c0-0.1-0.2-0.1-0.4,0c-0.2,0-0.4,0-0.5-0.1s-0.2-0.2-0.4-0.4
			c-0.1-0.2-0.3-0.5-0.5-0.8s-0.5-0.6-0.7-0.8l-0.3-0.3l-0.5,0.5c-0.5,0.5-0.9,0.8-1.2,0.8c-0.2,0-0.4,0-0.5-0.1
			c-0.2-0.1-0.3-0.2-0.3-0.3c-0.4-0.7-0.5-1.5-0.3-2.4c0-0.2,0.4-0.4,1.1-0.4c0.3,0,0.7-0.1,1.2-0.3c0.5-0.2,1-0.5,1.6-0.7l0.9-0.4
			v-0.8c0-0.5,0-0.8-0.1-0.9s-0.2-0.1-0.5-0.1c-0.2,0-0.7,0.1-1.3,0.3c-0.7,0.2-1.3,0.3-1.6,0.3h-0.5v0.5c0,0.4-0.1,0.7-0.2,0.9
			c-0.1,0.2-0.3,0.4-0.6,0.7c-0.3,0.3-0.5,0.4-0.5,0.4c-0.1,0-0.3-0.2-0.8-0.5c-0.4-0.4-0.7-0.5-0.8-0.5s-0.1,0.3-0.1,0.8
			s0,0.8-0.1,1s-0.1,0.8-0.1,1.7c0,0.9-0.1,1.4-0.1,1.4c-0.1,0-0.1,0.1-0.1,0.1c0,0.1,0,0.2-0.1,0.3c-0.1,0.1-0.2,0.2-0.3,0.2
			s-0.3,0-0.4,0.1c0,0.1-0.1,0.1-0.2,0.1s-0.3-0.1-0.5-0.4S54,72.2,54,72.1s0-0.3-0.1-0.5s-0.1-0.3-0.1-0.3s0-0.1,0.1-0.2
			s0.2-0.1,0.3-0.1c0.2,0,0.2-0.1,0.1-0.2c0-0.1-0.1-0.1-0.2-0.2c-0.1-0.1-0.2-0.1-0.2-0.2s0-0.3,0.1-0.6c0.2-1.5,0.4-2.6,0.4-3.1
			c0.1-0.6,0.1-1.2,0.1-1.9c0-0.7-0.1-1.3-0.1-1.7c-0.1-0.4-0.2-0.7-0.4-1c-0.1-0.1-0.1-0.3-0.1-0.5s0-0.3,0-0.3s-0.3,0.1-0.6,0.2
			c-0.2,0.1-0.4,0.1-0.6,0.1c-0.3,0-0.5,0.1-0.6,0.1c-0.2,0-0.3,0-0.3,0s0.2-0.1,0.5-0.3s0.7-0.5,1.2-1c0.9-0.8,1.8-1.6,2.8-2.4
			C56.4,57.7,56.6,57.6,56.8,57.6z M56.7,60.9v-0.5h-0.4c-0.7,0-1.3,0.2-1.8,0.5l-0.4,0.2l0.2,0.3c0.1,0.2,0.3,0.4,0.4,0.8
			c0.2,0.4,0.3,0.8,0.4,1.3c0.2,0.7,0.5,1.4,1,1.9l0.3,0.3l0.2-0.3l0.2-0.3v0.4v0.4l0.4,0.1c0.2,0.1,0.4,0.1,0.5,0
			c0.2-0.2,0.3-0.6,0.2-1.4c-0.1-0.8-0.3-1.4-0.7-1.9c-0.1-0.2-0.2-0.5-0.4-0.9C56.8,61.5,56.7,61.2,56.7,60.9z M56,66.3
			c0-0.1,0-0.2-0.1-0.3c-0.1,0-0.1,0-0.2,0c0,0,0,0-0.1,0.1s-0.1,0.3,0,0.7c0.1,0.3,0.1,0.5,0.2,0.5c0.1,0,0.2-0.1,0.2-0.2
			c0-0.2,0-0.3,0-0.4C56,66.5,56,66.4,56,66.3z M63,68.9c0-0.4,0-0.7,0-0.7c-0.1,0-0.2,0.1-0.4,0.4c-0.2,0.2-0.4,0.4-0.4,0.5
			c-0.1,0.2-0.1,0.4,0,0.5s0.3,0.2,0.5,0.2c0.1,0,0.2,0,0.3-0.1C63,69.5,63,69.3,63,68.9z M67,66.9c0.1-0.2,0.2-0.3,0.3-0.3
			c0.1,0,0.3,0.2,0.6,0.5c0.3,0.3,0.6,0.7,0.9,1.1l0.4,0.5L69,69.1c-0.1,0.3-0.1,0.6-0.3,0.9c-0.1,0.2-0.1,0.3-0.2,0.3
			s-0.1,0.1-0.3,0.1c-0.2,0-0.4,0-0.6,0s-0.4-0.1-0.7-0.1h-0.3l-0.1-0.6c-0.1-0.4-0.1-0.8-0.1-1c0-0.3,0-0.6,0.1-1
			C66.8,67.3,66.9,67.1,67,66.9z"/>
	</g>
</g>
</svg>
