<?xml version="1.0" encoding="utf-8"?>
<!-- Generator: Adobe Illustrator 21.0.0, SVG Export Plug-In . SVG Version: 6.00 Build 0)  -->
<svg version="1.1" id="图层_1" xmlns="http://www.w3.org/2000/svg" xmlns:xlink="http://www.w3.org/1999/xlink" x="0px" y="0px"
	 viewBox="0 0 100 100" style="enable-background:new 0 0 100 100;" xml:space="preserve">
<style type="text/css">
	.st0{fill:#62A8EA;}
	.st1{fill:#FFFFFF;}
</style>
<path class="st0" d="M80,100H20C9,100,0,91,0,80V20C0,9,9,0,20,0h60c11,0,20,9,20,20v60C100,91,91,100,80,100z"/>
<g>
	<path class="st1" d="M62,87.2c-0.3,0-0.6-0.1-0.9-0.3c-1.4-0.7-2.6-1.6-3.7-2.6c-1.1-1-1.9-2.1-2.5-3.1c-0.8-1.3-1.5-2.5-2-3.6
		c-0.6-1.1-1-2.3-1.4-3.4c-0.4-1.2-0.7-2.4-0.9-3.7c-0.2-1.3-0.5-2.8-0.6-4.6c0-0.4-0.1-1.1,0-1.7c-0.6,0.6-1.4,1.3-2.3,2.3
		c-0.7,0.7-1.2,1.3-1.7,1.7c-0.4,0.4-0.7,0.8-1,1.1c-0.3,0.5-1,1.8-2.3,1.8c-0.1,0-0.3,0-0.4,0c-1.3-0.3-1.8-2.1-2.1-3.6
		c-0.1-0.8-0.2-1.4-0.2-1.9c0-0.5,0-1,0.1-1.5c0.1-0.5,0.2-0.9,0.5-1.3c0.2-0.4,0.5-0.8,0.9-1.2c0.9-1.1,2-2.4,3-3.9
		c1.1-1.5,2.2-3,3.3-4.6c1.1-1.7,2.2-3.3,3.3-5c1.1-1.7,2.1-3.4,3-5c0.7-1.2,1.3-2.3,1.8-3.2c0.5-0.9,0.9-1.7,1.2-2.5
		c0.3-0.8,0.7-1.6,1-2.4c0.1-0.3,0.2-0.6,0.3-1c-0.6,0.3-1.3,0.7-2,1.2c-1.2,0.8-2.6,1.7-4.1,2.9c-1.5,1.2-2.9,2.5-4.1,3.9
		c-1.1,1.2-2.1,2-3,2.5c-0.9,0.5-2.1,0.8-3.4,0.9c-1,0.1-1.8,0.3-2.5,0.4c-0.6,0.1-1.1,0.4-1.7,0.9c-0.5,0.4-0.9,0.7-1.3,1.1
		c-0.4,0.4-0.7,0.9-1,1.5c-0.3,0.6-0.7,1.5-1,2.4c-0.3,1-0.7,2.2-1.1,3.7c-0.3,1.4-0.6,2.9-0.8,4.6c-0.3,1.7-0.7,3.7-1.1,6
		c-0.2,1.4-0.4,2.5-0.6,3.5c-0.2,0.9-0.3,1.8-0.4,2.5c-0.1,0.7-0.2,1.5-0.3,2.3c-0.1,0.7-0.1,1.7-0.1,2.7c0.1,2.1-0.2,3.2-1,3.7
		c-0.2,0.1-0.5,0.2-0.8,0.2c-0.7,0-1.5-0.5-2.5-1.6c-1.1-1.3-2.2-3.1-3.2-5.7c-0.4-0.9-0.6-2.2-0.7-3.7c-0.1-1.5,0-3,0.1-4.4
		c0.2-1.4,0.4-3.2,0.5-5.1c0.1-2,0.2-4.2,0.3-6.4c0.1-1.3,0.1-2.4,0-3.2c0-0.8-0.1-1.5-0.3-2c-0.2-0.6-0.4-1.1-0.6-1.5
		c-0.1-0.2-0.2-0.4-0.3-0.6c-0.3,0.4-0.6,0.7-0.8,1.1c-0.6,0.7-1.2,1.4-1.8,2.3c-1.5,1.8-2.1,2.2-2.6,2.4c-0.1,0-0.3,0.1-0.4,0.1
		c-1,0-1.6-1.1-2-2c-0.8-2,0-4.3,2.6-6.7c1.7-1.5,3.1-2.9,4.4-4.3c1.2-1.3,2.4-2.7,3.4-4c1-1.3,1.9-2.7,2.7-4
		c0.8-1.3,1.7-2.8,2.5-4.2c0.3-0.7,0.6-1.2,0.8-1.7c0.2-0.3,0.2-0.7,0.2-1c0-0.3-0.1-0.6-0.2-1c-0.2-0.4-0.5-1-0.9-1.7
		c-0.4-0.6-1.4-2.1-0.5-3.1c0.2-0.3,0.6-0.5,1-0.5c0.6,0,1.4,0.4,2.7,1.4c2.1,1.6,3.4,3.2,3.9,4.7c0.7,2.1,0,3.4-0.7,4
		c-0.5,0.4-1.6,1.5-3.6,4.3c-1.4,2-2.8,3.9-4.1,5.6c-1.1,1.5-2.3,3-3.5,4.6c1.9,1.7,3.1,3.1,3.6,4.2c0.6,1.3,0.7,2.6,0.3,3.8
		c-0.2,0.7-0.4,1.4-0.5,2.2c-0.1,0.9-0.2,1.9-0.3,3.1c-0.3,2.6-0.5,4.7-0.5,6.3c-0.1,1.6-0.1,3.2,0,4.6c0,0.1,0,0.2,0,0.3
		c0-0.1,0.1-0.2,0.1-0.3c0.8-2.9,1.5-5.3,2.1-7.1c0.5-1.8,0.9-3.2,1.2-4.2c0.7-2.9,1.5-5.3,2.3-7.1c0.9-1.8,2.2-3.4,3.9-4.7
		c4-3,8.1-6,12.1-8.8c3.9-2.7,7.7-5.1,11.3-7.1c0-0.8,0.1-1.7,0.1-2.5c0.1-1,0.2-2.1,0.3-3.2c0.1-1.6-0.1-2.8-0.7-3.7
		c-0.4-0.5-1.4-1.3-4.1-1.6c-0.7-0.1-1.6-0.3-2.1-1c-0.2-0.4-0.3-0.9-0.1-1.4c0.4-1,1.7-1.5,4.4-1.6c0,0,0,0,0,0
		c1.1,0,2.1,0.1,3,0.4c0.9,0.3,1.8,0.7,2.6,1.2c0.8,0.5,1.5,1.2,1.9,1.9c0.5,0.8,0.7,1.7,0.6,2.7c-0.1,1.4-0.2,2.7-0.3,3.9
		c0,0.6-0.1,1.2-0.1,1.8c1.8-0.9,3.2-1.5,4.1-1.7c0.8-0.2,1.4-0.3,1.9-0.3c0.5,0,0.9,0.1,1.2,0.3c1,0.5,2.1,1.1,2.1,2.2
		c0,1-0.9,1.7-1.6,2.1c-0.7,0.4-1.4,0.8-2,1.2c-0.6,0.4-1.3,0.7-2,1.1c-0.7,0.3-1.4,0.7-2.1,1c-0.6,0.3-1.3,0.6-2.1,0.9
		c-0.2,2.5-0.3,4.8-0.4,6.9c-0.1,2.3-0.2,4.7-0.3,7.1c-0.1,2.4-0.1,4.8-0.1,7.4c0,2.1,0,4.4,0.1,6.9c0.8-0.4,1.6-0.8,2.1-1.3
		c1.1-1,2.1-1.8,3-2.3c0.9-0.6,1.8-1,2.6-1.3c0.8-0.3,1.7-0.5,2.5-0.5c0.8-0.1,1.5-0.1,2.2-0.1c2.2,0.1,4.1,0.8,5.8,2.1
		c1.7,1.3,2.9,3,3.7,5.1c0.7,1.7,0.7,3.5-0.1,5.1c-0.8,1.7-2.2,2.8-4.3,3.2c-0.5,0.1-0.9,0.2-1.4,0.2c-0.5,0-0.9-0.1-1.2-0.2
		c-0.8-0.3-1.3-0.6-1.6-1.1c-0.4-0.6-0.5-1.2-0.3-1.9c0.1-0.4,0.5-1.1,1.5-1.4c1.1-0.4,1.7-1,1.9-1.6c0.2-0.8,0.1-1.7-0.2-2.7
		c-0.5-1.2-1.1-2.2-1.9-2.9c-0.7-0.6-1.4-0.9-2.1-0.9l-0.2,0c-1.3,0.1-2.5,0.5-3.6,1.1c-1.1,0.6-2.4,2-3.9,4.1
		c-0.6,0.8-1.4,1.5-2.4,1.9c-0.7,0.3-1.5,0.6-2.2,0.8c0.1,2,0.1,4.2,0.2,6.6c0.1,2.6,0.1,5.6,0.3,8.8c0.1,2.7-0.2,4.4-0.8,5.4
		C63.7,86.1,63.1,87.2,62,87.2z M51.8,63c0.5,0.1,0.9,0.5,1.1,1.6c0.6,2.7,1.3,5,2.3,6.8c0.9,1.8,2.1,3.7,3.5,5.6
		c0.2,0.2,0.3,0.3,0.4,0.4c0.1-0.6,0.1-1.3,0.2-2.2c0.1-1,0.1-2.2,0.1-3.4c0-1.3,0-2.5,0-3.8v-2.8c-1.8-0.2-3.4-0.9-4.7-2
		c-0.5-0.4-1-0.6-1.5-0.6c-0.3,0-0.6,0-0.9,0.1C52.2,62.8,52,62.9,51.8,63z M53.7,58.2c1.4,0,2.6,0.4,3.6,1.1
		c0.7,0.4,1.3,0.7,2.1,0.9c-0.2-3.5-0.3-6.9-0.3-10c0-1.9,0-3.8,0.1-5.8c-0.2,0.3-0.4,0.6-0.6,0.9c-1.2,1.9-2.3,3.7-3.3,5.3
		c-1,1.6-2.1,3.3-3.3,5.1c-0.5,0.7-1,1.5-1.5,2.5c-0.1,0.2-0.3,0.5-0.4,0.7c0.8-0.3,1.7-0.5,2.5-0.6C52.9,58.2,53.3,58.2,53.7,58.2z
		"/>
	<path class="st1" d="M85.3,61.6c0.6,1.5,0.6,3,0,4.4s-1.8,2.3-3.6,2.7c-0.8,0.2-1.5,0.2-2.1,0s-0.9-0.4-1.1-0.7
		c-0.2-0.3-0.3-0.6-0.1-1c0.1-0.4,0.4-0.6,0.9-0.8c1.4-0.5,2.2-1.3,2.5-2.3c0.3-1,0.2-2.1-0.3-3.4c-0.5-1.4-1.3-2.5-2.2-3.3
		c-0.9-0.8-1.9-1.2-3-1.1c-1.4,0.1-2.8,0.5-4,1.3c-1.2,0.7-2.6,2.2-4.2,4.4c-0.5,0.7-1.2,1.2-2,1.6c-0.9,0.4-1.8,0.7-2.8,0.9
		c0.1,2.3,0.1,4.7,0.2,7.4s0.1,5.6,0.3,8.8c0.1,2.4-0.2,4-0.6,4.8c-0.5,0.8-0.9,1.1-1.4,0.8c-1.3-0.7-2.5-1.5-3.5-2.4
		c-1-1-1.8-1.9-2.3-2.9c-0.8-1.3-1.4-2.5-2-3.6c-0.5-1.1-1-2.2-1.4-3.3c-0.4-1.1-0.7-2.3-0.9-3.6c-0.2-1.3-0.5-2.8-0.6-4.5
		c-0.1-1.1,0-1.7,0.3-1.8c0.3-0.1,0.5,0.2,0.6,0.8c0.6,2.8,1.4,5.2,2.3,7.1c1,1.9,2.2,3.8,3.6,5.8c0.5,0.7,1,1,1.4,1
		c0.4,0,0.6-0.3,0.8-0.9c0.1-0.6,0.1-1.4,0.2-2.5c0.1-1,0.1-2.2,0.1-3.5c0-1.3,0-2.5,0-3.9c0-1.3,0-2.5,0-3.7c-2-0.1-3.7-0.7-5-1.8
		c-1-0.8-2.1-1-3.3-0.6c-1.3,0.4-2.9,1.7-5,4c-0.7,0.7-1.2,1.2-1.7,1.7c-0.4,0.5-0.8,0.9-1.1,1.3c-0.5,1-1.1,1.5-1.7,1.4
		s-1-1-1.3-2.8c-0.1-0.7-0.2-1.3-0.2-1.8c0-0.5,0-0.9,0-1.3c0.1-0.4,0.2-0.7,0.4-1c0.2-0.3,0.5-0.7,0.8-1.1c1-1.1,2-2.4,3.1-3.9
		c1.1-1.5,2.2-3,3.3-4.7c1.1-1.7,2.2-3.3,3.3-5s2.1-3.4,3.1-5c0.7-1.3,1.3-2.3,1.8-3.2c0.5-0.9,0.9-1.8,1.3-2.6s0.7-1.6,1-2.4
		c0.3-0.8,0.6-1.7,0.9-2.7c0.1-0.2-0.2-0.2-1,0.1c-0.8,0.3-1.8,0.8-3.1,1.6c-1.3,0.8-2.7,1.8-4.2,3c-1.5,1.2-3,2.6-4.3,4
		c-1,1.1-1.9,1.8-2.7,2.2c-0.8,0.4-1.8,0.7-3,0.8c-1,0.1-1.9,0.3-2.6,0.5c-0.7,0.2-1.4,0.5-2.1,1.1c-0.5,0.4-0.9,0.8-1.3,1.2
		c-0.4,0.5-0.8,1-1.2,1.7c-0.4,0.7-0.7,1.5-1.1,2.6c-0.4,1-0.7,2.3-1.1,3.8c-0.3,1.4-0.6,3-0.9,4.6c-0.3,1.7-0.6,3.6-1.1,6
		c-0.2,1.4-0.5,2.5-0.6,3.5c-0.2,0.9-0.3,1.8-0.4,2.6c-0.1,0.8-0.2,1.6-0.3,2.3c-0.1,0.8-0.1,1.7-0.1,2.8c0.1,1.6-0.1,2.5-0.5,2.8
		c-0.4,0.2-1.1-0.2-2.1-1.2c-1-1.1-2-2.9-3-5.4c-0.4-0.8-0.6-2-0.7-3.4c-0.1-1.4,0-2.8,0.1-4.2c0.2-1.4,0.4-3.2,0.5-5.2
		c0.1-2,0.2-4.2,0.3-6.5c0.1-1.3,0.1-2.4,0-3.3c0-0.9-0.1-1.6-0.3-2.2s-0.4-1.2-0.7-1.8c-0.3-0.5-0.7-1.1-1.1-1.7l-0.1-0.1
		c-0.5,0.7-1.1,1.4-1.7,2.1c-0.6,0.7-1.2,1.5-1.8,2.3c-1.1,1.3-1.8,2-2.2,2.1c-0.4,0.1-0.8-0.3-1.2-1.4c-0.7-1.6,0.1-3.5,2.3-5.6
		c1.7-1.5,3.1-2.9,4.4-4.3c1.3-1.4,2.4-2.7,3.4-4.1c1-1.4,1.9-2.7,2.8-4c0.8-1.4,1.7-2.8,2.5-4.3c0.4-0.7,0.6-1.3,0.9-1.8
		c0.2-0.5,0.3-0.9,0.3-1.4s-0.1-0.9-0.3-1.4c-0.2-0.5-0.5-1.1-0.9-1.8c-0.7-1-0.9-1.7-0.6-2c0.2-0.3,1,0.1,2.3,1.1
		c1.9,1.5,3.1,2.9,3.5,4.2c0.4,1.3,0.3,2.3-0.5,3c-0.8,0.6-2,2.1-3.8,4.5c-1.4,2-2.8,3.9-4.1,5.6s-2.6,3.5-4,5.4
		c0,0.1,0.1,0.2,0.2,0.2c2.1,1.8,3.4,3.2,3.9,4.3c0.5,1.1,0.6,2.1,0.3,3.1c-0.2,0.7-0.4,1.5-0.5,2.4c-0.1,0.9-0.2,1.9-0.3,3.1
		c-0.3,2.6-0.5,4.7-0.5,6.3c-0.1,1.7-0.1,3.2,0,4.6c0.1,1.2,0.1,2.2,0.2,2.9c0.1,0.7,0.2,1.1,0.3,1.2c0.1,0.1,0.3-0.2,0.6-0.8
		c0.2-0.6,0.6-1.7,1-3.1c0.8-2.9,1.5-5.3,2.1-7.1s0.9-3.2,1.2-4.2c0.7-2.9,1.4-5.2,2.2-6.9c0.8-1.7,2-3.2,3.6-4.4
		c4-3.1,8.1-6,12.1-8.8s8-5.2,11.7-7.3c0.1-1,0.1-2,0.2-3c0.1-1,0.1-2.1,0.3-3.2c0.1-1.9-0.2-3.3-0.9-4.4c-0.7-1-2.3-1.7-4.8-2
		c-1.1-0.1-1.6-0.5-1.4-1c0.2-0.6,1.4-0.9,3.5-1c1,0,1.9,0.1,2.7,0.4c0.8,0.2,1.6,0.6,2.3,1c0.7,0.5,1.2,1,1.6,1.6
		c0.4,0.6,0.6,1.3,0.5,2.1c-0.1,1.4-0.2,2.7-0.3,3.9c-0.1,1.2-0.2,2.4-0.3,3.6c2.6-1.3,4.4-2.1,5.6-2.5c1.1-0.3,1.9-0.4,2.4-0.1
		c1,0.5,1.5,0.9,1.5,1.3c0,0.4-0.4,0.8-1.2,1.3c-0.7,0.4-1.4,0.8-2,1.2c-0.6,0.4-1.2,0.7-1.9,1c-0.7,0.3-1.4,0.7-2.1,1
		c-0.8,0.4-1.6,0.7-2.7,1.1c-0.2,2.7-0.3,5.2-0.4,7.6c-0.1,2.4-0.2,4.8-0.3,7.2c-0.1,2.4-0.1,4.9-0.1,7.4c0,2.5,0,5.3,0.1,8.3
		c1.6-0.5,2.8-1.1,3.8-2c1.1-1,2-1.7,2.9-2.2c0.8-0.5,1.6-0.9,2.4-1.2c0.8-0.3,1.5-0.4,2.2-0.5c0.7-0.1,1.4-0.1,2.2-0.1
		c1.9,0.1,3.6,0.7,5.2,1.9C83.4,58.2,84.5,59.7,85.3,61.6z M56.6,60.1c1.2,0.8,2.5,1.2,3.8,1.3c0-0.2,0-0.4,0-0.5c0-0.2,0-0.3,0-0.4
		c-0.2-3.7-0.4-7.1-0.4-10.2c0-3.1,0.1-6.4,0.2-9.8c-0.4,0.7-0.8,1.4-1.2,2.1c-0.4,0.8-0.9,1.5-1.4,2.3c-1.2,1.9-2.3,3.7-3.3,5.3
		c-1,1.6-2.1,3.3-3.3,5.1c-0.5,0.7-1,1.5-1.6,2.6c-0.6,1.1-1.2,2.2-1.8,3.4c1.6-1,3.3-1.6,5-1.8S55.6,59.3,56.6,60.1z"/>
</g>
</svg>
